<svg class="sprite" xmlns="http://www.w3.org/2000/svg" xmlns:xlink="http://www.w3.org/1999/xlink"><symbol viewBox="0 0 12 17" id="marker" xmlns="http://www.w3.org/2000/svg"><path d="M5.795 0C2.599 0 0 2.736 0 6.098c0 4.174 5.186 10.3 5.406 10.559.208.243.57.242.777 0 .22-.259 5.406-6.385 5.406-10.559C11.59 2.736 8.99 0 5.795 0Zm0 9.167c-1.608 0-2.916-1.377-2.916-3.069 0-1.691 1.308-3.068 2.916-3.068 1.607 0 2.915 1.377 2.915 3.068 0 1.692-1.308 3.069-2.915 3.069Z"/></symbol><symbol viewBox="0 0 13 15" id="phone" xmlns="http://www.w3.org/2000/svg"><path fill-rule="evenodd" clip-rule="evenodd" d="M12.762 13.121c-.086.1-.19.226-.3.36-.276.335-.62.752-.836.92-1.135.89-2.653.465-3.726-.049-1.417-.677-2.959-1.925-4.344-3.515C2.17 9.248 1.083 7.477.493 5.853.046 4.621-.327 2.88.449 1.576c.148-.248.512-.642.804-.958.117-.127.226-.246.312-.345A.768.768 0 0 1 2.142 0c.216 0 .424.098.577.273l2.088 2.395c.152.176.238.414.238.662 0 .248-.086.486-.238.662l-.57.651a1.51 1.51 0 0 0-.353.801c-.04.304.008.614.134.885.782 1.694 1.99 3.08 3.467 3.977.235.146.506.2.77.154.265-.046.51-.188.698-.406l.567-.651a.768.768 0 0 1 .577-.274c.216 0 .424.099.577.274l2.088 2.395c.152.176.238.414.238.662 0 .248-.086.486-.238.661Z"/></symbol><symbol viewBox="0 0 15 14" id="star" xmlns="http://www.w3.org/2000/svg"><path d="m7.133 0 1.684 5.182h5.449L9.857 8.385l1.684 5.183-4.408-3.203-4.409 3.203 1.684-5.183L0 5.182h5.449L7.133 0Z"/></symbol></svg>