<svg width="24" height="27" viewBox="0 0 24 27" fill="none" xmlns="http://www.w3.org/2000/svg">
<path d="M23.9957 11.9957V19.493C23.9957 19.6918 23.9167 19.8825 23.7761 20.0231C23.6355 20.1637 23.4448 20.2427 23.2459 20.2427H12.7497V26.2405C12.7497 26.4393 12.6707 26.63 12.5301 26.7706C12.3895 26.9112 12.1988 26.9902 12 26.9902C11.8012 26.9902 11.6105 26.9112 11.4699 26.7706C11.3293 26.63 11.2503 26.4393 11.2503 26.2405V20.2427H4.50272C4.40405 20.2432 4.30624 20.2243 4.21489 20.187C4.12355 20.1497 4.04046 20.0947 3.97041 20.0253L0.221768 16.2766C0.151497 16.2069 0.0957222 16.124 0.0576595 16.0326C0.0195968 15.9413 0 15.8433 0 15.7443C0 15.6453 0.0195968 15.5473 0.0576595 15.456C0.0957222 15.3646 0.151497 15.2817 0.221768 15.212L3.97041 11.4634C4.04046 11.3939 4.12355 11.3389 4.21489 11.3016C4.30624 11.2643 4.40405 11.2454 4.50272 11.2459H11.2503V8.99675H0.754076C0.555235 8.99675 0.364539 8.91776 0.223938 8.77716C0.0833363 8.63656 0.00434718 8.44587 0.00434718 8.24703V0.749741C0.00434718 0.550901 0.0833363 0.360204 0.223938 0.219603C0.364539 0.0790017 0.555235 1.25312e-05 0.754076 1.25312e-05H19.4973C19.596 -0.000557932 19.6938 0.018354 19.7851 0.0556639C19.8765 0.0929739 19.9595 0.147948 20.0296 0.217434L23.7782 3.96608C23.8485 4.03577 23.9043 4.11869 23.9423 4.21005C23.9804 4.30142 24 4.39941 24 4.49838C24 4.59736 23.9804 4.69535 23.9423 4.78671C23.9043 4.87807 23.8485 4.96099 23.7782 5.03069L20.0296 8.77933C19.9595 8.84882 19.8765 8.90379 19.7851 8.9411C19.6938 8.97841 19.596 8.99732 19.4973 8.99675H12.7497V11.2459H23.2459C23.4448 11.2459 23.6355 11.3249 23.7761 11.4655C23.9167 11.6061 23.9957 11.7968 23.9957 11.9957Z" fill="#1D4077"/>
</svg>
