<svg width="19" height="19" viewBox="0 0 19 19" fill="none" xmlns="http://www.w3.org/2000/svg">
<path d="M9.49999 19C14.7454 19 19 14.7454 19 9.49999C19 4.25463 14.7454 0 9.49999 0C4.25463 0 0 4.25463 0 9.49999C0 14.7454 4.25463 19 9.49999 19ZM8.8214 4.07143C8.8214 3.69821 9.12676 3.39284 9.49999 3.39284C9.87322 3.39284 10.1786 3.69821 10.1786 4.07143V9.17428L13.317 11.685C13.6088 11.9191 13.6562 12.3466 13.4221 12.6384C13.2898 12.8046 13.093 12.8928 12.8928 12.8928C12.7435 12.8928 12.5943 12.8453 12.4687 12.7435L9.07591 10.0293C8.91644 9.90034 8.82146 9.70697 8.82146 9.49999V4.07143H8.8214Z" fill="#579AC3"/>
</svg>
