<svg width="29" height="22" viewBox="0 0 29 22" fill="none" xmlns="http://www.w3.org/2000/svg">
<path d="M12.8946 10.5604C13.6412 11.0582 14.9512 11.0582 15.698 10.5604C15.6981 10.5603 15.6983 10.5602 15.6984 10.5602L28.4234 2.07675C28.006 0.869612 26.8587 0 25.5115 0H3.08085C1.7336 0 0.586383 0.869612 0.168945 2.07675L12.8942 10.5602C12.8944 10.5603 12.8945 10.5603 12.8946 10.5604Z" fill="#1D4077"/>
<path d="M16.6275 11.954C16.6273 11.9542 16.6272 11.9543 16.6271 11.9543C15.9736 12.39 15.1347 12.6078 14.2961 12.6078C13.4573 12.6078 12.6188 12.39 11.9652 11.9543C11.9651 11.9542 11.965 11.9542 11.9649 11.9541L0 3.97754V18.3336C0 20.0322 1.38199 21.4142 3.08072 21.4142H25.5116C27.2103 21.4142 28.5922 20.0322 28.5922 18.3336V3.97754L16.6275 11.954Z" fill="#1D4077"/>
</svg>
