<svg width="37" height="37" viewBox="0 0 37 37" fill="none" xmlns="http://www.w3.org/2000/svg">
<path fill-rule="evenodd" clip-rule="evenodd" d="M36.3227 32.5453C36.077 32.7902 35.7807 33.1034 35.4666 33.4347C34.6827 34.2667 33.7034 35.301 33.0896 35.7204C29.8602 37.9273 25.5398 36.8713 22.4837 35.5979C18.4523 33.9181 14.0631 30.8218 10.1222 26.8801C6.17752 22.9381 3.08166 18.5473 1.40192 14.518C0.130104 11.4611 -0.928033 7.13961 1.27908 3.90931C1.6982 3.29505 2.7348 2.31722 3.56567 1.53175C3.89808 1.21855 4.20881 0.922623 4.4545 0.677712C4.89069 0.243664 5.481 0 6.09633 0C6.71167 0 7.30198 0.243664 7.73817 0.677712L13.6802 6.61829C14.1139 7.05448 14.3574 7.64466 14.3574 8.25985C14.3574 8.87504 14.1139 9.46522 13.6802 9.90141L12.0615 11.5169C11.5209 12.0536 11.168 12.7505 11.0554 13.5038C10.9428 14.2572 11.0765 15.0268 11.4365 15.6981C13.6629 19.9004 17.1 23.3372 21.3025 25.563C21.9736 25.9229 22.743 26.0564 23.4961 25.9435C24.2492 25.8307 24.9457 25.4777 25.482 24.9369L27.0967 23.3213C27.5329 22.8873 28.1232 22.6436 28.7385 22.6436C29.3538 22.6436 29.9441 22.8873 30.3803 23.3213L36.3227 29.2629C36.7565 29.699 37 30.289 37 30.9041C37 31.5192 36.7565 32.1093 36.3227 32.5453Z" fill="#1D4077"/>
</svg>
