<svg width="21" height="23" viewBox="0 0 21 23" fill="none" xmlns="http://www.w3.org/2000/svg">
<path d="M10.3735 15.671C8.76678 13.8388 7.80837 10.7099 8.59765 7.38363C8.62584 7.32726 8.62583 7.24269 8.65402 7.18631C7.38555 6.05878 5.72243 5.63595 4.05932 6.03059C1.1841 6.70711 -0.619958 9.58233 0.197505 13.0777C0.958592 16.2912 3.74924 19.3637 6.42714 19.2791L6.45533 19.3637L6.2862 21.1396L8.48489 20.6322L7.55468 19.11V19.0818C8.87953 18.5744 9.83794 17.2778 10.3735 15.671Z" fill="#579AC3"/>
<path d="M12.234 2.47885C10.9374 0.533849 8.76688 -0.36818 6.59637 0.139211C4.25673 0.702979 2.62181 2.73254 2.56543 5.35406C2.96007 5.15675 3.38289 5.0158 3.83391 4.93124C4.31311 4.81848 4.79231 4.76211 5.2997 4.76211C6.70912 4.76211 8.00579 5.24131 9.07695 6.05877C9.72528 4.45204 10.8246 3.21175 12.234 2.47885Z" fill="#579AC3"/>
<path d="M16.2936 3.0426C13.4183 2.36608 10.5431 4.14195 9.72567 7.6655C8.93639 10.9917 10.2049 15.1072 12.7982 16.0938V16.122L11.868 17.6442L14.0667 18.1516L13.8976 16.3757L13.9257 16.2911C16.6036 16.3475 19.4225 13.3032 20.1554 10.0897C20.9447 6.59434 19.1688 3.71912 16.2936 3.0426Z" fill="#579AC3"/>
<path d="M12.2335 22.9718C12.5999 22.2107 13.0791 20.9704 13.2764 19.3919C13.3046 19.0818 13.1073 18.7999 12.7972 18.7717C12.4871 18.7153 12.2053 18.9409 12.1771 19.2509C11.9234 21.1114 11.275 22.4926 10.9932 23L12.2335 22.9718Z" fill="#579AC3"/>
<path d="M7.58317 22.9718H8.79527C8.56976 22.3798 8.4852 22.0134 8.4852 22.0134C8.42882 21.7033 8.11875 21.506 7.80868 21.5906C7.4986 21.6469 7.30129 21.957 7.38585 22.2671C7.38585 22.2953 7.44223 22.549 7.58317 22.9718Z" fill="#579AC3"/>
</svg>
