<svg width="28" height="16" viewBox="0 0 28 16" fill="none" xmlns="http://www.w3.org/2000/svg">
<path fill-rule="evenodd" clip-rule="evenodd" d="M2.625 0C1.17526 0 0 1.19391 0 2.66667V6.22222C0.966087 6.22222 1.74934 7.01751 1.75 7.99876V8.00124C1.74934 8.98249 0.966087 9.77778 0 9.77778V13.3333C0 14.8061 1.17526 16 2.625 16H15.75C16.4223 16 17.0355 15.7432 17.5 15.321C17.9645 15.7432 18.5777 16 19.25 16H25.375C26.8248 16 28 14.8061 28 13.3333V9.77778C27.0335 9.77778 26.25 8.98187 26.25 8C26.25 7.01813 27.0335 6.22222 28 6.22222V2.66667C28 1.19391 26.8248 0 25.375 0H19.25C18.5777 0 17.9645 0.256755 17.5 0.679022C17.0355 0.256755 16.4223 0 15.75 0H2.625ZM16.625 3.55556C16.625 4.04647 17.0167 4.44444 17.5 4.44444C17.9833 4.44444 18.375 4.04647 18.375 3.55556V2.66667C18.375 2.17574 17.9833 1.77778 17.5 1.77778C17.0167 1.77778 16.625 2.17574 16.625 2.66667V3.55556ZM16.625 13.3333C16.625 13.8243 17.0167 14.2222 17.5 14.2222C17.9833 14.2222 18.375 13.8243 18.375 13.3333V12.4444C18.375 11.9535 17.9833 11.5556 17.5 11.5556C17.0167 11.5556 16.625 11.9535 16.625 12.4444V13.3333ZM16.625 8.88889C16.625 9.37982 17.0167 9.77778 17.5 9.77778C17.9833 9.77778 18.375 9.37982 18.375 8.88889V7.11111C18.375 6.62018 17.9833 6.22222 17.5 6.22222C17.0167 6.22222 16.625 6.62018 16.625 7.11111V8.88889Z" fill="#579AC3"/>
</svg>
