<svg width="45" height="60" viewBox="0 0 45 60" fill="none" xmlns="http://www.w3.org/2000/svg">
<path fill-rule="evenodd" clip-rule="evenodd" d="M0.521044 58.9982C0.211061 59.1988 0.0597318 59.1017 0.0710465 58.7097C-0.294374 52.5884 0.746244 46.71 3.20183 41.0626C5.17401 34.9164 8.54555 29.6857 13.3145 25.3814C13.3592 24.331 13.2208 23.307 12.8953 22.3064C13.2409 21.2394 13.9423 20.5431 15.0075 20.2234C13.4199 16.816 12.248 13.2582 11.49 9.56059C11.1392 6.37145 10.7894 3.1892 10.4386 5.61542e-05C12.5434 1.09127 14.7266 1.96514 16.9962 2.62767C22.3062 4.01815 27.6421 5.24355 33.0118 6.30994C34.5681 5.84797 36.1283 5.38901 37.6845 4.92704C38.3843 4.86416 39.072 4.94 39.7516 5.15756C39.7336 5.3533 39.7156 5.54907 39.6976 5.74482C38.9311 6.18191 38.2477 6.68246 37.6424 7.2366C38.0001 9.53131 39.2156 11.1876 41.2868 12.2161C42.2659 11.9354 43.2016 11.5475 44.0889 11.0425C44.0592 11.9257 43.802 12.7459 43.3142 13.507C41.7815 15.053 40.5198 16.7939 39.525 18.7265C37.6496 24.1641 36.0443 29.6911 34.7071 35.2935C34.1431 36.9823 33.3902 38.5822 32.4553 40.0922C30.5289 37.8002 28.6175 35.4887 26.7288 33.1638C24.8499 30.908 22.6103 29.116 20.0168 27.7868C19.4643 28.067 18.8743 28.1584 18.2549 28.067C17.1669 27.4819 16.0253 27.1145 14.8349 26.9749C10.9773 30.4475 7.99196 34.5746 5.87976 39.3382C2.81886 45.5643 1.02834 52.1205 0.521044 58.9982Z" fill="#5981B3"/>
</svg>
