<svg width="22" height="38" viewBox="0 0 22 38" fill="none" xmlns="http://www.w3.org/2000/svg">
<path d="M20.3257 15.2176L16.9438 16.9086C17.5942 12.7707 17.8711 6.5879 15.7339 3.73816C13.0848 0.206013 10.9949 0 6.9329 0C6.9918 1.53057 6.69739 2.35479 6.69739 2.35479C6.69739 2.35479 5.57894 1.94268 4.57819 1.76607C5.14555 3.35457 4.78112 6.95365 3.574 7.66944C2.36689 8.38514 0 9.88242 0 9.88242L1.39458 12.1348C1.39458 12.1348 4.20299 10.4009 4.22498 10.3905C5.58865 9.74458 5.50538 10.1992 7.31561 10.5524C9.18155 10.9165 11.1421 9.74299 11.1421 9.74299C11.1421 9.74299 5.84385 14.1582 5.84385 19.4564C5.84385 24.7546 10.1058 26.936 11.6425 28.9049C13.5263 31.3185 13.1142 35.0273 9.58201 35.0273C7.62158 34.8698 6.77828 33.5467 6.73298 32.1584C6.76097 31.8353 6.84954 31.517 6.99895 31.2182C7.32576 30.5646 7.98619 30.1589 8.71487 30.1638L8.72299 28.3978C8.71716 28.3978 8.71151 28.3977 8.7056 28.3977C7.56648 28.3977 6.52193 28.9112 5.83423 29.7767C4.59903 31.2225 4.1599 34.3947 6.04986 36.2633C7.08028 37.2822 8.49226 38 10.259 38C14.6742 38 17.3233 34.4679 17.3233 30.9357C17.3233 28.0981 16.1846 24.6908 16.1942 21.629L20.3257 23.6948C20.3257 23.6948 21.7385 22.5314 21.7385 19.4562C21.7385 16.381 20.3257 15.2176 20.3257 15.2176ZM6.72689 7.97674C6.23919 7.97674 5.84385 7.5814 5.84385 7.0937C5.84385 6.606 6.23919 6.21066 6.72689 6.21066C7.21459 6.21066 7.60992 6.606 7.60992 7.0937C7.60992 7.5814 7.21459 7.97674 6.72689 7.97674Z" fill="#1D4077"/>
</svg>
