<svg width="27" height="27" viewBox="0 0 27 27" fill="none" xmlns="http://www.w3.org/2000/svg">
<path d="M7.03495 2.15397C7.88074 2.34418 8.50357 2.64042 8.97452 2.98305C11.0445 2.40855 13.443 2.17727 15.709 2.39959C13.4093 -0.197935 10.2159 -0.513676 6.94311 0.62798C6.15568 0.902653 6.25943 1.9976 7.03495 2.15397Z" fill="#1D4077"/>
<path d="M3.67641 16.4389C5.24768 15.0676 7.03822 14.7539 8.99836 15.5066C10.819 16.2283 13.7965 17.0806 16.5117 17.5181C16.3159 17.2101 16.3142 17.2082 16.3008 17.1851C15.5685 15.9121 13.9623 12.6086 14.8622 9.43452C15.3926 7.564 16.6883 6.0591 18.7135 4.96152C18.73 4.95224 18.727 4.95393 19.0557 4.7741C16.5845 3.83911 13.7767 3.70383 11.1808 4.12148C8.83166 4.49727 7.60638 5.0899 6.45576 5.85033C0.861411 9.54323 -0.737488 14.5509 0.293614 18.7542C0.293719 18.7547 0.293877 18.755 0.293983 18.7555C1.50259 23.6775 6.55567 26.7594 6.77019 26.8882C6.89065 26.9606 7.02894 27.0011 7.18388 27.0011C7.40547 27.0011 8.79675 26.9542 9.76248 25.8167C10.616 24.8114 10.859 23.3148 10.4843 21.3687C10.3894 20.8752 9.85669 20.5897 9.38859 20.7946C9.37552 20.8003 8.06326 21.3659 6.46299 21.3058C4.54044 21.2335 3.02895 20.3077 1.96474 18.5527C2.2392 18.0755 2.8147 17.1909 3.67641 16.4389Z" fill="#1D4077"/>
<path d="M26.9902 15.912C26.2946 11.3797 24.3103 7.66295 20.8163 5.61377C18.9734 6.62215 19.6091 6.27456 19.4715 6.34964C17.8327 7.23671 16.7939 8.4198 16.3838 9.86603C15.6514 12.4491 17.027 15.2718 17.6632 16.3816L18.5506 17.7774C21.1945 18.0185 23.938 17.8729 26.2555 16.8805C26.5312 16.7624 26.7273 16.6936 26.8758 16.4609C26.9799 16.2976 27.0204 16.1029 26.9902 15.912ZM21.102 11.765C20.6457 11.765 20.3045 11.4007 20.3045 10.9742C20.3045 10.547 20.6464 10.1834 21.102 10.1834C21.5387 10.1834 21.8928 10.5375 21.8928 10.9742C21.8928 11.4109 21.5387 11.765 21.102 11.765Z" fill="#1D4077"/>
</svg>
