<svg width="35" height="44" viewBox="0 0 35 44" fill="none" xmlns="http://www.w3.org/2000/svg">
<path d="M17.1111 0C12.573 0 8.22068 1.80277 5.01173 5.01173C1.80277 8.22068 0 12.573 0 17.1111C0 30.963 17.1111 44 17.1111 44C17.1111 44 34.2222 30.963 34.2222 17.1111C34.2222 12.573 32.4194 8.22068 29.2105 5.01173C26.0015 1.80277 21.6493 0 17.1111 0ZM22.6844 24.8193L17.1274 22.3748L11.5867 24.8193L12.157 18.7896L8.14815 14.2919L14.0556 12.98L17.1111 7.74889L20.1911 12.9637L26.0741 14.2511L22.0815 18.7896L22.6844 24.8193Z" fill="url(#paint0_linear_171_91)"/>
<defs>
<linearGradient id="paint0_linear_171_91" x1="17.1111" y1="0" x2="17.1111" y2="44" gradientUnits="userSpaceOnUse">
<stop stop-color="#1D4077"/>
<stop offset="1" stop-color="#3677DD"/>
</linearGradient>
</defs>
</svg>
