<svg width="63" height="29" viewBox="0 0 63 29" fill="none" xmlns="http://www.w3.org/2000/svg">
<path fill-rule="evenodd" clip-rule="evenodd" d="M0.00388989 9.37359C1.55602 8.67475 3.17077 8.5602 4.85212 9.03499C7.18444 10.1982 9.50899 11.3517 11.8168 12.4942C18.5327 9.83488 25.447 8.08586 32.5617 7.22937C32.7047 4.78106 32.4312 2.37351 31.7411 0.00674859C33.3236 -0.0661083 34.6966 0.452061 35.8601 1.56135C37.7409 2.93757 39.4294 4.51419 40.9394 6.2881C48.6943 7.00333 55.9267 9.29566 62.6305 13.1779C62.7996 13.4534 62.8889 13.7518 62.8857 14.0673C61.5648 15.9553 59.8339 17.3253 57.688 18.1811C51.5804 20.8565 45.3075 23.0447 38.8722 24.7597C36.7409 25.8607 34.6296 26.9459 32.5523 28.0123C32.8084 25.1294 31.5776 23.1104 28.8689 21.9562C23.3298 19.1743 17.6018 16.9993 11.6901 15.4271C10.4691 17.4206 8.90395 19.0927 6.99742 20.4573C6.00431 18.852 5.92563 17.1648 6.76643 15.392C6.17002 14.4838 5.3529 13.8225 4.30222 13.4023C2.78731 12.1378 1.34987 10.7958 -4.2751e-05 9.36862L0.00388989 9.37359Z" fill="white"/>
</svg>
