<svg width="299" height="74" viewBox="0 0 299 74" fill="none" xmlns="http://www.w3.org/2000/svg">
<path fill-rule="evenodd" clip-rule="evenodd" d="M60.9725 37.1615C61.0065 37.7751 60.726 38.2262 60.1283 38.5124C59.9579 39.2781 59.8242 40.0503 59.7298 40.8314C59.6722 41.1253 59.5883 41.4102 59.4768 41.6861C59.7849 41.7261 60.0785 41.7364 60.3551 41.7196C60.0352 42.2185 59.5961 42.5768 59.0377 42.7934C58.6366 43.6983 58.0088 44.3944 57.1528 44.883C57.0689 44.8391 56.9981 44.7786 56.9405 44.7025C56.8697 43.8156 57.0637 42.988 57.5225 42.2172C57.2826 41.8085 57.1974 41.3728 57.2655 40.9101C57.4949 41.1034 57.74 41.1988 58.0022 41.1975C58.5108 40.2733 59.0731 39.3877 59.6892 38.5382C59.3563 38.2056 59.2108 37.8112 59.2527 37.3548C59.5765 37.681 59.9684 37.797 60.4259 37.7016C60.6854 37.5894 60.8689 37.409 60.9751 37.1602L60.9725 37.1615Z" fill="white"/>
<path fill-rule="evenodd" clip-rule="evenodd" d="M48.2303 8.40294C48.4951 8.64915 48.6773 8.95079 48.7756 9.31173C48.8425 9.72165 48.9408 10.12 49.0692 10.5093C50.5268 10.9824 51.9818 11.4645 53.4355 11.9543C53.6282 11.7236 53.8379 11.5031 54.0647 11.2943C54.4501 11.721 54.7017 12.2173 54.8197 12.7806C55.7189 13.5128 56.5866 14.2836 57.4229 15.0919C57.6117 15.3252 57.7795 15.5727 57.9263 15.8344C58.0272 16.1102 57.9302 16.2611 57.6327 16.2881C56.4228 16.4196 55.2745 16.2134 54.1905 15.6694C53.4303 15.9543 52.6464 16.0497 51.8403 15.9581C52.2754 15.6204 52.6949 15.262 53.0999 14.8843C52.459 14.3481 51.7865 13.8531 51.0852 13.3981C50.6553 13.2485 50.2345 13.0835 49.8256 12.9031C49.937 12.7935 50.0497 12.6826 50.1611 12.5731C49.6539 12.0471 49.178 11.4967 48.7337 10.9218C48.3575 10.9127 47.98 10.9269 47.5998 10.963C47.2643 10.9746 46.9418 10.9205 46.6338 10.798C47.7309 10.3752 48.2644 9.57599 48.2303 8.40294Z" fill="white"/>
<path fill-rule="evenodd" clip-rule="evenodd" d="M0.636729 46.7393C0.716687 46.7071 0.794024 46.7123 0.86874 46.7561C1.03783 46.9804 1.22659 47.1892 1.435 47.3813C2.42072 47.9575 3.25438 48.7052 3.936 49.6281C4.52454 49.6668 5.10129 49.7674 5.66756 49.9311C4.8352 50.1347 4.47473 50.6504 4.58353 51.4767C4.8103 52.3571 5.09081 53.2207 5.42637 54.0664C5.74751 54.1476 6.06604 54.2404 6.37932 54.3461C6.08439 54.4299 5.96249 54.6168 6.01754 54.9069C6.20498 55.1595 6.39374 55.4122 6.58249 55.6661C6.98622 55.7576 7.37552 55.8878 7.75303 56.0567C7.43451 56.0606 7.12385 56.1289 6.82106 56.2604C6.65852 56.6806 6.55759 57.1137 6.51826 57.561C6.28625 57.0248 6.19318 56.4602 6.23775 55.8646C6.03851 55.59 5.8183 55.3322 5.57711 55.0912C5.36345 54.9855 5.17601 55.0138 5.01609 55.1788C4.96628 55.1195 4.91778 55.0615 4.86797 55.0022C4.90205 54.747 4.86797 54.5047 4.76704 54.2752C3.92027 53.6126 3.08136 52.9397 2.25032 52.2565C1.85708 52.3867 1.61196 52.6574 1.51627 53.0674C1.15449 52.4512 1.11255 51.8092 1.38912 51.1441C1.1794 50.4067 0.969671 49.6694 0.759944 48.9333C0.715377 48.303 0.603959 47.6842 0.427002 47.0745C0.491231 46.9533 0.560703 46.8412 0.635418 46.7406L0.636729 46.7393Z" fill="white"/>
<path fill-rule="evenodd" clip-rule="evenodd" d="M12.7828 26.0977C12.8037 26.7603 13.0633 27.3185 13.5627 27.7748C14.3072 28.3961 15.0989 28.9543 15.9379 29.4519C15.968 29.524 15.9981 29.5963 16.027 29.6684C15.2091 29.8373 14.4016 30.0577 13.6046 30.3297C13.349 30.4315 13.1275 30.5811 12.9388 30.7783C13.4421 31.361 13.3005 31.6343 12.5154 31.6007C12.3384 31.7361 12.2309 31.9191 12.1916 32.1486C12.1759 33.0806 12.4511 33.9275 13.0174 34.6881C13.4054 35.1263 13.7921 35.5646 14.1801 36.0029C12.6949 35.04 11.9085 33.6916 11.8206 31.9578C11.6188 31.7915 11.4353 31.6033 11.2688 31.3932C11.295 31.1625 11.278 30.9369 11.2203 30.7152C10.5217 29.8102 9.62638 29.1683 8.53711 28.7867C8.56857 28.6204 8.66426 28.5096 8.82548 28.4541C9.80334 28.1138 10.751 27.7013 11.666 27.2166C11.898 27.0774 12.0894 26.8969 12.2401 26.6739C12.185 26.2253 12.3659 26.0333 12.7841 26.1003L12.7828 26.0977Z" fill="white"/>
<path fill-rule="evenodd" clip-rule="evenodd" d="M54.5499 65.1411C54.6024 65.132 54.6509 65.1436 54.6928 65.1759C54.3048 65.6928 54.0663 66.2664 53.9784 66.8981C53.9784 67.1159 54.0151 67.326 54.0859 67.531C54.2432 67.8197 54.3861 68.1007 54.5145 68.374C54.2314 68.2967 53.9575 68.191 53.6927 68.0582C53.3951 67.87 53.1094 67.6715 52.8354 67.4614C52.2298 67.647 51.6583 67.8932 51.1209 68.1987C51.1563 68.3379 51.2271 68.4552 51.3359 68.5506C50.9308 68.5738 50.5258 68.597 50.1208 68.6215C49.0131 69.1462 47.8465 69.4388 46.6196 69.4994C46.8254 69.9957 47.1348 70.4301 47.549 70.8C46.5554 70.733 45.6981 70.3579 44.9759 69.676C44.04 69.7172 43.1342 69.5767 42.2599 69.2545C42.0764 69.199 41.9335 69.0946 41.8313 68.9386C42.0633 68.5352 42.3976 68.2412 42.8314 68.0608C43.6572 67.6547 44.5158 67.326 45.4045 67.0772C45.6745 66.483 46.056 65.9674 46.5475 65.5316L46.7625 65.4259C46.891 65.9235 47.1046 66.3798 47.4061 66.7962C48.574 66.8362 49.7406 66.8607 50.9072 66.8671C51.1143 66.6286 51.3516 66.4288 51.6216 66.2703C51.6754 66.4572 51.7239 66.6441 51.7645 66.8323C52.1708 66.9187 52.5759 66.9058 52.9796 66.7975C53.3951 66.1427 53.9194 65.5922 54.5512 65.1462L54.5499 65.1411Z" fill="white"/>
<path fill-rule="evenodd" clip-rule="evenodd" d="M28.3641 3.32092C28.4415 3.20104 28.4507 3.07728 28.3917 2.94966C27.0337 2.54103 25.6626 2.49462 24.2784 2.80786C23.6413 2.42243 22.9479 2.23296 22.2008 2.24069C22.1248 2.27807 22.0736 2.33607 22.0487 2.41728C22.3017 2.64674 22.5114 2.91228 22.6766 3.2165C22.7474 3.32607 22.7369 3.42662 22.6465 3.51685C21.2583 4.08662 20.0196 4.88713 18.9317 5.91839C18.5135 5.9635 18.1229 6.0924 17.7624 6.30896C17.6995 6.3399 17.6917 6.38245 17.7388 6.43788C17.8686 6.52424 17.9604 6.63381 18.0128 6.76787C17.3469 7.36471 16.6679 7.94736 15.9758 8.51713C15.8906 8.56353 15.8002 8.58159 15.7032 8.57128C14.9796 8.25674 14.2666 8.26834 13.564 8.60349C14.0817 8.83424 14.5667 9.11654 15.0176 9.45298C15.1409 10.4198 15.1592 11.3905 15.0701 12.3663C15.3296 12.1278 15.5393 11.8494 15.6992 11.5297C15.9653 10.6892 16.2183 9.84873 16.4582 9.00955C16.7492 8.78912 17.0716 8.65249 17.4243 8.59964C17.6156 8.77753 17.7703 8.98506 17.8843 9.22096C18.1255 8.83553 18.3785 8.4604 18.6459 8.09431C20.038 7.55677 21.4379 7.0476 22.847 6.56807C22.9506 6.5526 23.0528 6.56291 23.1524 6.59771C23.4526 6.86842 23.7541 7.1404 24.0556 7.41368C24.1054 7.42529 24.1526 7.42272 24.1997 7.40725C24.4881 6.85682 24.7241 6.28706 24.9076 5.69925C26.1161 4.98253 27.2683 4.19103 28.3628 3.3222L28.3641 3.32092Z" fill="white"/>
<path fill-rule="evenodd" clip-rule="evenodd" d="M61.1557 17.7092C61.2698 17.7711 61.3248 17.8729 61.3209 18.0147C61.3012 18.3434 61.2409 18.6644 61.14 18.9789C60.9172 19.4714 60.6524 19.9367 60.3457 20.3737C61.0561 21.6035 61.5935 22.9041 61.9566 24.2757C62.3905 24.607 62.8729 24.8429 63.4051 24.9834C63.1206 25.4114 62.751 25.7543 62.2988 26.0134C62.304 26.7404 62.3564 27.4648 62.4574 28.1867C62.5491 28.3956 62.692 28.5618 62.8873 28.6843C63.3618 28.9576 63.8363 29.2296 64.3082 29.5003C64.1706 29.8084 63.9753 30.0804 63.7236 30.3163C63.2098 30.6708 62.671 30.9788 62.1074 31.2405C61.5621 32.594 61.0155 33.9476 60.4702 35.3024C60.3286 35.5679 60.1084 35.6659 59.8109 35.595C59.6352 35.4119 59.512 35.1979 59.4412 34.9517C58.8396 33.0401 58.5525 31.0884 58.584 29.0942C57.4659 28.4703 56.5562 27.6299 55.8562 26.5741C56.7908 26.9273 57.7647 27.1761 58.7767 27.3192C58.7517 27.1323 58.7491 26.9441 58.7714 26.7559C58.9444 26.0611 59.0716 25.3585 59.1555 24.6508C59.069 24.0862 58.9562 23.5306 58.8186 22.9841C59.0454 22.9763 59.2302 23.0691 59.3757 23.2612C59.5644 22.3743 59.5946 21.4797 59.4661 20.5774C58.5866 20.1997 57.9089 19.6029 57.437 18.783C57.458 18.7469 57.479 18.7095 57.5012 18.6734C59.0218 19.4172 60.2395 19.0963 61.1571 17.7105L61.1557 17.7092Z" fill="white"/>
<path fill-rule="evenodd" clip-rule="evenodd" d="M7.49628 31.662C7.72173 31.6246 7.9 31.6942 8.03239 31.8734C8.15561 32.0964 8.25129 32.331 8.31814 32.576C8.53442 33.9901 8.79658 35.3964 9.10462 36.7925C9.96974 37.3236 10.7549 37.9565 11.4627 38.69C11.9517 39.2662 12.3213 39.9095 12.5704 40.6223C12.5468 40.6571 12.5232 40.6932 12.4983 40.728C11.6056 40.1428 10.6291 39.9198 9.56864 40.0603C9.50966 40.1183 9.44936 40.1776 9.39037 40.2356C9.33925 41.0335 9.36285 41.8302 9.46247 42.6255C9.63025 43.8527 9.84522 45.0709 10.1061 46.28C10.5242 46.6564 10.8467 47.1024 11.0708 47.6155C10.886 47.6838 10.6959 47.7083 10.4993 47.6864C10.633 48.3502 10.8585 48.9819 11.1783 49.5839C11.5453 49.8739 11.8901 50.191 12.2151 50.5326C11.9805 50.5945 11.7419 50.6409 11.5008 50.6731C11.7996 51.2055 12.0867 51.7443 12.358 52.2896C13.2965 52.3618 14.2259 52.5023 15.1448 52.7112C15.6638 52.8581 16.1646 53.045 16.6456 53.2732C15.5708 53.2951 14.4985 53.3647 13.4302 53.4846C13.0462 53.9925 12.725 54.5429 12.4655 55.1359C12.1837 55.7598 11.9215 56.3927 11.679 57.0334C11.5427 55.6038 11.7223 54.209 12.2151 52.8517C11.5571 52.3218 10.9738 51.725 10.4639 51.0599C10.3486 51.2171 10.2175 51.3576 10.0707 51.4814C9.94091 51.0457 9.85833 50.6009 9.82031 50.1459C9.11249 49.4498 8.45709 48.7112 7.85543 47.9326C7.68503 47.9635 7.53036 48.046 7.39141 48.1788C7.21314 47.7031 7.11877 47.212 7.10566 46.7028C5.47765 44.8066 4.66758 42.6036 4.67545 40.0964C4.65185 40.0732 4.62826 40.05 4.60335 40.0255C4.28614 40.1118 3.96369 40.1943 3.63861 40.2717C3.08808 40.496 2.54016 40.7177 1.99487 40.9394C2.25703 39.9069 2.74596 38.9942 3.46034 38.1989C3.84571 37.8199 4.22584 37.4461 4.60335 37.0748C4.98086 35.7496 5.45799 34.4606 6.03212 33.2102C6.41225 32.5902 6.89986 32.0758 7.49759 31.6646L7.49628 31.662Z" fill="white"/>
<path fill-rule="evenodd" clip-rule="evenodd" d="M51.2335 60.7098C51.2597 60.8 51.3148 60.8658 51.3986 60.907C51.5481 60.8941 51.6988 60.88 51.8483 60.8671C53.9783 60.189 55.9065 59.1449 57.6315 57.7346C58.9488 57.4794 60.1443 56.9535 61.2191 56.1568C61.4354 55.9648 61.6281 55.7547 61.7972 55.5252C61.1261 55.7108 60.4589 55.7031 59.7982 55.5007C59.7353 55.4762 59.7169 55.4337 59.7405 55.3718C60.7079 54.1291 61.4367 52.755 61.9283 51.252C62.5378 50.833 63.0346 50.3122 63.4199 49.6922C63.0686 49.7386 62.7147 49.7631 62.3595 49.7631C62.5915 48.5462 62.8904 47.3448 63.2548 46.1589C63.3911 45.9384 63.5707 45.7593 63.7948 45.62C64.4646 45.3377 65.082 44.9716 65.6457 44.5192C65.2852 44.38 64.9247 44.2407 64.5643 44.1015C63.9076 42.8486 63.2259 41.6072 62.522 40.3774C62.4015 40.826 62.3451 41.2836 62.353 41.7528C62.4421 42.8705 62.5968 43.9803 62.8157 45.0812C62.6964 45.7889 62.2822 46.2349 61.577 46.418C61.324 46.2852 61.1038 46.1112 60.9163 45.8959C60.8442 46.0545 60.8141 46.2207 60.8259 46.3948C60.8836 46.8214 60.9045 47.2481 60.8862 47.6722C59.3893 49.2887 57.9408 50.9452 56.5409 52.6416C56.3993 52.7563 56.2368 52.8001 56.0533 52.7743C55.643 52.6699 55.2458 52.5333 54.8591 52.367C54.7766 52.3644 54.715 52.4031 54.6769 52.483C54.5092 53.1688 54.5144 53.8559 54.6953 54.5455C53.5851 56.1066 52.5757 57.7282 51.6687 59.4092C51.4707 59.8358 51.3252 60.269 51.2322 60.7085L51.2335 60.7098Z" fill="white"/>
<path fill-rule="evenodd" clip-rule="evenodd" d="M13.9205 43.0159C14.412 43.0469 14.8656 43.199 15.2785 43.4722C16.0414 44.0111 16.8029 44.5499 17.5658 45.0887C19.0169 45.0062 20.3984 45.2641 21.7105 45.8622L21.7826 45.9331C21.2491 46.0053 20.7248 46.1226 20.211 46.285C20.0091 46.3727 19.8178 46.4783 19.6395 46.6008C20.7353 47.3987 21.7118 48.3243 22.5691 49.3762C22.9296 49.4458 23.2861 49.527 23.6413 49.6224C23.5076 49.7655 23.3884 49.9176 23.2835 50.0787C23.6217 50.5441 24.0621 50.8831 24.6061 51.0983C25.4633 50.7709 26.3324 50.7348 27.2146 50.9926C26.6378 51.2543 26.0781 51.5482 25.5354 51.8705C25.4214 52.5447 25.3978 53.224 25.4633 53.9085C25.4856 53.9974 25.521 54.08 25.5708 54.1547C25.5236 54.2011 25.4751 54.2011 25.4279 54.1547C24.7057 53.4857 24.1827 52.6891 23.8563 51.7648C23.1917 51.4773 22.5127 51.2311 21.8193 51.0274C21.7957 51.2144 21.7721 51.4026 21.7472 51.5895C21.4497 51.391 21.1993 51.1448 20.9975 50.8521C19.629 50.4268 18.33 49.8531 17.1031 49.13C16.6063 49.71 16.3691 50.3894 16.3887 51.168C16.1672 50.7954 15.9994 50.3971 15.888 49.973C15.7399 49.2537 15.6442 48.528 15.6022 47.7945C14.9285 46.8908 14.4042 45.906 14.0306 44.8425C13.8445 44.2418 13.8091 43.6321 13.9231 43.0159H13.9205Z" fill="white"/>
<path fill-rule="evenodd" clip-rule="evenodd" d="M74.076 45.6711C74.2529 45.8966 74.3303 46.1596 74.308 46.4613C74.2018 47.0413 74.0091 47.5918 73.7286 48.1126C73.3891 48.7223 73.0142 49.3088 72.6053 49.8695C72.0154 50.5476 71.4413 51.2372 70.8868 51.9385C70.8055 53.078 70.6443 54.2059 70.4031 55.3223C70.5159 55.6188 70.7453 55.7631 71.09 55.7554C71.0323 55.9758 70.934 56.1808 70.7964 56.3703C70.5395 56.6345 70.2825 56.9001 70.0256 57.1643C69.6403 58.5269 69.1094 59.8289 68.4304 61.0728C68.4422 61.1153 68.4645 61.1514 68.4946 61.1824C69.074 61.4324 69.6534 61.6825 70.234 61.9326C70.3468 61.9829 70.4359 62.0602 70.5041 62.162C70.0348 62.5256 69.5157 62.7963 68.9442 62.9742C68.2338 63.1585 67.5115 63.25 66.7762 63.2526C65.3723 64.6783 63.8085 65.8887 62.0848 66.8839C61.1306 67.3776 60.1278 67.7334 59.0739 67.9512C58.8799 67.9848 58.6899 67.9732 58.5037 67.9126C58.4697 67.8713 58.4487 67.8223 58.4421 67.7682C58.6532 67.3003 58.9114 66.8594 59.2142 66.4456C60.5473 64.8394 61.8528 63.2126 63.1322 61.5652C63.1846 61.4982 63.1898 61.4286 63.1466 61.3551C62.6891 60.5791 62.4715 59.7425 62.4964 58.8466C63.216 58.9974 63.9317 59.1637 64.6474 59.3429C64.962 59.4151 65.2307 59.339 65.451 59.1147C66.6307 57.8024 67.6701 56.3935 68.572 54.8853C68.5261 54.5076 68.5392 54.1338 68.6139 53.7612C68.7227 53.8308 68.8249 53.9069 68.9206 53.9933C69.3034 53.3951 69.6088 52.757 69.8408 52.0829C69.7713 51.7567 69.6625 51.4448 69.5118 51.1457C69.1212 50.4032 68.7306 49.662 68.3399 48.9195C69.3886 49.3152 70.4176 49.2663 71.4295 48.7738C72.6026 47.9798 73.4848 46.9472 74.0786 45.6749L74.076 45.6711Z" fill="white"/>
<path fill-rule="evenodd" clip-rule="evenodd" d="M54.7356 44.3404C54.7146 44.6846 54.6307 45.0365 54.4852 45.3949C54.2991 46.0678 54.4774 46.6182 55.0214 47.0462C55.2927 47.2137 55.5784 47.3543 55.8786 47.4677C55.5208 47.5141 55.1642 47.5141 54.8064 47.4677C54.4656 47.371 54.1313 47.2769 53.8063 47.1867C53.531 47.3568 53.2701 47.5437 53.0198 47.7487L53.3055 48.0297C53.1456 48.1109 52.9791 48.1805 52.8048 48.2411C52.4574 48.6059 52.0878 48.9462 51.6972 49.2608C51.7273 49.4013 51.7863 49.5418 51.8755 49.6823C51.861 49.7235 51.8361 49.7584 51.8034 49.788C51.515 49.8499 51.2292 49.9195 50.9461 49.9994C50.4336 50.3101 49.9093 50.6027 49.3745 50.8773C49.3129 51.1557 49.3129 51.4367 49.3745 51.7203C49.1831 51.7319 48.9917 51.7203 48.803 51.6855C48.5356 51.554 48.2734 51.4251 48.0165 51.2988C46.5025 51.6572 44.9781 51.728 43.4431 51.5102C43.4877 51.313 43.5834 51.1364 43.7289 50.983C45.0239 50.0407 46.4291 49.2801 47.9457 48.6987C48.0637 48.2205 48.3022 47.8106 48.6601 47.469C48.7282 47.4355 48.799 47.4239 48.875 47.4342C48.875 47.7371 48.9458 48.0181 49.09 48.2772C50.0338 47.8957 50.9867 47.5321 51.9489 47.188C52.1271 46.965 52.3067 46.7433 52.485 46.5202C52.5649 46.6504 52.6016 46.7909 52.5925 46.9418C52.9726 46.8954 53.3291 46.7781 53.6647 46.5899C53.8692 45.7649 54.2257 45.0159 54.7356 44.3404Z" fill="white"/>
<path fill-rule="evenodd" clip-rule="evenodd" d="M53.8387 3.23131C54.1769 3.31639 54.4509 3.50329 54.6606 3.79333C54.8874 4.27673 55.1141 4.75756 55.3396 5.23451C56.7566 5.66119 58.0896 6.25932 59.3414 7.02631C59.6757 6.65119 59.9379 6.22967 60.1279 5.76174C60.3914 5.95123 60.5461 6.20903 60.5919 6.53516C60.7191 6.99536 60.7899 7.4633 60.8069 7.94026C61.9617 9.04112 62.8321 10.3289 63.4154 11.8049C63.4075 11.8706 63.3839 11.9299 63.3433 11.9802C62.8911 12.1155 62.4388 12.1155 61.9853 11.9802C60.664 11.6334 59.3781 11.1874 58.1263 10.6447C57.644 10.5506 57.1668 10.4565 56.6976 10.3637C57.1052 9.93314 57.1642 9.45232 56.8758 8.92252C56.3397 7.77138 55.6961 6.69373 54.9464 5.68955C54.4967 5.85455 54.0327 5.92416 53.553 5.90096C53.5975 5.51682 53.7994 5.23579 54.1599 5.0579C54.1795 4.83618 54.1323 4.62607 54.017 4.42498C53.9344 4.02923 53.8741 3.63091 53.8387 3.23001V3.23131Z" fill="white"/>
<path fill-rule="evenodd" clip-rule="evenodd" d="M66.4062 24.2367C66.5005 24.2522 66.5844 24.2328 66.6591 24.1761C67.4024 22.8767 67.89 21.4897 68.1207 20.015C68.9045 19.3344 69.3214 18.4836 69.3712 17.4627C68.9203 17.9718 68.3619 18.2077 67.696 18.1691C67.3512 17.5684 67.0432 16.9457 66.7732 16.3025C66.6736 15.6941 66.8728 15.2094 67.3709 14.8497C67.2608 14.7788 67.1415 14.7737 67.0144 14.8356C66.8951 14.8123 66.7889 14.7608 66.6985 14.6821C66.6316 14.3444 66.5857 14.0028 66.5621 13.6573C66.8466 13.3647 67.1218 13.0592 67.3866 12.7408C67.3643 12.7163 67.3407 12.6918 67.3185 12.6673C66.9999 12.8388 66.6644 12.8839 66.3118 12.8027C66.0182 12.2935 65.6682 11.8217 65.2618 11.3886C65.4191 12.1414 65.6983 12.8568 66.102 13.5323C66.2515 14.1382 66.0771 14.6113 65.5777 14.9529C64.7939 14.7672 64.6916 14.9271 65.271 15.4324C65.5528 15.5007 65.7127 15.6709 65.7508 15.9441C65.3811 16.9251 65.1242 17.9345 64.98 18.9722C64.9852 19.1913 65.0233 19.404 65.0967 19.6102C64.7546 19.9828 64.3587 20.0369 63.9104 19.7727C64.0192 20.1478 64.2329 20.4726 64.5488 20.7485C64.8804 20.9586 65.1924 21.1945 65.4847 21.4549C65.6616 22.2206 65.8687 22.9798 66.1047 23.7301C66.1689 23.9222 66.2698 24.091 66.4048 24.2341L66.4062 24.2367Z" fill="white"/>
<path fill-rule="evenodd" clip-rule="evenodd" d="M16.1071 14.4033C16.153 14.3234 16.2238 14.3053 16.3168 14.3479C17.5555 15.2218 18.9122 15.869 20.3842 16.2918C20.7054 16.4606 20.9675 16.6953 21.1707 16.9943C21.5285 16.984 21.8864 16.9737 22.2442 16.9634C22.336 17.0175 22.3425 17.0755 22.2613 17.1387C21.9165 17.2766 21.6124 17.47 21.349 17.72C21.2166 18.0758 21.2834 18.3878 21.5482 18.6546C21.9152 18.6869 22.277 18.7229 22.6362 18.7629C22.5824 18.906 22.4985 19.0323 22.3858 19.1393C22.0345 19.294 21.7186 19.5003 21.442 19.7581C20.5795 21.0884 19.755 22.438 18.9673 23.8057C19.038 22.5167 18.4705 21.6053 17.2632 21.0729C17.178 20.9388 17.0928 20.8061 17.0089 20.6733C15.4229 22.2189 14.757 24.0945 15.0126 26.2988C14.542 24.5199 14.8343 22.8686 15.8908 21.3436C16.2788 20.8937 16.6524 20.4348 17.0115 19.9669C16.8031 19.896 16.6943 19.7529 16.6825 19.5389C16.811 18.7951 16.8936 18.0462 16.929 17.2921C16.9919 16.226 16.7179 15.2631 16.1071 14.4046V14.4033Z" fill="white"/>
<path fill-rule="evenodd" clip-rule="evenodd" d="M52.4359 53.1044C52.4752 53.1083 52.4988 53.1315 52.508 53.1753C51.3335 54.5018 49.9283 55.5214 48.2911 56.233C47.0472 58.2452 45.4402 59.9197 43.4674 61.2578C43.4176 61.3158 43.4307 61.3635 43.5028 61.3983C43.82 61.4743 44.1294 61.5684 44.4322 61.6793C44.1149 61.9294 43.7571 62.1047 43.3599 62.2065C42.7924 62.3651 42.2209 62.5056 41.6454 62.628C40.4067 63.4311 39.0841 64.0744 37.6789 64.5603C37.6567 65.1314 37.7288 65.6935 37.8939 66.2465C38.181 67.3757 38.527 68.4894 38.9308 69.5851C38.9216 69.6599 38.8862 69.7179 38.8233 69.7604C38.0119 69.4072 37.2962 68.9148 36.6788 68.2845C35.8176 67.3447 35.0678 66.3251 34.4282 65.2268C34.1437 65.192 33.858 65.1804 33.5709 65.192C33.5971 66.0879 33.6574 66.9774 33.7492 67.8629C32.926 67.1797 32.4371 66.3135 32.2837 65.2629C30.3424 64.9587 28.8062 64.0215 27.675 62.4515C27.4666 62.1949 27.4548 61.9371 27.6396 61.678C27.928 61.522 28.2386 61.4395 28.5689 61.4318C30.7435 61.4421 32.9116 61.3248 35.0718 61.0799C36.9803 60.8272 38.8141 60.3245 40.5745 59.5691C41.125 58.9581 41.7201 58.3961 42.3611 57.883C42.4371 58.2749 42.5813 58.6371 42.7897 58.9723C43.9655 59.0006 44.9906 58.6255 45.8622 57.8482C46.5006 57.232 47.0734 56.5643 47.5768 55.845C47.405 55.5898 47.2622 55.3203 47.1481 55.0367C47.9136 54.9955 48.6516 54.8305 49.3634 54.5443C50.374 54.0236 51.399 53.5427 52.4359 53.1031V53.1044Z" fill="white"/>
<path fill-rule="evenodd" clip-rule="evenodd" d="M39.8467 12.1279C40.3999 12.7092 40.7918 13.3886 41.0264 14.1659C41.1746 14.6983 41.282 15.2358 41.3476 15.7824C41.6582 15.8571 41.9676 15.9384 42.2769 16.0286C42.6636 16.0827 43.0438 16.0595 43.42 15.9577C43.5301 15.8223 43.6126 15.6702 43.6703 15.5013C43.9954 15.7978 44.3401 16.0672 44.7071 16.3096C45.7256 16.6705 46.7494 17.0108 47.7797 17.3292C47.8517 17.3176 47.9225 17.306 47.9946 17.2944C48.3931 16.949 48.7392 16.5636 49.0315 16.1343C49.3356 16.8278 49.5269 17.5535 49.603 18.3128C51.3581 19.6405 52.9534 21.1397 54.3913 22.8103C54.4581 23.0101 54.4228 23.1868 54.2838 23.3376C53.5498 23.5593 52.8105 23.5593 52.0686 23.3376C51.2231 23.045 50.4012 22.7046 49.603 22.3179C48.5819 22.724 47.5214 22.9586 46.423 23.0205C46.153 23.0269 45.8908 22.9921 45.6365 22.9148C46.4269 22.4185 47.178 21.868 47.8871 21.2635C47.9369 21.2055 47.9238 21.1578 47.8517 21.123C46.8254 20.5235 45.8489 19.8558 44.9221 19.1198C44.403 18.9792 43.8787 18.8503 43.3505 18.733C43.3269 18.7098 43.3033 18.6866 43.2784 18.6621C43.3741 18.4984 43.4685 18.3347 43.5641 18.1697C42.7567 17.5291 41.8994 16.9554 40.991 16.4475C40.2872 16.6087 39.5728 16.7492 38.8466 16.869C38.5281 16.9296 38.2187 16.9064 37.9172 16.7982C38.7719 16.454 39.4509 15.9035 39.9542 15.1469C40.1036 14.1349 40.0682 13.1282 39.8467 12.1253V12.1279Z" fill="#98D8E5"/>
<path fill-rule="evenodd" clip-rule="evenodd" d="M73.4371 30.9639C73.3664 30.9574 73.3113 30.9239 73.2733 30.8633C73.2379 30.6351 73.1815 30.4108 73.1055 30.1917C72.6114 29.3951 72.2968 28.5314 72.1631 27.5981C71.7475 27.3467 71.3661 27.0528 71.0161 26.7177C71.7043 26.8852 72.1709 26.6455 72.4174 26.0009C72.5982 25.2713 72.7333 24.534 72.8211 23.7876C72.6179 23.6059 72.4226 23.4164 72.2352 23.2204C72.4842 23.272 72.6454 23.1818 72.7201 22.9484C72.6821 22.6932 72.6441 22.4367 72.6061 22.1789C72.3479 21.9584 72.1132 21.7148 71.9048 21.448C72.1395 21.5666 72.3925 21.6349 72.6664 21.6529C72.9508 21.408 73.1947 21.1296 73.3991 20.8176C73.3585 21.2972 73.2038 21.7457 72.9364 22.1634C72.9731 22.4405 73.0334 22.7125 73.1147 22.9807C73.2287 23.1392 73.3769 23.1895 73.5591 23.1302C73.5722 23.1921 73.5853 23.254 73.5984 23.3158C73.4725 23.4886 73.4018 23.678 73.386 23.8856C73.7439 24.6925 74.0926 25.5034 74.4307 26.3193C74.7689 26.3735 75.0547 26.2691 75.2867 26.0061C75.3077 26.5939 75.0874 27.0786 74.6221 27.4602C74.4858 28.0789 74.3482 28.6977 74.2118 29.3151C73.9969 29.7921 73.8343 30.2871 73.7229 30.8001C73.6285 30.8646 73.5328 30.9187 73.4385 30.9639H73.4371Z" fill="#98D8E5"/>
<path fill-rule="evenodd" clip-rule="evenodd" d="M33.9484 51.7401C34.0323 51.7052 34.1188 51.6924 34.2092 51.6988C34.2289 52.2106 34.3403 52.7043 34.5435 53.1825C34.6352 53.3024 34.7571 53.3681 34.9092 53.381C35.4899 53.3604 36.0705 53.3191 36.6486 53.256C36.9946 52.9389 37.3302 52.6076 37.6553 52.2647C37.7274 52.2106 37.8087 52.177 37.8978 52.1616C37.9542 52.3498 38.0289 52.5303 38.1246 52.7017C38.312 52.6372 38.5047 52.5934 38.7013 52.5715C38.9254 52.6411 39.1365 52.7378 39.3331 52.8628C40.2336 52.7275 41.1381 52.6269 42.0464 52.5625C42.4607 52.5857 42.8657 52.6488 43.2642 52.7545C43.3599 52.7726 43.373 52.8138 43.3009 52.8783C42.6573 53.1335 41.9979 53.332 41.3242 53.4738C41.1486 53.519 41.1001 53.6221 41.1761 53.7845C40.8287 53.8696 40.4787 53.8799 40.1261 53.8141C39.0015 54.4548 37.8362 55.0207 36.6289 55.5131C35.8516 55.74 35.0678 55.9411 34.2774 56.1139C34.3626 56.5895 34.457 57.0665 34.5618 57.5447C34.7833 58.0964 35.0521 58.6249 35.3693 59.129C35.4545 59.3352 35.4007 59.3842 35.208 59.2759C34.6575 58.9227 34.1764 58.4883 33.7662 57.9727C33.2825 57.3204 32.8539 56.6359 32.479 55.9192C31.1813 55.6846 29.9898 55.1947 28.9044 54.4497C28.62 54.246 28.3775 54.0024 28.1769 53.7162C28.1507 53.6208 28.1717 53.537 28.2399 53.4635C28.9451 53.2521 29.6699 53.1593 30.4118 53.1825C31.1013 53.1928 31.7895 53.2096 32.4763 53.2341C32.9902 52.7584 33.4817 52.2595 33.951 51.7401H33.9484Z" fill="#98D8E5"/>
<path fill-rule="evenodd" clip-rule="evenodd" d="M31.7459 0C32.4171 0.248789 32.9532 0.670317 33.3543 1.26458C33.5968 1.57395 33.8118 1.90137 33.9979 2.24813C34.0621 2.28938 34.1329 2.31258 34.2129 2.31902C34.9456 2.17722 35.6718 2.01351 36.3927 1.82659C36.4163 1.75569 36.4399 1.6861 36.4648 1.6152C36.4189 1.22333 36.335 0.849489 36.2144 0.491129C36.8921 0.734762 37.499 1.09828 38.0364 1.58039C38.7862 1.59844 39.5373 1.58684 40.2871 1.54559C41.0408 1.55333 41.7906 1.60102 42.5377 1.68609C42.6465 1.68352 42.7304 1.63712 42.7881 1.54559C43.0463 0.952625 43.4631 0.506595 44.0386 0.21011C44.3964 0.34804 44.6219 0.605861 44.7176 0.983556C44.8473 1.35223 44.9548 1.72734 45.0387 2.10761C46.9407 2.84367 48.7509 3.74601 50.4693 4.81336C50.6188 4.91906 50.7131 5.05958 50.7551 5.23489C50.4588 5.61903 50.0774 5.90004 49.6121 6.07793C48.8269 6.34992 48.0168 6.47883 47.1819 6.46465C46.6077 6.43114 46.0362 6.39633 45.4673 6.35895C44.6874 7.26774 43.7227 7.88908 42.5731 8.22166C42.4892 8.21005 42.4066 8.19844 42.3227 8.18684C42.7252 7.45336 43.0594 6.69152 43.3229 5.90262C42.1471 5.60742 40.9805 5.28 39.8218 4.91906C39.4796 5.05183 39.1467 5.20395 38.8216 5.37539C38.5857 5.4334 38.3484 5.46821 38.1072 5.4811C38.0784 5.1511 38.0312 4.82367 37.9644 4.49754C36.6169 4.11856 35.2825 3.69703 33.9625 3.23297C33.1616 3.61711 32.3279 3.90972 31.4615 4.11082C31.1758 4.15722 30.89 4.15722 30.6042 4.11082C31.8652 2.97773 32.2454 1.60746 31.7459 0Z" fill="#98D8E5"/>
<path fill-rule="evenodd" clip-rule="evenodd" d="M30.3697 8.22294C31.1601 8.2165 31.8916 8.44595 32.5627 8.90872C33.6297 8.87649 34.6927 8.79012 35.7532 8.64704C36.6838 8.60321 37.6145 8.60321 38.5452 8.64704C38.6736 8.69989 38.8073 8.73341 38.9436 8.74501C38.9384 9.04021 38.8375 9.3019 38.6448 9.53006C37.4362 10.7353 36.0193 11.6286 34.3912 12.21C34.0937 12.8816 33.7621 13.5352 33.3937 14.1707C33.1971 14.4298 32.9756 14.6695 32.7292 14.89C32.6964 14.1501 32.6846 13.4088 32.6964 12.6676C31.5717 12.8649 30.4418 13.0273 29.3067 13.1575C28.9934 13.4475 28.65 13.6989 28.2764 13.909C28.2004 13.7195 28.1663 13.5236 28.1768 13.3212C27.777 13.3405 27.3785 13.374 26.98 13.4192C26.8424 13.6796 26.6654 13.909 26.4478 14.1049C26.4033 13.918 26.3141 13.7543 26.1817 13.6151C25.913 13.5816 25.6469 13.6035 25.3835 13.6808C25.2957 14.1991 25.1737 14.7108 25.0178 15.2174C24.5682 16.0115 24.3466 15.9238 24.3532 14.9557C24.3021 14.7791 24.2247 14.6167 24.1212 14.4659C23.1132 14.0495 22.0724 13.744 20.9976 13.5506C21.3869 13.3212 21.8076 13.1691 22.2599 13.093C23.1407 12.9242 24.0268 12.8906 24.9181 12.995C25.4307 12.9577 25.8409 12.7398 26.1477 12.3415C26.1804 12.0592 26.1922 11.7756 26.1804 11.492C26.4898 11.5681 26.8004 11.6235 27.1111 11.6557C28.2187 11.0679 29.3263 10.4788 30.434 9.891C30.5952 9.72858 30.6607 9.53263 30.6332 9.30317C30.6175 9.05052 30.5847 8.79916 30.5336 8.55166C30.5087 8.42146 30.4536 8.31318 30.3671 8.22424L30.3697 8.22294Z" fill="#98D8E5"/>
<path fill-rule="evenodd" clip-rule="evenodd" d="M10.9215 12.7653C11.1129 12.7421 11.2781 12.7911 11.4157 12.9123C11.7447 13.9925 11.7985 15.0857 11.5769 16.1917C11.4118 16.9677 11.2204 17.736 11.0028 18.4991C11.2846 19.6593 11.3371 20.8284 11.1562 22.0079C10.8193 21.5529 10.4444 21.1262 10.0315 20.7279C9.38528 21.6792 8.75479 22.6421 8.14003 23.6167C8.15314 24.0949 8.17149 24.5757 8.19377 25.0591C8.16625 25.2332 8.13872 25.4072 8.10988 25.5799C7.87787 25.3737 7.62751 25.1906 7.36142 25.0321C6.8371 25.6792 6.3272 26.3405 5.83172 27.0147C5.78978 27.6244 5.74783 28.2341 5.70589 28.8451C5.68885 28.9392 5.65214 29.0243 5.59709 29.1042C5.41096 28.8245 5.20909 28.5564 4.99019 28.2998C4.40165 29.188 3.79606 30.0646 3.17343 30.9282C3.12362 31.101 3.11838 31.2763 3.15639 31.4516C3.35956 32.0252 3.56405 32.6002 3.76722 33.1738C3.80261 33.3311 3.81965 33.4845 3.81834 33.634C3.49195 33.0539 3.00434 32.6891 2.3555 32.5409C2.05795 32.5744 1.76695 32.6414 1.48251 32.7433C0.994893 32.965 0.500723 33.1467 0 33.286C0.56102 32.4932 1.27016 31.8602 2.12611 31.3872C2.32666 31.2454 2.47609 31.0636 2.57702 30.8445C2.9755 29.9099 3.39496 28.9843 3.83145 28.0665C3.412 27.9969 2.99123 27.9737 2.56785 27.9943C2.99779 27.2596 3.62434 26.7659 4.44752 26.5132C4.58122 25.8932 4.72279 25.2757 4.87353 24.6595C4.85256 24.6041 4.8329 24.5487 4.81192 24.4932C4.70575 24.5435 4.59433 24.5616 4.47767 24.5487C4.56287 24.1052 4.78571 23.7404 5.14618 23.4555C5.30609 21.8287 5.72293 20.269 6.39536 18.7788C5.53417 18.5158 4.65201 18.3354 3.74887 18.2374C4.38329 17.5735 5.15273 17.1275 6.05587 16.9007C6.43469 16.8182 6.81482 16.7421 7.19495 16.6738C7.89622 15.6876 8.64862 14.7389 9.45082 13.8288C9.89518 13.3983 10.3828 13.0425 10.9176 12.7615L10.9215 12.7653Z" fill="#98D8E5"/>
<path fill-rule="evenodd" clip-rule="evenodd" d="M67.5187 25.9423C67.5515 25.8508 67.5986 25.8469 67.6589 25.9307C68.7141 27.1528 69.4364 28.5488 69.8257 30.1228C70.3959 31.7238 70.527 33.357 70.2176 35.0199C70.3762 35.2468 70.5689 35.4389 70.797 35.5961C70.8953 35.8746 70.8599 36.1324 70.6882 36.3696C71.5651 36.8285 72.3791 37.3854 73.1289 38.0376C73.7122 38.6486 74.2942 39.2584 74.8775 39.8694C74.2627 39.9777 73.6663 40.1439 73.0856 40.3682C71.7525 40.9264 70.4404 41.5233 69.1467 42.1588C68.895 42.5042 68.642 42.8497 68.3904 43.1952C68.254 43.3202 68.0981 43.4143 67.9211 43.4775C67.8936 43.4336 67.866 43.3898 67.8385 43.346C67.929 43.132 67.9919 42.918 68.0299 42.7053C67.5882 42.2825 67.0691 42.1304 66.4714 42.2464C66.3114 42.4617 66.1777 42.6924 66.0729 42.9399C65.9379 42.7504 65.8605 42.5377 65.8409 42.3006C65.9143 41.7321 65.8999 41.1662 65.7989 40.6029C65.3218 39.1656 64.7739 37.7527 64.1578 36.367C64.0058 35.9236 63.9075 35.4685 63.8616 35.0032C64.631 35.1746 65.4004 35.3525 66.1673 35.5368C66.921 35.7083 67.676 35.725 68.431 35.5884C68.5018 35.4415 68.6106 35.328 68.7548 35.2481C69.0759 35.1965 69.3735 35.0908 69.6448 34.9297C69.8965 33.5865 69.8611 32.2459 69.5412 30.9117C69.186 29.1199 68.5123 27.4621 67.5187 25.9423Z" fill="#98D8E5"/>
<path fill-rule="evenodd" clip-rule="evenodd" d="M39.2937 73.5123C37.4363 72.6873 35.5658 71.8739 33.6782 71.0709C30.3672 69.5304 27.351 67.5479 24.6324 65.1205C23.8263 63.7168 23.3544 62.2124 23.2194 60.6075C23.1499 59.3623 23.517 58.2911 24.3179 57.3926C23.8263 57.2701 23.3256 57.1992 22.8131 57.1799C21.3266 57.323 19.8402 57.4429 18.3511 57.5395C18.0509 57.5228 17.7547 57.4867 17.4624 57.4287C16.6943 56.953 15.8645 56.6694 14.9745 56.5753C14.8579 56.5611 14.774 56.6063 14.7215 56.7107C15.1017 56.9466 15.4621 57.2108 15.8042 57.5009C15.8069 57.8876 15.6692 58.2176 15.3927 58.4896C15.006 58.2872 14.6429 58.05 14.3034 57.7767C14.1946 57.7252 14.1173 57.7561 14.0701 57.867C14.0858 58.0371 14.1474 58.1892 14.2523 58.3246C14.7517 58.9369 15.2524 59.5492 15.7518 60.1628C16.0546 60.5405 16.2722 60.9607 16.4059 61.4196C16.5593 62.1879 16.6379 62.9626 16.6405 63.7438C16.5684 64.8756 16.4754 65.9932 16.364 67.0954C17.3248 66.7293 18.2934 66.3684 19.2713 66.0139C20.219 65.7805 21.1746 65.7393 22.138 65.8914C22.2914 65.9133 22.4015 65.9971 22.4683 66.1415C22.5247 66.8556 22.6033 67.5672 22.7043 68.2775C22.7436 68.3123 22.7829 68.3471 22.8236 68.3832C23.0818 67.7386 23.2233 67.0683 23.2496 66.3696C23.2771 66.3091 23.3203 66.2923 23.3833 66.3181C23.5877 66.4779 23.8198 66.5785 24.078 66.6171C24.0714 66.3787 24.04 66.1389 23.9836 65.8991C24.0334 65.7419 24.1357 65.6774 24.2903 65.7058C28.2922 69.2791 32.8865 71.825 38.0746 73.3409C38.4771 73.4402 38.8834 73.4969 39.2937 73.5123Z" fill="#98D8E5"/>
<path fill-rule="evenodd" clip-rule="evenodd" d="M60.9725 37.1615C61.0065 37.7751 60.726 38.2262 60.1283 38.5124C59.9579 39.2781 59.8242 40.0503 59.7298 40.8314C59.6722 41.1253 59.5883 41.4102 59.4768 41.6861C59.7849 41.7261 60.0785 41.7364 60.3551 41.7196C60.0352 42.2185 59.5961 42.5768 59.0377 42.7934C58.6366 43.6983 58.0088 44.3944 57.1528 44.883C57.0689 44.8391 56.9981 44.7786 56.9405 44.7025C56.8697 43.8156 57.0637 42.988 57.5225 42.2172C57.2826 41.8085 57.1974 41.3728 57.2655 40.9101C57.4949 41.1034 57.74 41.1988 58.0022 41.1975C58.5108 40.2733 59.0731 39.3877 59.6892 38.5382C59.3563 38.2056 59.2108 37.8112 59.2527 37.3548C59.5765 37.681 59.9684 37.797 60.4259 37.7016C60.6854 37.5894 60.8689 37.409 60.9751 37.1602L60.9725 37.1615Z" fill="white"/>
<path fill-rule="evenodd" clip-rule="evenodd" d="M48.2303 8.40294C48.4951 8.64915 48.6773 8.95079 48.7756 9.31173C48.8425 9.72165 48.9408 10.12 49.0692 10.5093C50.5268 10.9824 51.9818 11.4645 53.4355 11.9543C53.6282 11.7236 53.8379 11.5031 54.0647 11.2943C54.4501 11.721 54.7017 12.2173 54.8197 12.7806C55.7189 13.5128 56.5866 14.2836 57.4229 15.0919C57.6117 15.3252 57.7795 15.5727 57.9263 15.8344C58.0272 16.1102 57.9302 16.2611 57.6327 16.2881C56.4228 16.4196 55.2745 16.2134 54.1905 15.6694C53.4303 15.9543 52.6464 16.0497 51.8403 15.9581C52.2754 15.6204 52.6949 15.262 53.0999 14.8843C52.459 14.3481 51.7865 13.8531 51.0852 13.3981C50.6553 13.2485 50.2345 13.0835 49.8256 12.9031C49.937 12.7935 50.0497 12.6826 50.1611 12.5731C49.6539 12.0471 49.178 11.4967 48.7337 10.9218C48.3575 10.9127 47.98 10.9269 47.5998 10.963C47.2643 10.9746 46.9418 10.9205 46.6338 10.798C47.7309 10.3752 48.2644 9.57599 48.2303 8.40294Z" fill="white"/>
<path fill-rule="evenodd" clip-rule="evenodd" d="M0.636729 46.7393C0.716687 46.7071 0.794024 46.7123 0.86874 46.7561C1.03783 46.9804 1.22659 47.1892 1.435 47.3813C2.42072 47.9575 3.25438 48.7052 3.936 49.6281C4.52454 49.6668 5.10129 49.7674 5.66756 49.9311C4.8352 50.1347 4.47473 50.6504 4.58353 51.4767C4.8103 52.3571 5.09081 53.2207 5.42637 54.0664C5.74751 54.1476 6.06604 54.2404 6.37932 54.3461C6.08439 54.4299 5.96249 54.6168 6.01754 54.9069C6.20498 55.1595 6.39374 55.4122 6.58249 55.6661C6.98622 55.7576 7.37552 55.8878 7.75303 56.0567C7.43451 56.0606 7.12385 56.1289 6.82106 56.2604C6.65852 56.6806 6.55759 57.1137 6.51826 57.561C6.28625 57.0248 6.19318 56.4602 6.23775 55.8646C6.03851 55.59 5.8183 55.3322 5.57711 55.0912C5.36345 54.9855 5.17601 55.0138 5.01609 55.1788C4.96628 55.1195 4.91778 55.0615 4.86797 55.0022C4.90205 54.747 4.86797 54.5047 4.76704 54.2752C3.92027 53.6126 3.08136 52.9397 2.25032 52.2565C1.85708 52.3867 1.61196 52.6574 1.51627 53.0674C1.15449 52.4512 1.11255 51.8092 1.38912 51.1441C1.1794 50.4067 0.969671 49.6694 0.759944 48.9333C0.715377 48.303 0.603959 47.6842 0.427002 47.0745C0.491231 46.9533 0.560703 46.8412 0.635418 46.7406L0.636729 46.7393Z" fill="white"/>
<path fill-rule="evenodd" clip-rule="evenodd" d="M12.7828 26.0977C12.8037 26.7603 13.0633 27.3185 13.5627 27.7748C14.3072 28.3961 15.0989 28.9543 15.9379 29.4519C15.968 29.524 15.9981 29.5963 16.027 29.6684C15.2091 29.8373 14.4016 30.0577 13.6046 30.3297C13.349 30.4315 13.1275 30.5811 12.9388 30.7783C13.4421 31.361 13.3005 31.6343 12.5154 31.6007C12.3384 31.7361 12.2309 31.9191 12.1916 32.1486C12.1759 33.0806 12.4511 33.9275 13.0174 34.6881C13.4054 35.1263 13.7921 35.5646 14.1801 36.0029C12.6949 35.04 11.9085 33.6916 11.8206 31.9578C11.6188 31.7915 11.4353 31.6033 11.2688 31.3932C11.295 31.1625 11.278 30.9369 11.2203 30.7152C10.5217 29.8102 9.62638 29.1683 8.53711 28.7867C8.56857 28.6204 8.66426 28.5096 8.82548 28.4541C9.80334 28.1138 10.751 27.7013 11.666 27.2166C11.898 27.0774 12.0894 26.8969 12.2401 26.6739C12.185 26.2253 12.3659 26.0333 12.7841 26.1003L12.7828 26.0977Z" fill="white"/>
<path fill-rule="evenodd" clip-rule="evenodd" d="M54.5499 65.1411C54.6024 65.132 54.6509 65.1436 54.6928 65.1759C54.3048 65.6928 54.0663 66.2664 53.9784 66.8981C53.9784 67.1159 54.0151 67.326 54.0859 67.531C54.2432 67.8197 54.3861 68.1007 54.5145 68.374C54.2314 68.2967 53.9575 68.191 53.6927 68.0582C53.3951 67.87 53.1094 67.6715 52.8354 67.4614C52.2298 67.647 51.6583 67.8932 51.1209 68.1987C51.1563 68.3379 51.2271 68.4552 51.3359 68.5506C50.9308 68.5738 50.5258 68.597 50.1208 68.6215C49.0131 69.1462 47.8465 69.4388 46.6196 69.4994C46.8254 69.9957 47.1348 70.4301 47.549 70.8C46.5554 70.733 45.6981 70.3579 44.9759 69.676C44.04 69.7172 43.1342 69.5767 42.2599 69.2545C42.0764 69.199 41.9335 69.0946 41.8313 68.9386C42.0633 68.5352 42.3976 68.2412 42.8314 68.0608C43.6572 67.6547 44.5158 67.326 45.4045 67.0772C45.6745 66.483 46.056 65.9674 46.5475 65.5316L46.7625 65.4259C46.891 65.9235 47.1046 66.3798 47.4061 66.7962C48.574 66.8362 49.7406 66.8607 50.9072 66.8671C51.1143 66.6286 51.3516 66.4288 51.6216 66.2703C51.6754 66.4572 51.7239 66.6441 51.7645 66.8323C52.1708 66.9187 52.5759 66.9058 52.9796 66.7975C53.3951 66.1427 53.9194 65.5922 54.5512 65.1462L54.5499 65.1411Z" fill="white"/>
<path fill-rule="evenodd" clip-rule="evenodd" d="M28.3641 3.32092C28.4415 3.20104 28.4507 3.07728 28.3917 2.94966C27.0337 2.54103 25.6626 2.49462 24.2784 2.80786C23.6413 2.42243 22.9479 2.23296 22.2008 2.24069C22.1248 2.27807 22.0736 2.33607 22.0487 2.41728C22.3017 2.64674 22.5114 2.91228 22.6766 3.2165C22.7474 3.32607 22.7369 3.42662 22.6465 3.51685C21.2583 4.08662 20.0196 4.88713 18.9317 5.91839C18.5135 5.9635 18.1229 6.0924 17.7624 6.30896C17.6995 6.3399 17.6917 6.38245 17.7388 6.43788C17.8686 6.52424 17.9604 6.63381 18.0128 6.76787C17.3469 7.36471 16.6679 7.94736 15.9758 8.51713C15.8906 8.56353 15.8002 8.58159 15.7032 8.57128C14.9796 8.25674 14.2666 8.26834 13.564 8.60349C14.0817 8.83424 14.5667 9.11654 15.0176 9.45298C15.1409 10.4198 15.1592 11.3905 15.0701 12.3663C15.3296 12.1278 15.5393 11.8494 15.6992 11.5297C15.9653 10.6892 16.2183 9.84873 16.4582 9.00955C16.7492 8.78912 17.0716 8.65249 17.4243 8.59964C17.6156 8.77753 17.7703 8.98506 17.8843 9.22096C18.1255 8.83553 18.3785 8.4604 18.6459 8.09431C20.038 7.55677 21.4379 7.0476 22.847 6.56807C22.9506 6.5526 23.0528 6.56291 23.1524 6.59771C23.4526 6.86842 23.7541 7.1404 24.0556 7.41368C24.1054 7.42529 24.1526 7.42272 24.1997 7.40725C24.4881 6.85682 24.7241 6.28706 24.9076 5.69925C26.1161 4.98253 27.2683 4.19103 28.3628 3.3222L28.3641 3.32092Z" fill="white"/>
<path fill-rule="evenodd" clip-rule="evenodd" d="M61.1557 17.7092C61.2698 17.7711 61.3248 17.8729 61.3209 18.0147C61.3012 18.3434 61.2409 18.6644 61.14 18.9789C60.9172 19.4714 60.6524 19.9367 60.3457 20.3737C61.0561 21.6035 61.5935 22.9041 61.9566 24.2757C62.3905 24.607 62.8729 24.8429 63.4051 24.9834C63.1206 25.4114 62.751 25.7543 62.2988 26.0134C62.304 26.7404 62.3564 27.4648 62.4574 28.1867C62.5491 28.3956 62.692 28.5618 62.8873 28.6843C63.3618 28.9576 63.8363 29.2296 64.3082 29.5003C64.1706 29.8084 63.9753 30.0804 63.7236 30.3163C63.2098 30.6708 62.671 30.9788 62.1074 31.2405C61.5621 32.594 61.0155 33.9476 60.4702 35.3024C60.3286 35.5679 60.1084 35.6659 59.8109 35.595C59.6352 35.4119 59.512 35.1979 59.4412 34.9517C58.8396 33.0401 58.5525 31.0884 58.584 29.0942C57.4659 28.4703 56.5562 27.6299 55.8562 26.5741C56.7908 26.9273 57.7647 27.1761 58.7767 27.3192C58.7517 27.1323 58.7491 26.9441 58.7714 26.7559C58.9444 26.0611 59.0716 25.3585 59.1555 24.6508C59.069 24.0862 58.9562 23.5306 58.8186 22.9841C59.0454 22.9763 59.2302 23.0691 59.3757 23.2612C59.5644 22.3743 59.5946 21.4797 59.4661 20.5774C58.5866 20.1997 57.9089 19.6029 57.437 18.783C57.458 18.7469 57.479 18.7095 57.5012 18.6734C59.0218 19.4172 60.2395 19.0963 61.1571 17.7105L61.1557 17.7092Z" fill="white"/>
<path fill-rule="evenodd" clip-rule="evenodd" d="M7.49628 31.662C7.72173 31.6246 7.9 31.6942 8.03239 31.8734C8.15561 32.0964 8.25129 32.331 8.31814 32.576C8.53442 33.9901 8.79658 35.3964 9.10462 36.7925C9.96974 37.3236 10.7549 37.9565 11.4627 38.69C11.9517 39.2662 12.3213 39.9095 12.5704 40.6223C12.5468 40.6571 12.5232 40.6932 12.4983 40.728C11.6056 40.1428 10.6291 39.9198 9.56864 40.0603C9.50966 40.1183 9.44936 40.1776 9.39037 40.2356C9.33925 41.0335 9.36285 41.8302 9.46247 42.6255C9.63025 43.8527 9.84522 45.0709 10.1061 46.28C10.5242 46.6564 10.8467 47.1024 11.0708 47.6155C10.886 47.6838 10.6959 47.7083 10.4993 47.6864C10.633 48.3502 10.8585 48.9819 11.1783 49.5839C11.5453 49.8739 11.8901 50.191 12.2151 50.5326C11.9805 50.5945 11.7419 50.6409 11.5008 50.6731C11.7996 51.2055 12.0867 51.7443 12.358 52.2896C13.2965 52.3618 14.2259 52.5023 15.1448 52.7112C15.6638 52.8581 16.1646 53.045 16.6456 53.2732C15.5708 53.2951 14.4985 53.3647 13.4302 53.4846C13.0462 53.9925 12.725 54.5429 12.4655 55.1359C12.1837 55.7598 11.9215 56.3927 11.679 57.0334C11.5427 55.6038 11.7223 54.209 12.2151 52.8517C11.5571 52.3218 10.9738 51.725 10.4639 51.0599C10.3486 51.2171 10.2175 51.3576 10.0707 51.4814C9.94091 51.0457 9.85833 50.6009 9.82031 50.1459C9.11249 49.4498 8.45709 48.7112 7.85543 47.9326C7.68503 47.9635 7.53036 48.046 7.39141 48.1788C7.21314 47.7031 7.11877 47.212 7.10566 46.7028C5.47765 44.8066 4.66758 42.6036 4.67545 40.0964C4.65185 40.0732 4.62826 40.05 4.60335 40.0255C4.28614 40.1118 3.96369 40.1943 3.63861 40.2717C3.08808 40.496 2.54016 40.7177 1.99487 40.9394C2.25703 39.9069 2.74596 38.9942 3.46034 38.1989C3.84571 37.8199 4.22584 37.4461 4.60335 37.0748C4.98086 35.7496 5.45799 34.4606 6.03212 33.2102C6.41225 32.5902 6.89986 32.0758 7.49759 31.6646L7.49628 31.662Z" fill="white"/>
<path fill-rule="evenodd" clip-rule="evenodd" d="M51.2335 60.7098C51.2597 60.8 51.3148 60.8658 51.3986 60.907C51.5481 60.8941 51.6988 60.88 51.8483 60.8671C53.9783 60.189 55.9065 59.1449 57.6315 57.7346C58.9488 57.4794 60.1443 56.9535 61.2191 56.1568C61.4354 55.9648 61.6281 55.7547 61.7972 55.5252C61.1261 55.7108 60.4589 55.7031 59.7982 55.5007C59.7353 55.4762 59.7169 55.4337 59.7405 55.3718C60.7079 54.1291 61.4367 52.755 61.9283 51.252C62.5378 50.833 63.0346 50.3122 63.4199 49.6922C63.0686 49.7386 62.7147 49.7631 62.3595 49.7631C62.5915 48.5462 62.8904 47.3448 63.2548 46.1589C63.3911 45.9384 63.5707 45.7593 63.7948 45.62C64.4646 45.3377 65.082 44.9716 65.6457 44.5192C65.2852 44.38 64.9247 44.2407 64.5643 44.1015C63.9076 42.8486 63.2259 41.6072 62.522 40.3774C62.4015 40.826 62.3451 41.2836 62.353 41.7528C62.4421 42.8705 62.5968 43.9803 62.8157 45.0812C62.6964 45.7889 62.2822 46.2349 61.577 46.418C61.324 46.2852 61.1038 46.1112 60.9163 45.8959C60.8442 46.0545 60.8141 46.2207 60.8259 46.3948C60.8836 46.8214 60.9045 47.2481 60.8862 47.6722C59.3893 49.2887 57.9408 50.9452 56.5409 52.6416C56.3993 52.7563 56.2368 52.8001 56.0533 52.7743C55.643 52.6699 55.2458 52.5333 54.8591 52.367C54.7766 52.3644 54.715 52.4031 54.6769 52.483C54.5092 53.1688 54.5144 53.8559 54.6953 54.5455C53.5851 56.1066 52.5757 57.7282 51.6687 59.4092C51.4707 59.8358 51.3252 60.269 51.2322 60.7085L51.2335 60.7098Z" fill="white"/>
<path fill-rule="evenodd" clip-rule="evenodd" d="M13.9205 43.0159C14.412 43.0469 14.8656 43.199 15.2785 43.4722C16.0414 44.0111 16.8029 44.5499 17.5658 45.0887C19.0169 45.0062 20.3984 45.2641 21.7105 45.8622L21.7826 45.9331C21.2491 46.0053 20.7248 46.1226 20.211 46.285C20.0091 46.3727 19.8178 46.4783 19.6395 46.6008C20.7353 47.3987 21.7118 48.3243 22.5691 49.3762C22.9296 49.4458 23.2861 49.527 23.6413 49.6224C23.5076 49.7655 23.3884 49.9176 23.2835 50.0787C23.6217 50.5441 24.0621 50.8831 24.6061 51.0983C25.4633 50.7709 26.3324 50.7348 27.2146 50.9926C26.6378 51.2543 26.0781 51.5482 25.5354 51.8705C25.4214 52.5447 25.3978 53.224 25.4633 53.9085C25.4856 53.9974 25.521 54.08 25.5708 54.1547C25.5236 54.2011 25.4751 54.2011 25.4279 54.1547C24.7057 53.4857 24.1827 52.6891 23.8563 51.7648C23.1917 51.4773 22.5127 51.2311 21.8193 51.0274C21.7957 51.2144 21.7721 51.4026 21.7472 51.5895C21.4497 51.391 21.1993 51.1448 20.9975 50.8521C19.629 50.4268 18.33 49.8531 17.1031 49.13C16.6063 49.71 16.3691 50.3894 16.3887 51.168C16.1672 50.7954 15.9994 50.3971 15.888 49.973C15.7399 49.2537 15.6442 48.528 15.6022 47.7945C14.9285 46.8908 14.4042 45.906 14.0306 44.8425C13.8445 44.2418 13.8091 43.6321 13.9231 43.0159H13.9205Z" fill="white"/>
<path fill-rule="evenodd" clip-rule="evenodd" d="M74.076 45.6711C74.2529 45.8966 74.3303 46.1596 74.308 46.4613C74.2018 47.0413 74.0091 47.5918 73.7286 48.1126C73.3891 48.7223 73.0142 49.3088 72.6053 49.8695C72.0154 50.5476 71.4413 51.2372 70.8868 51.9385C70.8055 53.078 70.6443 54.2059 70.4031 55.3223C70.5159 55.6188 70.7453 55.7631 71.09 55.7554C71.0323 55.9758 70.934 56.1808 70.7964 56.3703C70.5395 56.6345 70.2825 56.9001 70.0256 57.1643C69.6403 58.5269 69.1094 59.8289 68.4304 61.0728C68.4422 61.1153 68.4645 61.1514 68.4946 61.1824C69.074 61.4324 69.6534 61.6825 70.234 61.9326C70.3468 61.9829 70.4359 62.0602 70.5041 62.162C70.0348 62.5256 69.5157 62.7963 68.9442 62.9742C68.2338 63.1585 67.5115 63.25 66.7762 63.2526C65.3723 64.6783 63.8085 65.8887 62.0848 66.8839C61.1306 67.3776 60.1278 67.7334 59.0739 67.9512C58.8799 67.9848 58.6899 67.9732 58.5037 67.9126C58.4697 67.8713 58.4487 67.8223 58.4421 67.7682C58.6532 67.3003 58.9114 66.8594 59.2142 66.4456C60.5473 64.8394 61.8528 63.2126 63.1322 61.5652C63.1846 61.4982 63.1898 61.4286 63.1466 61.3551C62.6891 60.5791 62.4715 59.7425 62.4964 58.8466C63.216 58.9974 63.9317 59.1637 64.6474 59.3429C64.962 59.4151 65.2307 59.339 65.451 59.1147C66.6307 57.8024 67.6701 56.3935 68.572 54.8853C68.5261 54.5076 68.5392 54.1338 68.6139 53.7612C68.7227 53.8308 68.8249 53.9069 68.9206 53.9933C69.3034 53.3951 69.6088 52.757 69.8408 52.0829C69.7713 51.7567 69.6625 51.4448 69.5118 51.1457C69.1212 50.4032 68.7306 49.662 68.3399 48.9195C69.3886 49.3152 70.4176 49.2663 71.4295 48.7738C72.6026 47.9798 73.4848 46.9472 74.0786 45.6749L74.076 45.6711Z" fill="white"/>
<path fill-rule="evenodd" clip-rule="evenodd" d="M54.7356 44.3404C54.7146 44.6846 54.6307 45.0365 54.4852 45.3949C54.2991 46.0678 54.4774 46.6182 55.0214 47.0462C55.2927 47.2137 55.5784 47.3543 55.8786 47.4677C55.5208 47.5141 55.1642 47.5141 54.8064 47.4677C54.4656 47.371 54.1313 47.2769 53.8063 47.1867C53.531 47.3568 53.2701 47.5437 53.0198 47.7487L53.3055 48.0297C53.1456 48.1109 52.9791 48.1805 52.8048 48.2411C52.4574 48.6059 52.0878 48.9462 51.6972 49.2608C51.7273 49.4013 51.7863 49.5418 51.8755 49.6823C51.861 49.7235 51.8361 49.7584 51.8034 49.788C51.515 49.8499 51.2292 49.9195 50.9461 49.9994C50.4336 50.3101 49.9093 50.6027 49.3745 50.8773C49.3129 51.1557 49.3129 51.4367 49.3745 51.7203C49.1831 51.7319 48.9917 51.7203 48.803 51.6855C48.5356 51.554 48.2734 51.4251 48.0165 51.2988C46.5025 51.6572 44.9781 51.728 43.4431 51.5102C43.4877 51.313 43.5834 51.1364 43.7289 50.983C45.0239 50.0407 46.4291 49.2801 47.9457 48.6987C48.0637 48.2205 48.3022 47.8106 48.6601 47.469C48.7282 47.4355 48.799 47.4239 48.875 47.4342C48.875 47.7371 48.9458 48.0181 49.09 48.2772C50.0338 47.8957 50.9867 47.5321 51.9489 47.188C52.1271 46.965 52.3067 46.7433 52.485 46.5202C52.5649 46.6504 52.6016 46.7909 52.5925 46.9418C52.9726 46.8954 53.3291 46.7781 53.6647 46.5899C53.8692 45.7649 54.2257 45.0159 54.7356 44.3404Z" fill="white"/>
<path fill-rule="evenodd" clip-rule="evenodd" d="M53.8387 3.23131C54.1769 3.31639 54.4509 3.50329 54.6606 3.79333C54.8874 4.27673 55.1141 4.75756 55.3396 5.23451C56.7566 5.6612 58.0896 6.25932 59.3414 7.02631C59.6757 6.65119 59.9379 6.22967 60.1279 5.76174C60.3914 5.95123 60.5461 6.20903 60.5919 6.53516C60.7191 6.99536 60.7899 7.4633 60.8069 7.94026C61.9617 9.04112 62.8321 10.3289 63.4154 11.8049C63.4075 11.8706 63.3839 11.9299 63.3433 11.9802C62.8911 12.1155 62.4388 12.1155 61.9853 11.9802C60.664 11.6334 59.3781 11.1874 58.1263 10.6447C57.644 10.5506 57.1668 10.4565 56.6976 10.3637C57.1052 9.93314 57.1642 9.45232 56.8758 8.92252C56.3397 7.77138 55.6961 6.69373 54.9464 5.68955C54.4967 5.85455 54.0327 5.92416 53.553 5.90096C53.5975 5.51682 53.7994 5.23579 54.1599 5.0579C54.1795 4.83618 54.1323 4.62607 54.017 4.42498C53.9344 4.02923 53.8741 3.63091 53.8387 3.23001V3.23131Z" fill="white"/>
<path fill-rule="evenodd" clip-rule="evenodd" d="M66.4062 24.2367C66.5005 24.2522 66.5844 24.2328 66.6591 24.1761C67.4024 22.8767 67.89 21.4897 68.1207 20.015C68.9045 19.3344 69.3214 18.4836 69.3712 17.4627C68.9203 17.9718 68.3619 18.2077 67.696 18.1691C67.3512 17.5684 67.0432 16.9457 66.7732 16.3025C66.6736 15.6941 66.8728 15.2094 67.3709 14.8497C67.2608 14.7788 67.1415 14.7737 67.0144 14.8356C66.8951 14.8123 66.7889 14.7608 66.6985 14.6821C66.6316 14.3444 66.5857 14.0028 66.5621 13.6573C66.8466 13.3647 67.1218 13.0592 67.3866 12.7408C67.3643 12.7163 67.3407 12.6918 67.3185 12.6673C66.9999 12.8388 66.6644 12.8839 66.3118 12.8027C66.0182 12.2935 65.6682 11.8217 65.2618 11.3886C65.4191 12.1414 65.6983 12.8568 66.102 13.5323C66.2515 14.1382 66.0771 14.6113 65.5777 14.9529C64.7939 14.7672 64.6916 14.9271 65.271 15.4324C65.5528 15.5007 65.7127 15.6709 65.7508 15.9441C65.3811 16.9251 65.1242 17.9345 64.98 18.9722C64.9852 19.1913 65.0233 19.404 65.0967 19.6102C64.7546 19.9828 64.3587 20.0369 63.9104 19.7727C64.0192 20.1478 64.2329 20.4726 64.5488 20.7485C64.8804 20.9586 65.1924 21.1945 65.4847 21.4549C65.6616 22.2206 65.8687 22.9798 66.1047 23.7301C66.1689 23.9222 66.2698 24.091 66.4048 24.2341L66.4062 24.2367Z" fill="white"/>
<path fill-rule="evenodd" clip-rule="evenodd" d="M16.1071 14.4033C16.153 14.3234 16.2238 14.3053 16.3168 14.3479C17.5555 15.2218 18.9122 15.869 20.3842 16.2918C20.7054 16.4606 20.9675 16.6953 21.1707 16.9943C21.5285 16.984 21.8864 16.9737 22.2442 16.9634C22.336 17.0175 22.3425 17.0755 22.2613 17.1387C21.9165 17.2766 21.6124 17.47 21.349 17.72C21.2166 18.0758 21.2834 18.3878 21.5482 18.6546C21.9152 18.6869 22.277 18.7229 22.6362 18.7629C22.5824 18.906 22.4985 19.0323 22.3858 19.1393C22.0345 19.294 21.7186 19.5003 21.442 19.7581C20.5795 21.0884 19.755 22.438 18.9673 23.8057C19.038 22.5167 18.4705 21.6053 17.2632 21.0729C17.178 20.9388 17.0928 20.8061 17.0089 20.6733C15.4229 22.2189 14.757 24.0945 15.0126 26.2988C14.542 24.5199 14.8343 22.8686 15.8908 21.3436C16.2788 20.8937 16.6524 20.4348 17.0115 19.9669C16.8031 19.896 16.6943 19.7529 16.6825 19.5389C16.811 18.7951 16.8936 18.0462 16.929 17.2921C16.9919 16.226 16.7179 15.2631 16.1071 14.4046V14.4033Z" fill="white"/>
<path fill-rule="evenodd" clip-rule="evenodd" d="M52.4359 53.1044C52.4752 53.1083 52.4988 53.1315 52.508 53.1753C51.3335 54.5018 49.9283 55.5214 48.2911 56.233C47.0472 58.2452 45.4402 59.9197 43.4674 61.2578C43.4176 61.3158 43.4307 61.3635 43.5028 61.3983C43.82 61.4743 44.1294 61.5684 44.4322 61.6793C44.1149 61.9294 43.7571 62.1047 43.3599 62.2065C42.7924 62.3651 42.2209 62.5056 41.6454 62.628C40.4067 63.4311 39.0841 64.0744 37.6789 64.5603C37.6567 65.1314 37.7288 65.6935 37.8939 66.2465C38.181 67.3757 38.527 68.4894 38.9308 69.5851C38.9216 69.6599 38.8862 69.7179 38.8233 69.7604C38.0119 69.4072 37.2962 68.9148 36.6788 68.2845C35.8176 67.3447 35.0678 66.3251 34.4282 65.2268C34.1437 65.192 33.858 65.1804 33.5709 65.192C33.5971 66.0879 33.6574 66.9774 33.7492 67.8629C32.926 67.1797 32.4371 66.3135 32.2837 65.2629C30.3424 64.9587 28.8062 64.0215 27.675 62.4515C27.4666 62.1949 27.4548 61.9371 27.6396 61.678C27.928 61.522 28.2386 61.4395 28.5689 61.4318C30.7435 61.4421 32.9116 61.3248 35.0718 61.0799C36.9803 60.8272 38.8141 60.3245 40.5745 59.5691C41.125 58.9581 41.7201 58.3961 42.3611 57.883C42.4371 58.2749 42.5813 58.6371 42.7897 58.9723C43.9655 59.0006 44.9906 58.6255 45.8622 57.8482C46.5006 57.232 47.0734 56.5643 47.5768 55.845C47.405 55.5898 47.2622 55.3203 47.1481 55.0367C47.9136 54.9955 48.6516 54.8305 49.3634 54.5443C50.374 54.0236 51.399 53.5427 52.4359 53.1031V53.1044Z" fill="white"/>
<path fill-rule="evenodd" clip-rule="evenodd" d="M39.8467 12.1279C40.3999 12.7092 40.7918 13.3886 41.0264 14.1659C41.1746 14.6983 41.282 15.2358 41.3476 15.7824C41.6582 15.8571 41.9676 15.9384 42.2769 16.0286C42.6636 16.0827 43.0438 16.0595 43.42 15.9577C43.5301 15.8223 43.6126 15.6702 43.6703 15.5013C43.9954 15.7978 44.3401 16.0672 44.7071 16.3096C45.7256 16.6705 46.7494 17.0108 47.7797 17.3292C47.8517 17.3176 47.9225 17.306 47.9946 17.2944C48.3931 16.949 48.7392 16.5636 49.0315 16.1343C49.3356 16.8278 49.5269 17.5535 49.603 18.3128C51.3581 19.6405 52.9534 21.1397 54.3913 22.8103C54.4581 23.0101 54.4228 23.1868 54.2838 23.3376C53.5498 23.5593 52.8105 23.5593 52.0686 23.3376C51.2231 23.045 50.4012 22.7046 49.603 22.3179C48.5819 22.724 47.5214 22.9586 46.423 23.0205C46.153 23.0269 45.8908 22.9921 45.6365 22.9148C46.4269 22.4185 47.178 21.868 47.8871 21.2635C47.9369 21.2055 47.9238 21.1578 47.8517 21.123C46.8254 20.5235 45.8489 19.8558 44.9221 19.1198C44.403 18.9792 43.8787 18.8503 43.3505 18.733C43.3269 18.7098 43.3033 18.6866 43.2784 18.6621C43.3741 18.4984 43.4685 18.3347 43.5641 18.1697C42.7567 17.5291 41.8994 16.9554 40.991 16.4475C40.2872 16.6087 39.5728 16.7492 38.8466 16.869C38.5281 16.9296 38.2187 16.9064 37.9172 16.7982C38.7719 16.454 39.4509 15.9035 39.9542 15.1469C40.1036 14.1349 40.0682 13.1282 39.8467 12.1253V12.1279Z" fill="#AEDFE6"/>
<path fill-rule="evenodd" clip-rule="evenodd" d="M73.4371 30.9639C73.3664 30.9574 73.3113 30.9239 73.2733 30.8633C73.2379 30.6351 73.1815 30.4108 73.1055 30.1917C72.6114 29.3951 72.2968 28.5314 72.1631 27.5981C71.7475 27.3467 71.3661 27.0528 71.0161 26.7177C71.7043 26.8852 72.1709 26.6455 72.4174 26.0009C72.5982 25.2713 72.7333 24.534 72.8211 23.7876C72.6179 23.6059 72.4226 23.4164 72.2352 23.2204C72.4842 23.272 72.6454 23.1818 72.7201 22.9484C72.6821 22.6932 72.6441 22.4367 72.6061 22.1789C72.3479 21.9584 72.1132 21.7148 71.9048 21.448C72.1395 21.5666 72.3925 21.6349 72.6664 21.6529C72.9508 21.408 73.1947 21.1296 73.3991 20.8176C73.3585 21.2972 73.2038 21.7457 72.9364 22.1634C72.9731 22.4405 73.0334 22.7125 73.1147 22.9807C73.2287 23.1392 73.3769 23.1895 73.5591 23.1302C73.5722 23.1921 73.5853 23.254 73.5984 23.3158C73.4725 23.4886 73.4018 23.678 73.386 23.8856C73.7439 24.6925 74.0926 25.5034 74.4307 26.3193C74.7689 26.3735 75.0547 26.2691 75.2867 26.0061C75.3077 26.5939 75.0874 27.0786 74.6221 27.4602C74.4858 28.0789 74.3482 28.6977 74.2118 29.3151C73.9969 29.7921 73.8343 30.2871 73.7229 30.8001C73.6285 30.8646 73.5328 30.9187 73.4385 30.9639H73.4371Z" fill="#AEDFE6"/>
<path fill-rule="evenodd" clip-rule="evenodd" d="M33.9484 51.7401C34.0323 51.7052 34.1188 51.6924 34.2092 51.6988C34.2289 52.2106 34.3403 52.7043 34.5435 53.1825C34.6352 53.3024 34.7571 53.3681 34.9092 53.381C35.4899 53.3604 36.0705 53.3191 36.6486 53.256C36.9946 52.9389 37.3302 52.6076 37.6553 52.2647C37.7274 52.2106 37.8087 52.177 37.8978 52.1616C37.9542 52.3498 38.0289 52.5303 38.1246 52.7017C38.312 52.6372 38.5047 52.5934 38.7013 52.5715C38.9254 52.6411 39.1365 52.7378 39.3331 52.8628C40.2336 52.7275 41.1381 52.6269 42.0464 52.5625C42.4607 52.5857 42.8657 52.6488 43.2642 52.7545C43.3599 52.7726 43.373 52.8138 43.3009 52.8783C42.6573 53.1335 41.9979 53.332 41.3242 53.4738C41.1486 53.519 41.1001 53.6221 41.1761 53.7845C40.8287 53.8696 40.4787 53.8799 40.1261 53.8141C39.0015 54.4548 37.8362 55.0207 36.6289 55.5131C35.8516 55.74 35.0678 55.9411 34.2774 56.1139C34.3626 56.5895 34.457 57.0665 34.5618 57.5447C34.7833 58.0964 35.0521 58.6249 35.3693 59.129C35.4545 59.3352 35.4007 59.3842 35.208 59.2759C34.6575 58.9227 34.1764 58.4883 33.7662 57.9727C33.2825 57.3204 32.8539 56.6359 32.479 55.9192C31.1813 55.6846 29.9898 55.1947 28.9044 54.4497C28.62 54.246 28.3775 54.0024 28.1769 53.7162C28.1507 53.6208 28.1717 53.537 28.2399 53.4635C28.9451 53.2521 29.6699 53.1593 30.4118 53.1825C31.1013 53.1928 31.7895 53.2096 32.4763 53.2341C32.9902 52.7584 33.4817 52.2595 33.951 51.7401H33.9484Z" fill="#AEDFE6"/>
<path fill-rule="evenodd" clip-rule="evenodd" d="M31.7459 0C32.4171 0.248789 32.9532 0.670317 33.3543 1.26458C33.5968 1.57395 33.8118 1.90137 33.9979 2.24813C34.0621 2.28938 34.1329 2.31258 34.2129 2.31902C34.9456 2.17722 35.6718 2.01351 36.3927 1.82659C36.4163 1.75569 36.4399 1.6861 36.4648 1.6152C36.4189 1.22333 36.335 0.849489 36.2144 0.491129C36.8921 0.734762 37.499 1.09828 38.0364 1.58039C38.7862 1.59844 39.5373 1.58684 40.2871 1.54559C41.0408 1.55333 41.7906 1.60102 42.5377 1.68609C42.6465 1.68352 42.7304 1.63712 42.7881 1.54559C43.0463 0.952625 43.4631 0.506595 44.0386 0.21011C44.3964 0.34804 44.6219 0.605861 44.7176 0.983556C44.8473 1.35223 44.9548 1.72734 45.0387 2.10761C46.9407 2.84367 48.7509 3.74601 50.4693 4.81336C50.6188 4.91906 50.7131 5.05958 50.7551 5.23489C50.4588 5.61903 50.0774 5.90004 49.6121 6.07793C48.8269 6.34992 48.0168 6.47883 47.1819 6.46465C46.6077 6.43114 46.0362 6.39633 45.4673 6.35895C44.6874 7.26774 43.7227 7.88908 42.5731 8.22166C42.4892 8.21005 42.4066 8.19844 42.3227 8.18684C42.7252 7.45336 43.0594 6.69152 43.3229 5.90262C42.1471 5.60742 40.9805 5.28 39.8218 4.91906C39.4796 5.05183 39.1467 5.20395 38.8216 5.37539C38.5857 5.4334 38.3484 5.46821 38.1072 5.4811C38.0784 5.1511 38.0312 4.82367 37.9644 4.49754C36.6169 4.11856 35.2825 3.69703 33.9625 3.23297C33.1616 3.61711 32.3279 3.90972 31.4615 4.11082C31.1758 4.15722 30.89 4.15722 30.6042 4.11082C31.8652 2.97773 32.2454 1.60746 31.7459 0Z" fill="#AEDFE6"/>
<path fill-rule="evenodd" clip-rule="evenodd" d="M30.3697 8.22294C31.1601 8.2165 31.8916 8.44595 32.5627 8.90872C33.6297 8.87649 34.6927 8.79012 35.7532 8.64704C36.6838 8.60321 37.6145 8.60321 38.5452 8.64704C38.6736 8.69989 38.8073 8.73341 38.9436 8.74501C38.9384 9.04021 38.8375 9.3019 38.6448 9.53006C37.4362 10.7353 36.0193 11.6286 34.3912 12.21C34.0937 12.8816 33.7621 13.5352 33.3937 14.1707C33.1971 14.4298 32.9756 14.6695 32.7292 14.89C32.6964 14.1501 32.6846 13.4088 32.6964 12.6676C31.5717 12.8649 30.4418 13.0273 29.3067 13.1575C28.9934 13.4475 28.65 13.6989 28.2764 13.909C28.2004 13.7195 28.1663 13.5236 28.1768 13.3212C27.777 13.3405 27.3785 13.374 26.98 13.4192C26.8424 13.6796 26.6654 13.909 26.4478 14.1049C26.4033 13.918 26.3141 13.7543 26.1817 13.6151C25.913 13.5816 25.6469 13.6035 25.3835 13.6808C25.2957 14.1991 25.1737 14.7108 25.0178 15.2174C24.5682 16.0115 24.3466 15.9238 24.3532 14.9557C24.3021 14.7791 24.2247 14.6167 24.1212 14.4659C23.1132 14.0495 22.0724 13.744 20.9976 13.5506C21.3869 13.3212 21.8076 13.1691 22.2599 13.093C23.1407 12.9242 24.0268 12.8906 24.9181 12.995C25.4307 12.9577 25.8409 12.7398 26.1477 12.3415C26.1804 12.0592 26.1922 11.7756 26.1804 11.492C26.4898 11.5681 26.8004 11.6235 27.1111 11.6557C28.2187 11.0679 29.3263 10.4788 30.434 9.891C30.5952 9.72858 30.6607 9.53263 30.6332 9.30317C30.6175 9.05052 30.5847 8.79916 30.5336 8.55166C30.5087 8.42146 30.4536 8.31318 30.3671 8.22424L30.3697 8.22294Z" fill="#AEDFE6"/>
<path fill-rule="evenodd" clip-rule="evenodd" d="M10.9215 12.7653C11.1129 12.7421 11.2781 12.7911 11.4157 12.9123C11.7447 13.9925 11.7985 15.0857 11.5769 16.1917C11.4118 16.9677 11.2204 17.736 11.0028 18.4991C11.2846 19.6593 11.3371 20.8284 11.1562 22.0079C10.8193 21.5529 10.4444 21.1262 10.0315 20.7279C9.38528 21.6792 8.75479 22.6421 8.14003 23.6167C8.15314 24.0949 8.17149 24.5757 8.19377 25.0591C8.16625 25.2332 8.13872 25.4072 8.10988 25.5799C7.87787 25.3737 7.62751 25.1906 7.36142 25.0321C6.8371 25.6792 6.3272 26.3405 5.83172 27.0147C5.78978 27.6244 5.74783 28.2341 5.70589 28.8451C5.68885 28.9392 5.65214 29.0243 5.59709 29.1042C5.41096 28.8245 5.20909 28.5564 4.99019 28.2998C4.40165 29.188 3.79606 30.0646 3.17343 30.9282C3.12362 31.101 3.11838 31.2763 3.15639 31.4516C3.35956 32.0252 3.56405 32.6002 3.76722 33.1738C3.80261 33.3311 3.81965 33.4845 3.81834 33.634C3.49195 33.0539 3.00434 32.6891 2.3555 32.5409C2.05795 32.5744 1.76695 32.6414 1.48251 32.7433C0.994893 32.965 0.500723 33.1467 0 33.286C0.56102 32.4932 1.27016 31.8602 2.12611 31.3872C2.32666 31.2454 2.47609 31.0636 2.57702 30.8445C2.9755 29.9099 3.39496 28.9843 3.83145 28.0665C3.412 27.9969 2.99123 27.9737 2.56785 27.9943C2.99779 27.2596 3.62434 26.7659 4.44752 26.5132C4.58122 25.8932 4.72279 25.2757 4.87353 24.6595C4.85256 24.6041 4.8329 24.5487 4.81192 24.4932C4.70575 24.5435 4.59433 24.5616 4.47767 24.5487C4.56287 24.1052 4.78571 23.7404 5.14618 23.4555C5.30609 21.8287 5.72293 20.269 6.39536 18.7788C5.53417 18.5158 4.65201 18.3354 3.74887 18.2374C4.38329 17.5735 5.15273 17.1275 6.05587 16.9007C6.43469 16.8182 6.81482 16.7421 7.19495 16.6738C7.89622 15.6876 8.64862 14.7389 9.45082 13.8288C9.89518 13.3983 10.3828 13.0425 10.9176 12.7615L10.9215 12.7653Z" fill="#AEDFE6"/>
<path fill-rule="evenodd" clip-rule="evenodd" d="M67.5187 25.9423C67.5515 25.8508 67.5986 25.8469 67.6589 25.9307C68.7141 27.1528 69.4364 28.5488 69.8257 30.1228C70.3959 31.7238 70.527 33.357 70.2176 35.0199C70.3762 35.2468 70.5689 35.4389 70.797 35.5961C70.8953 35.8746 70.8599 36.1324 70.6882 36.3696C71.5651 36.8285 72.3791 37.3854 73.1289 38.0376C73.7122 38.6486 74.2942 39.2584 74.8775 39.8694C74.2627 39.9777 73.6663 40.1439 73.0856 40.3682C71.7525 40.9264 70.4404 41.5233 69.1467 42.1588C68.895 42.5042 68.642 42.8497 68.3904 43.1952C68.254 43.3202 68.0981 43.4143 67.9211 43.4775C67.8936 43.4336 67.866 43.3898 67.8385 43.346C67.929 43.132 67.9919 42.918 68.0299 42.7053C67.5882 42.2825 67.0691 42.1304 66.4714 42.2464C66.3114 42.4617 66.1777 42.6924 66.0729 42.9399C65.9379 42.7504 65.8605 42.5377 65.8409 42.3006C65.9143 41.7321 65.8999 41.1662 65.7989 40.6029C65.3218 39.1656 64.7739 37.7527 64.1578 36.367C64.0058 35.9236 63.9075 35.4685 63.8616 35.0032C64.631 35.1746 65.4004 35.3525 66.1673 35.5368C66.921 35.7083 67.676 35.725 68.431 35.5884C68.5018 35.4415 68.6106 35.328 68.7548 35.2481C69.0759 35.1965 69.3735 35.0908 69.6448 34.9297C69.8965 33.5865 69.8611 32.2459 69.5412 30.9117C69.186 29.1199 68.5123 27.4621 67.5187 25.9423Z" fill="#AEDFE6"/>
<path fill-rule="evenodd" clip-rule="evenodd" d="M39.2937 73.5123C37.4363 72.6873 35.5658 71.8739 33.6782 71.0709C30.3672 69.5304 27.351 67.5479 24.6324 65.1205C23.8263 63.7168 23.3544 62.2124 23.2194 60.6075C23.1499 59.3623 23.517 58.2911 24.3179 57.3926C23.8263 57.2701 23.3256 57.1992 22.8131 57.1799C21.3266 57.323 19.8402 57.4429 18.3511 57.5395C18.0509 57.5228 17.7547 57.4867 17.4624 57.4287C16.6943 56.953 15.8645 56.6694 14.9745 56.5753C14.8579 56.5611 14.774 56.6063 14.7215 56.7107C15.1017 56.9466 15.4621 57.2108 15.8042 57.5009C15.8069 57.8876 15.6692 58.2176 15.3927 58.4896C15.006 58.2872 14.6429 58.05 14.3034 57.7767C14.1946 57.7252 14.1173 57.7561 14.0701 57.867C14.0858 58.0371 14.1474 58.1892 14.2523 58.3246C14.7517 58.9369 15.2524 59.5492 15.7518 60.1628C16.0546 60.5405 16.2722 60.9607 16.4059 61.4196C16.5593 62.1879 16.6379 62.9626 16.6405 63.7438C16.5684 64.8756 16.4754 65.9932 16.364 67.0954C17.3248 66.7293 18.2934 66.3684 19.2713 66.0139C20.219 65.7805 21.1746 65.7393 22.138 65.8914C22.2914 65.9133 22.4015 65.9971 22.4683 66.1415C22.5247 66.8556 22.6033 67.5672 22.7043 68.2775C22.7436 68.3123 22.7829 68.3471 22.8236 68.3832C23.0818 67.7386 23.2233 67.0683 23.2496 66.3696C23.2771 66.3091 23.3203 66.2923 23.3833 66.3181C23.5877 66.4779 23.8198 66.5785 24.078 66.6171C24.0714 66.3787 24.04 66.1389 23.9836 65.8991C24.0334 65.7419 24.1357 65.6774 24.2903 65.7058C28.2922 69.2791 32.8865 71.825 38.0746 73.3409C38.4771 73.4402 38.8834 73.4969 39.2937 73.5123Z" fill="#AEDFE6"/>
<path d="M98.1742 27.383C96.87 28.6656 95.2734 29.3075 93.3846 29.3075C91.4957 29.3075 89.8992 28.6656 88.5949 27.383C87.2907 26.0759 86.6379 24.5058 86.6379 22.6727C86.6379 20.8281 87.2907 19.2644 88.5949 17.9805C89.8992 16.685 91.4957 16.0379 93.3846 16.0379C95.2734 16.0379 96.87 16.685 98.1742 17.9805C99.4785 19.2632 100.131 20.8281 100.131 22.6727C100.131 24.5058 99.4785 26.0759 98.1742 27.383ZM89.5086 26.5038C90.552 27.5428 91.8444 28.061 93.3846 28.061C94.9248 28.061 96.2172 27.5415 97.2606 26.5038C98.304 25.4648 98.8257 24.1887 98.8257 22.6727C98.8257 21.1697 98.304 19.8987 97.2606 18.861C96.2172 17.8104 94.9248 17.2845 93.3846 17.2845C91.8444 17.2845 90.552 17.8104 89.5086 18.861C88.4652 19.9 87.9435 21.1697 87.9435 22.6727C87.9435 24.1874 88.4652 25.4648 89.5086 26.5038Z" fill="#AEDFE6"/>
<path d="M103.858 16.2583H108.516C109.684 16.2583 110.66 16.6437 111.442 17.4133C112.225 18.1828 112.617 19.1419 112.617 20.2905C112.617 21.439 112.225 22.3981 111.442 23.1676C110.66 23.9372 109.684 24.3226 108.516 24.3226H105.162V29.0883H103.858V16.2596V16.2583ZM105.162 23.1122H108.516C109.324 23.1122 109.988 22.8492 110.51 22.3246C111.045 21.7986 111.312 21.1219 111.312 20.2905C111.312 19.4719 111.045 18.8003 110.51 18.2743C109.988 17.7368 109.324 17.4687 108.516 17.4687H105.162V23.1122Z" fill="#AEDFE6"/>
<path d="M117.65 23.2231V27.8779H123.987V29.087H116.346V16.2583H123.893V17.4674H117.65V22.0126H123.428V23.2218H117.65V23.2231Z" fill="#AEDFE6"/>
<path d="M136.101 21.885V16.2583H137.405V29.087H136.101V23.0942H129.018V29.087H127.714V16.2583H129.018V21.885H136.101Z" fill="#AEDFE6"/>
<path d="M143.182 21.39H146.722C147.791 21.39 148.709 21.769 149.48 22.5269C150.251 23.2849 150.636 24.1885 150.636 25.2391C150.636 26.3026 150.251 27.2127 149.48 27.9706C148.723 28.7157 147.802 29.0883 146.722 29.0883H141.876V16.2595H149.517V17.4686H143.18L143.182 21.39ZM143.182 27.8778H146.722C147.443 27.8778 148.058 27.6213 148.568 27.1082C149.076 26.5823 149.332 25.9597 149.332 25.2391C149.332 24.5301 149.078 23.914 148.568 23.388C148.071 22.8621 147.456 22.5991 146.722 22.5991H143.182V27.8778Z" fill="#AEDFE6"/>
<path d="M157.886 24.1396L161.315 16.2583H162.657L158.315 26.2833C157.88 27.3094 157.326 28.0494 156.655 28.5005C155.984 28.953 155.152 29.1476 154.158 29.0871V27.914C154.854 27.9875 155.428 27.887 155.882 27.6111C156.335 27.3365 156.712 26.857 157.009 26.1725L157.27 25.5679L152.779 16.257H154.122L157.886 24.1396Z" fill="#AEDFE6"/>
<path d="M165.826 16.2583H170.484C171.652 16.2583 172.628 16.6437 173.411 17.4133C174.194 18.1828 174.586 19.1419 174.586 20.2905C174.586 21.439 174.194 22.3981 173.411 23.1676C172.628 23.9372 171.652 24.3226 170.484 24.3226H167.13V29.0883H165.826V16.2596V16.2583ZM167.13 23.1122H170.484C171.292 23.1122 171.958 22.8492 172.48 22.3246C173.013 21.7986 173.28 21.1219 173.28 20.2905C173.28 19.4719 173.013 18.8003 172.48 18.2743C171.958 17.7368 171.293 17.4687 170.484 17.4687H167.13V23.1122Z" fill="#AEDFE6"/>
<path d="M178.312 16.2583H185.58V17.4674H179.616V29.087H178.312V16.2583Z" fill="#AEDFE6"/>
<path d="M194.097 29.3075C192.11 29.3075 190.475 28.6656 189.196 27.383C187.903 26.0875 187.257 24.5174 187.257 22.6727C187.257 20.8281 187.903 19.258 189.196 17.9625C190.475 16.6799 192.11 16.0379 194.097 16.0379C195.29 16.0379 196.389 16.3215 197.396 16.89C198.403 17.4585 199.185 18.2255 199.745 19.1897L198.589 19.8497C198.18 19.0685 197.57 18.4446 196.763 17.9805C195.956 17.5165 195.067 17.2845 194.097 17.2845C192.457 17.2845 191.127 17.8039 190.109 18.8429C189.078 19.8935 188.563 21.171 188.563 22.674C188.563 24.1771 189.078 25.4533 190.109 26.5051C191.128 27.5441 192.458 28.0623 194.097 28.0623C195.065 28.0623 195.954 27.8303 196.763 27.3662C197.572 26.9022 198.18 26.2795 198.589 25.4971L199.745 26.139C199.21 27.1045 198.434 27.8741 197.416 28.4477C196.396 29.0214 195.291 29.3088 194.098 29.3088L194.097 29.3075Z" fill="#AEDFE6"/>
<path d="M206.062 22.4895L212.51 29.0883H210.795L204.682 22.875V29.0883H203.377V16.2595H204.682V22.1247L210.609 16.2595H212.324L206.061 22.4908L206.062 22.4895Z" fill="#AEDFE6"/>
<path d="M225.37 29.0883H224.064V18.6417L216.796 29.0883H215.678V16.2595H216.982V26.7061L224.25 16.2595H225.368L225.37 29.0883Z" fill="#AEDFE6"/>
<path d="M239.535 29.0884H238.229V18.6418L230.961 29.0884H229.843V16.2596H231.147V26.7062L238.415 16.2596H239.533L239.535 29.0884ZM237.112 14.7926H232.266V13.7305H237.112V14.7926Z" fill="#AEDFE6"/>
<path d="M105.143 54.2764C103.05 56.3337 100.488 57.3637 97.4586 57.3637C94.4294 57.3637 91.8694 56.335 89.7761 54.2764C87.684 52.1791 86.6367 49.6616 86.6367 46.7212C86.6367 43.7615 87.6827 41.253 89.7761 39.1944C91.8681 37.1164 94.4294 36.0787 97.4586 36.0787C100.488 36.0787 103.049 37.1164 105.143 39.1944C107.235 41.2517 108.282 43.7615 108.282 46.7212C108.282 49.6616 107.236 52.1791 105.143 54.2764ZM91.2415 52.8649C92.9154 54.5316 94.9878 55.3631 97.4586 55.3631C99.9295 55.3631 102.003 54.5303 103.677 52.8649C105.351 51.1994 106.189 49.1511 106.189 46.7212C106.189 44.3107 105.351 42.2726 103.677 40.6059C102.003 38.9198 99.9295 38.0767 97.4586 38.0767C94.9878 38.0767 92.9154 38.9198 91.2415 40.6059C89.5677 42.2726 88.7301 44.3107 88.7301 46.7212C88.7301 49.1511 89.5677 51.1994 91.2415 52.8649Z" fill="white"/>
<path d="M118.565 46.4276L128.907 57.0108H126.157L116.353 47.0437V57.0108H114.26V36.4322H116.353V45.8398L125.858 36.4322H128.608L118.565 46.4276Z" fill="white"/>
<path d="M136.081 47.6045V55.0707H146.245V57.0121H133.989V36.4335H146.096V38.3735H136.081V45.6644H145.348V47.6058L136.081 47.6045Z" fill="white"/>
<path d="M168.666 57.0108H166.454L164.511 51.9551H154.587L152.645 57.0108H150.433L158.474 36.4322H160.626L168.668 57.0108H168.666ZM159.549 38.9897L155.333 50.0137H163.763L159.549 38.9897Z" fill="white"/>
<path d="M187.199 45.4582V36.4335H189.291V57.0121H187.199V47.3995H175.839V57.0121H173.747V36.4335H175.839V45.4582H187.199Z" fill="white"/>
<path d="M212.608 57.0108H210.397L208.454 51.9551H198.529L196.586 57.0108H194.375L202.415 36.4322H204.569L212.608 57.0108ZM203.49 38.9897L199.275 50.0137H207.706L203.49 38.9897Z" fill="white"/>
<path d="M217.69 36.4335H225.163C227.036 36.4335 228.601 37.0496 229.856 38.2858C231.111 39.5208 231.739 41.0586 231.739 42.9007C231.739 44.7428 231.111 46.2819 229.856 47.5155C228.6 48.7492 227.036 49.3679 225.163 49.3679H219.782V57.0108H217.69V36.4322V36.4335ZM219.782 47.4279H225.163C226.458 47.4279 227.524 47.0064 228.361 46.1633C229.219 45.3216 229.647 44.2336 229.647 42.9007C229.647 41.5884 229.219 40.5095 228.361 39.6664C227.524 38.804 226.458 38.3722 225.163 38.3722H219.782V47.4279Z" fill="white"/>
<path d="M253.263 57.0108H251.171V40.2542L239.513 57.0108H237.72V36.4322H239.812V53.1887L251.47 36.4322H253.263V57.0108Z" fill="white"/>
<path d="M267.133 49.074L272.635 36.4335H274.787L267.821 52.5145C267.124 54.1607 266.237 55.3466 265.162 56.0724C264.086 56.7968 262.75 57.11 261.156 57.0134V55.1313C262.273 55.2499 263.194 55.0875 263.922 54.6466C264.649 54.2058 265.253 53.4362 265.731 52.3379L266.15 51.3686L258.945 36.4348H261.097L267.136 49.0753L267.133 49.074Z" fill="white"/>
<path d="M296.399 36.4335H299V57.0121H296.908V39.5491L289.584 51.6019H289.285L281.962 39.5491V57.0121H279.87V36.4335H282.47L289.436 47.8984L296.402 36.4335H296.399Z" fill="white"/>
</svg>
