<svg width="154" height="136" viewBox="0 0 154 136" fill="none" xmlns="http://www.w3.org/2000/svg">
<path d="M13.4188 133.238C11.9011 134.756 10.0434 135.514 7.84688 135.514C5.65039 135.514 3.7927 134.756 2.27607 133.238C0.758312 131.692 0 129.836 0 127.668C0 125.486 0.758312 123.635 2.27607 122.117C3.79384 120.586 5.65039 119.82 7.84688 119.82C10.0434 119.82 11.9011 120.585 13.4188 122.117C14.9366 123.635 15.6949 125.485 15.6949 127.668C15.6949 129.836 14.9366 131.692 13.4188 133.238ZM3.33795 132.198C4.55102 133.427 6.05399 134.041 7.84688 134.041C9.63977 134.041 11.1428 133.427 12.3558 132.198C13.57 130.97 14.1772 129.459 14.1772 127.668C14.1772 125.891 13.57 124.388 12.3558 123.159C11.1428 121.916 9.63864 121.294 7.84688 121.294C6.05513 121.294 4.55216 121.916 3.33795 123.159C2.12374 124.388 1.51663 125.891 1.51663 127.668C1.51663 129.459 2.12374 130.97 3.33795 132.198Z" fill="white"/>
<path d="M23.1522 127.453L30.6523 135.256H28.6582L21.548 127.907V135.256H20.0303V120.082H21.548V127.019L28.4422 120.082H30.4363L23.1534 127.453H23.1522Z" fill="white"/>
<path d="M35.8559 128.319V133.825H43.2264V135.256H34.3381V120.082H43.1173V121.512H35.8548V126.889H42.575V128.32H35.8548L35.8559 128.319Z" fill="white"/>
<path d="M59.4834 135.256H57.8792L56.4706 131.527H49.274L47.8654 135.256H46.2612L52.0924 120.082H53.6534L59.4857 135.256H59.4834ZM52.8712 121.967L49.814 130.096H55.9272L52.8712 121.967Z" fill="white"/>
<path d="M72.9245 126.736V120.081H74.4422V135.255H72.9245V128.167H64.6865V135.255H63.1687V120.081H64.6865V126.736H72.9245Z" fill="white"/>
<path d="M91.3498 135.256H89.7456L88.337 131.527H81.1392L79.7306 135.256H78.1265L83.9576 120.082H85.5186L91.3498 135.256ZM84.7375 121.967L81.6804 130.096H87.7947L84.7375 121.967Z" fill="white"/>
<path d="M95.0361 120.08H100.456C101.814 120.08 102.949 120.535 103.858 121.445C104.769 122.356 105.224 123.491 105.224 124.848C105.224 126.206 104.768 127.341 103.858 128.251C102.949 129.16 101.813 129.616 100.456 129.616H96.5539V135.253H95.0361V120.08ZM96.5539 128.187H100.456C101.395 128.187 102.168 127.877 102.775 127.255C103.397 126.634 103.707 125.833 103.707 124.849C103.707 123.882 103.397 123.086 102.775 122.465C102.168 121.83 101.395 121.511 100.456 121.511H96.5539V128.187Z" fill="white"/>
<path d="M120.832 135.256H119.314V122.899L110.86 135.256H109.56V120.082H111.077V132.439L119.531 120.082H120.832V135.256Z" fill="white"/>
<path d="M130.891 129.404L134.881 120.082H136.442L131.39 131.94C130.884 133.154 130.241 134.028 129.461 134.563C128.68 135.097 127.712 135.328 126.555 135.256V133.868C127.365 133.956 128.033 133.836 128.561 133.511C129.088 133.186 129.526 132.619 129.873 131.809L130.176 131.094L124.951 120.081H126.512L130.891 129.404Z" fill="white"/>
<path d="M152.114 120.081H154V135.255H152.482V122.377L147.171 131.266H146.954L141.642 122.377V135.255H140.124V120.081H142.01L147.062 128.535L152.113 120.081H152.114Z" fill="white"/>
<path d="M25.595 112.431C24.5615 113.465 23.2973 113.981 21.8023 113.981C20.3072 113.981 19.043 113.465 18.0096 112.431C16.9761 111.379 16.46 110.114 16.46 108.639C16.46 107.153 16.9761 105.893 18.0096 104.861C19.043 103.818 20.3072 103.296 21.8023 103.296C23.2973 103.296 24.5627 103.818 25.595 104.861C26.6284 105.894 27.1446 107.154 27.1446 108.639C27.1446 110.114 26.6284 111.379 25.595 112.431ZM18.7315 111.723C19.558 112.56 20.5812 112.977 21.8011 112.977C23.021 112.977 24.0442 112.559 24.8708 111.723C25.6973 110.886 26.11 109.859 26.11 108.639C26.11 107.428 25.6973 106.406 24.8708 105.569C24.0442 104.723 23.021 104.3 21.8011 104.3C20.5812 104.3 19.558 104.723 18.7315 105.569C17.905 106.406 17.4923 107.429 17.4923 108.639C17.4923 109.859 17.905 110.888 18.7315 111.723Z" fill="#AEDFE6"/>
<path d="M30.0961 103.473H33.7854C34.7097 103.473 35.4828 103.783 36.1024 104.403C36.722 105.022 37.0323 105.795 37.0323 106.72C37.0323 107.644 36.722 108.417 36.1024 109.037C35.4828 109.656 34.7097 109.967 33.7854 109.967H31.1284V113.804H30.095V103.473H30.0961ZM31.1296 108.992H33.7865C34.4266 108.992 34.9529 108.781 35.3656 108.358C35.7886 107.935 36 107.389 36 106.72C36 106.06 35.7886 105.519 35.3656 105.096C34.9529 104.663 34.4266 104.447 33.7865 104.447H31.1296V108.992Z" fill="#AEDFE6"/>
<path d="M41.0186 109.081V112.829H46.0369V113.804H39.9863V103.473H45.9641V104.447H41.0198V108.107H45.5947V109.081H41.0198H41.0186Z" fill="#AEDFE6"/>
<path d="M55.6298 108.003V103.473H56.6632V113.804H55.6298V108.978H50.0215V113.804H48.988V103.473H50.0215V108.003H55.6298Z" fill="#AEDFE6"/>
<path d="M61.2381 107.604H64.0429C64.8887 107.604 65.6163 107.909 66.2268 108.52C66.8374 109.13 67.1421 109.858 67.1421 110.704C67.1421 111.56 66.8374 112.293 66.2268 112.902C65.6266 113.503 64.8989 113.803 64.0429 113.803H60.2058V103.472H66.2564V104.446H61.2381V107.604ZM61.2381 112.83H64.0429C64.6136 112.83 65.1002 112.623 65.5038 112.21C65.9074 111.787 66.1086 111.286 66.1086 110.705C66.1086 110.134 65.9074 109.637 65.5038 109.214C65.1104 108.791 64.6227 108.58 64.0429 108.58H61.2381V112.83Z" fill="#AEDFE6"/>
<path d="M72.8822 109.819L75.5982 103.473H76.6612L73.2221 111.546C72.8776 112.372 72.4399 112.968 71.9078 113.332C71.3769 113.696 70.7175 113.854 69.9308 113.804V112.859C70.4822 112.918 70.9369 112.837 71.2962 112.616C71.6555 112.394 71.9533 112.009 72.1887 111.457L72.3956 110.971L68.8394 103.473H69.9024L72.8822 109.819Z" fill="#AEDFE6"/>
<path d="M79.1694 103.473H82.8586C83.7829 103.473 84.556 103.783 85.1756 104.403C85.7952 105.022 86.1056 105.795 86.1056 106.72C86.1056 107.644 85.7952 108.417 85.1756 109.037C84.5549 109.656 83.7829 109.967 82.8586 109.967H80.2017V113.804H79.1682V103.473H79.1694ZM80.2028 108.992H82.8597C83.4998 108.992 84.0262 108.781 84.4389 108.358C84.8618 107.935 85.0733 107.389 85.0733 106.72C85.0733 106.06 84.8618 105.519 84.4389 105.096C84.0262 104.663 83.4987 104.447 82.8597 104.447H80.2028V108.992Z" fill="#AEDFE6"/>
<path d="M89.058 103.473H94.8141V104.447H90.0903V113.804H89.0569V103.473H89.058Z" fill="#AEDFE6"/>
<path d="M101.558 113.981C99.9848 113.981 98.6899 113.465 97.6769 112.431C96.6537 111.389 96.1421 110.125 96.1421 108.639C96.1421 107.153 96.6537 105.889 97.6769 104.846C98.6899 103.813 99.9837 103.296 101.558 103.296C102.503 103.296 103.374 103.525 104.171 103.983C104.968 104.441 105.589 105.059 106.031 105.835L105.116 106.366C104.792 105.736 104.31 105.235 103.67 104.861C103.029 104.487 102.326 104.3 101.558 104.3C100.26 104.3 99.206 104.719 98.4 105.554C97.5837 106.401 97.1744 107.429 97.1744 108.639C97.1744 109.848 97.5825 110.877 98.4 111.723C99.206 112.56 100.26 112.977 101.558 112.977C102.326 112.977 103.029 112.791 103.67 112.417C104.31 112.043 104.792 111.541 105.116 110.911L106.031 111.429C105.608 112.206 104.993 112.826 104.186 113.289C103.378 113.751 102.503 113.981 101.558 113.981Z" fill="#AEDFE6"/>
<path d="M111.035 108.49L116.141 113.804H114.784L109.943 108.8V113.804H108.91V103.473H109.943V108.195L114.637 103.473H115.995L111.036 108.491L111.035 108.49Z" fill="#AEDFE6"/>
<path d="M126.324 113.804H125.291V105.391L119.535 113.804H118.649V103.473H119.683V111.885L125.439 103.473H126.324V113.804Z" fill="#AEDFE6"/>
<path d="M137.541 113.804H136.508V105.391L130.752 113.804H129.866V103.473H130.899V111.885L136.656 103.473H137.541V113.804ZM135.622 102.292H131.785V101.436H135.622V102.292Z" fill="#AEDFE6"/>
<path fill-rule="evenodd" clip-rule="evenodd" d="M105.401 46.0038C105.443 46.7632 105.1 47.3215 104.373 47.6762C104.165 48.6232 104.003 49.5805 103.887 50.548C103.818 50.9118 103.715 51.2642 103.579 51.6064C103.955 51.6553 104.311 51.669 104.648 51.6474C104.258 52.2658 103.724 52.7081 103.044 52.9764C102.556 54.0963 101.791 54.9592 100.75 55.564C100.647 55.5094 100.561 55.4344 100.49 55.34C100.405 54.2429 100.64 53.2174 101.199 52.2636C100.906 51.7576 100.803 51.2176 100.887 50.6458C101.167 50.8845 101.466 51.0039 101.783 51.0016C102.402 49.8579 103.087 48.7608 103.837 47.7091C103.433 47.2976 103.255 46.8087 103.305 46.2437C103.7 46.6473 104.176 46.7905 104.733 46.6734C105.05 46.5347 105.271 46.3119 105.401 46.0038Z" fill="white"/>
<path fill-rule="evenodd" clip-rule="evenodd" d="M89.887 10.4013C90.2099 10.7049 90.4316 11.08 90.551 11.5257C90.6329 12.0328 90.7522 12.5273 90.9091 13.0082C92.6838 13.5937 94.4551 14.1906 96.2241 14.7966C96.4583 14.5112 96.7141 14.2384 96.9904 13.9791C97.4588 14.5078 97.7658 15.1217 97.9102 15.8187C99.005 16.7248 100.061 17.6786 101.079 18.6802C101.308 18.969 101.513 19.276 101.692 19.6C101.814 19.9411 101.696 20.1286 101.333 20.1616C99.86 20.3253 98.4627 20.0695 97.1428 19.3953C96.2173 19.7478 95.2635 19.8672 94.2812 19.7535C94.811 19.3351 95.3226 18.8917 95.8149 18.4244C95.0338 17.7616 94.2164 17.1477 93.3614 16.5849C92.8373 16.3996 92.3268 16.195 91.8277 15.9721C91.9642 15.8357 92.1006 15.6993 92.237 15.5628C91.6197 14.9114 91.0399 14.2304 90.4998 13.5187C90.0417 13.5085 89.5812 13.5255 89.1196 13.5699C88.7104 13.5846 88.3193 13.5164 87.9441 13.3652C89.28 12.8411 89.9291 11.8531 89.887 10.4013Z" fill="white"/>
<path fill-rule="evenodd" clip-rule="evenodd" d="M31.9458 57.86C32.0425 57.8191 32.1368 57.8259 32.2289 57.8805C32.4347 58.159 32.6643 58.4171 32.9179 58.6536C34.1184 59.3664 35.1337 60.293 35.9625 61.4344C36.6787 61.4822 37.3813 61.6061 38.0703 61.8085C37.0573 62.0608 36.6173 62.6998 36.7504 63.723C37.0255 64.8133 37.3677 65.882 37.777 66.9291C38.1681 67.0291 38.5558 67.1451 38.9378 67.2758C38.5785 67.3793 38.4307 67.6101 38.4966 67.9693C38.7252 68.282 38.9537 68.5946 39.1845 68.9095C39.6756 69.0232 40.1497 69.1835 40.609 69.3927C40.2213 69.3973 39.8427 69.4814 39.4744 69.6451C39.2766 70.1647 39.1538 70.7013 39.106 71.255C38.8229 70.5922 38.7104 69.8918 38.765 69.1551C38.5228 68.8152 38.2545 68.4957 37.9612 68.1978C37.7008 68.0671 37.4734 68.1023 37.2779 68.3058C37.2176 68.2331 37.1574 68.1603 37.0971 68.0876C37.1392 67.7715 37.0983 67.4725 36.9743 67.1883C35.9432 66.3674 34.9211 65.5352 33.9104 64.6894C33.4318 64.8508 33.1339 65.185 33.0168 65.6932C32.5768 64.9292 32.5245 64.1357 32.8622 63.3126C32.6064 62.3996 32.3517 61.4878 32.0959 60.5749C32.0413 59.795 31.9072 59.0287 31.6912 58.2738C31.7696 58.1238 31.8537 57.9851 31.9458 57.86Z" fill="white"/>
<path fill-rule="evenodd" clip-rule="evenodd" d="M46.7334 32.3071C46.7585 33.1268 47.0756 33.8191 47.6828 34.383C48.5889 35.1516 49.553 35.844 50.575 36.459C50.6114 36.5488 50.6478 36.6387 50.6842 36.7273C49.6882 36.9365 48.7048 37.2094 47.7351 37.5459C47.4247 37.6721 47.1541 37.8574 46.9244 38.1018C47.5372 38.8226 47.3656 39.1626 46.4094 39.1205C46.1946 39.2888 46.0638 39.5139 46.0149 39.7981C45.9967 40.9521 46.331 42.0003 47.0199 42.9416C47.4918 43.4839 47.9636 44.0262 48.4354 44.5697C46.6277 43.3782 45.6704 41.7081 45.5624 39.5616C45.3169 39.3558 45.0929 39.1228 44.8905 38.8624C44.9212 38.5771 44.9019 38.2974 44.8314 38.0234C43.981 36.9035 42.8919 36.1077 41.564 35.6359C41.6015 35.4301 41.7186 35.2937 41.9153 35.2243C43.1067 34.8026 44.2596 34.2921 45.3737 33.6929C45.6568 33.5213 45.8899 33.2973 46.0729 33.021C46.0058 32.4651 46.2264 32.2286 46.7346 32.3105L46.7334 32.3071Z" fill="white"/>
<path fill-rule="evenodd" clip-rule="evenodd" d="M97.5802 80.6391C97.645 80.6277 97.703 80.6425 97.7541 80.6823C97.2823 81.3213 96.9924 82.0318 96.8844 82.814C96.8844 83.0835 96.9288 83.3438 97.0152 83.5973C97.2062 83.9554 97.3801 84.3033 97.537 84.641C97.1925 84.5455 96.8582 84.4148 96.5365 84.2499C96.1738 84.0168 95.8259 83.7713 95.4928 83.5109C94.7561 83.7417 94.0604 84.0453 93.4044 84.4239C93.4464 84.5967 93.534 84.741 93.6658 84.8593C93.1724 84.8877 92.6801 84.9173 92.1867 84.9468C90.8384 85.596 89.4184 85.9575 87.9234 86.0348C88.1735 86.6499 88.5509 87.1865 89.0546 87.6447C87.8449 87.5617 86.8012 87.0978 85.9224 86.2531C84.7821 86.3043 83.6804 86.1303 82.6163 85.7313C82.3923 85.6631 82.2184 85.5323 82.0945 85.3402C82.3776 84.84 82.7834 84.4773 83.3121 84.2522C84.3182 83.7497 85.3619 83.3427 86.4443 83.0346C86.774 82.299 87.2378 81.6612 87.8358 81.1212L88.0973 80.9904C88.2531 81.6066 88.5146 82.1717 88.8806 82.6867C90.3029 82.7367 91.7229 82.7651 93.144 82.7742C93.3953 82.4786 93.6852 82.2319 94.0137 82.0352C94.0797 82.266 94.1377 82.4979 94.1877 82.731C94.6834 82.8367 95.1756 82.8231 95.6668 82.6878C96.1727 81.8772 96.8105 81.1962 97.5802 80.6437V80.6391Z" fill="white"/>
<path fill-rule="evenodd" clip-rule="evenodd" d="M65.7016 4.10888C65.796 3.95994 65.8073 3.80646 65.7346 3.64957C64.0827 3.14365 62.4126 3.08567 60.7265 3.47449C59.95 2.99699 59.1064 2.76279 58.1969 2.77188C58.1048 2.81736 58.0423 2.89012 58.0127 2.9913C58.3208 3.27553 58.5755 3.60523 58.7768 3.98041C58.8632 4.11684 58.8506 4.24076 58.7392 4.35217C57.0487 5.05705 55.5411 6.04843 54.2166 7.32517C53.7073 7.38088 53.2332 7.54118 52.7932 7.80835C52.7171 7.84587 52.708 7.89931 52.7648 7.96752C52.9228 8.07439 53.0343 8.20968 53.0991 8.37567C52.2885 9.11465 51.4619 9.83658 50.6195 10.5403C50.516 10.5972 50.4057 10.6199 50.2875 10.6074C49.4075 10.2186 48.5389 10.2322 47.6829 10.6472C48.3138 10.9326 48.9039 11.2827 49.453 11.6988C49.6031 12.8948 49.6247 14.0977 49.5178 15.3062C49.8327 15.0118 50.0886 14.6661 50.2841 14.2705C50.6081 13.2302 50.9162 12.19 51.2084 11.1497C51.5631 10.8757 51.9542 10.7074 52.384 10.6426C52.6182 10.8632 52.8046 11.1201 52.9444 11.4112C53.2378 10.9348 53.547 10.4698 53.871 10.0162C55.565 9.35113 57.2704 8.72128 58.9848 8.12669C59.111 8.10849 59.2349 8.11986 59.3566 8.1642C59.7226 8.49959 60.0887 8.83725 60.4559 9.17377C60.5162 9.18855 60.5742 9.18514 60.6322 9.16581C60.9835 8.48367 61.27 7.77879 61.4939 7.05118C62.9662 6.1644 64.3692 5.18439 65.7016 4.10888Z" fill="white"/>
<path fill-rule="evenodd" clip-rule="evenodd" d="M105.624 21.9215C105.762 21.9977 105.829 22.1239 105.825 22.299C105.8 22.706 105.727 23.1028 105.606 23.4927C105.334 24.1021 105.012 24.6774 104.639 25.2197C105.504 26.742 106.158 28.353 106.6 30.0504C107.128 30.4596 107.717 30.7518 108.364 30.9269C108.017 31.4567 107.568 31.8819 107.016 32.2014C107.023 33.1018 107.087 33.9988 107.21 34.8913C107.321 35.1505 107.495 35.3563 107.734 35.5075C108.312 35.8463 108.889 36.1828 109.463 36.5171C109.296 36.8991 109.058 37.2356 108.75 37.5278C108.124 37.9666 107.468 38.3486 106.782 38.6726C106.117 40.3484 105.453 42.0242 104.788 43.7C104.615 44.0286 104.348 44.1502 103.985 44.0627C103.772 43.8364 103.622 43.5704 103.535 43.2668C102.802 40.9009 102.454 38.4839 102.492 36.0157C101.13 35.2437 100.023 34.2035 99.1707 32.896C100.309 33.3337 101.493 33.6407 102.726 33.8181C102.695 33.5861 102.693 33.3531 102.719 33.1211C102.929 32.2605 103.085 31.3908 103.186 30.5142C103.08 29.8162 102.944 29.1283 102.776 28.4507C103.051 28.4417 103.277 28.5565 103.455 28.7941C103.684 27.6958 103.721 26.5885 103.565 25.4721C102.493 25.0048 101.67 24.2647 101.094 23.2506C101.12 23.2051 101.145 23.1596 101.172 23.1141C103.022 24.0339 104.506 23.6371 105.621 21.9227L105.624 21.9215Z" fill="white"/>
<path fill-rule="evenodd" clip-rule="evenodd" d="M40.2976 39.1932C40.5716 39.1466 40.7899 39.233 40.9502 39.4547C41.1002 39.7309 41.2162 40.0208 41.298 40.3244C41.5618 42.0752 41.8802 43.8158 42.2553 45.5439C43.3081 46.2022 44.2654 46.9855 45.126 47.8927C45.7217 48.6056 46.1719 49.4025 46.4744 50.2848C46.4459 50.328 46.4164 50.3723 46.3868 50.4155C45.3011 49.6913 44.1119 49.4151 42.8204 49.589C42.7476 49.6618 42.6748 49.7345 42.6032 49.8061C42.5407 50.7952 42.5691 51.7809 42.6908 52.7644C42.8954 54.2833 43.1557 55.7919 43.4741 57.2881C43.9834 57.7542 44.3756 58.3056 44.6485 58.9411C44.4234 59.0264 44.1915 59.0548 43.9527 59.0287C44.1153 59.8495 44.3904 60.6328 44.7792 61.3775C45.226 61.7368 45.6467 62.129 46.0412 62.5519C45.7547 62.6281 45.4648 62.6861 45.1715 62.7259C45.5364 63.3853 45.8843 64.0526 46.2151 64.7268C47.3577 64.8155 48.4889 64.9895 49.6077 65.2487C50.2398 65.4306 50.8491 65.6625 51.4347 65.9444C50.1261 65.9706 48.8209 66.0581 47.5203 66.2059C47.053 66.8346 46.6619 67.5156 46.3459 68.2501C46.0025 69.0232 45.6842 69.8065 45.3886 70.5989C45.2226 68.8288 45.4409 67.1029 46.0412 65.4226C45.2408 64.7666 44.5303 64.0276 43.9095 63.2045C43.7697 63.3989 43.6105 63.5729 43.4309 63.7264C43.2729 63.1863 43.1717 62.6361 43.1262 62.0733C42.2644 61.2115 41.4663 60.2975 40.7341 59.3334C40.5272 59.372 40.3385 59.4732 40.1691 59.6381C39.9531 59.0491 39.8371 58.4409 39.8212 57.8111C37.8396 55.4634 36.8539 52.7371 36.863 49.6333C36.8334 49.6049 36.805 49.5754 36.7755 49.5458C36.3889 49.6538 35.9967 49.755 35.601 49.8505C34.9314 50.1279 34.264 50.403 33.6001 50.677C33.9196 49.3991 34.5142 48.2679 35.3839 47.2845C35.8523 46.8161 36.3162 46.3522 36.7755 45.8929C37.2348 44.2524 37.8157 42.6573 38.5149 41.1077C38.9776 40.3414 39.5722 39.7025 40.2987 39.1943L40.2976 39.1932Z" fill="white"/>
<path fill-rule="evenodd" clip-rule="evenodd" d="M93.542 75.1531C93.575 75.2645 93.642 75.3464 93.7432 75.3975C93.9262 75.3816 94.1082 75.3646 94.2912 75.3486C96.8845 74.5085 99.2322 73.2158 101.332 71.4707C102.936 71.1557 104.391 70.5043 105.7 69.5175C105.964 69.2799 106.198 69.0195 106.404 68.7364C105.586 68.9672 104.775 68.957 103.971 68.7069C103.895 68.6773 103.871 68.6239 103.901 68.5477C105.079 67.0095 105.967 65.3087 106.564 63.4476C107.305 62.928 107.91 62.2845 108.38 61.5171C107.951 61.5751 107.521 61.6046 107.089 61.6058C107.371 60.0994 107.735 58.6123 108.18 57.1434C108.344 56.8706 108.564 56.6489 108.838 56.4761C109.654 56.1271 110.404 55.6723 111.091 55.1141C110.652 54.9413 110.213 54.7696 109.775 54.5968C108.974 53.0449 108.145 51.5078 107.288 49.9867C107.142 50.5415 107.073 51.1088 107.082 51.6897C107.19 53.0733 107.379 54.4467 107.646 55.8099C107.501 56.6864 106.997 57.2378 106.138 57.4652C105.831 57.3015 105.562 57.0866 105.334 56.8194C105.245 57.015 105.209 57.2208 105.224 57.4368C105.294 57.9654 105.319 58.4929 105.296 59.0182C103.474 61.0191 101.711 63.069 100.008 65.17C99.8347 65.3121 99.6369 65.3666 99.4141 65.3337C98.915 65.2041 98.4306 65.0358 97.96 64.8289C97.8588 64.8266 97.7849 64.8744 97.7383 64.9733C97.5336 65.8214 97.5405 66.6729 97.761 67.5268C96.4093 69.4595 95.1802 71.4661 94.0763 73.5478C93.8353 74.0753 93.6579 74.6119 93.5442 75.1565L93.542 75.1531Z" fill="white"/>
<path fill-rule="evenodd" clip-rule="evenodd" d="M48.1183 53.2489C48.7174 53.2864 49.2677 53.4751 49.7713 53.8139C50.699 54.4813 51.6267 55.1475 52.5556 55.8149C54.3223 55.7125 56.0049 56.032 57.6011 56.7721L57.6887 56.8597C57.0395 56.9495 56.4017 57.095 55.7753 57.2951C55.5297 57.4031 55.2978 57.5339 55.0795 57.6862C56.4131 58.6742 57.6023 59.819 58.646 61.123C59.0837 61.2083 59.5191 61.3106 59.9511 61.4277C59.7885 61.6051 59.643 61.7938 59.5157 61.9928C59.9272 62.5692 60.4639 62.9887 61.1255 63.2547C62.1681 62.8489 63.2265 62.8057 64.3009 63.124C63.5994 63.4491 62.9173 63.8107 62.2567 64.212C62.1192 65.0465 62.0896 65.8878 62.1692 66.7348C62.1965 66.8451 62.2397 66.9463 62.3 67.0395C62.242 67.0975 62.184 67.0975 62.126 67.0395C61.2472 66.2107 60.6094 65.225 60.2126 64.0813C59.4043 63.7243 58.5777 63.4207 57.733 63.1683C57.7046 63.4003 57.675 63.6322 57.6455 63.8641C57.2828 63.6174 56.9781 63.3127 56.7325 62.9512C55.0659 62.4248 53.4856 61.7142 51.9917 60.8195C51.388 61.538 51.0981 62.3793 51.1219 63.3423C50.8514 62.8807 50.649 62.3873 50.5126 61.8632C50.3329 60.973 50.2158 60.0737 50.1647 59.1664C49.3438 58.0477 48.706 56.829 48.2513 55.5124C48.025 54.7678 47.9807 54.014 48.1205 53.25L48.1183 53.2489Z" fill="white"/>
<path fill-rule="evenodd" clip-rule="evenodd" d="M121.35 56.5357C121.566 56.8154 121.66 57.1417 121.632 57.5146C121.504 58.2331 121.268 58.9153 120.926 59.5599C120.512 60.3148 120.057 61.0401 119.557 61.7337C118.839 62.5738 118.141 63.4276 117.466 64.2951C117.367 65.706 117.17 67.1021 116.877 68.4846C117.014 68.8518 117.293 69.0314 117.712 69.0212C117.642 69.2952 117.524 69.5487 117.355 69.7818C117.043 70.1092 116.73 70.4366 116.416 70.7641C115.947 72.4501 115.3 74.0633 114.474 75.6027C114.489 75.655 114.515 75.7005 114.553 75.7391C115.259 76.0484 115.964 76.3576 116.67 76.668C116.806 76.7305 116.916 76.826 116.999 76.9522C116.429 77.4013 115.795 77.7367 115.1 77.9572C114.236 78.1846 113.356 78.2994 112.461 78.3017C110.752 80.0662 108.848 81.5646 106.749 82.797C105.588 83.4087 104.366 83.8486 103.085 84.1181C102.85 84.1601 102.618 84.1442 102.39 84.0715C102.348 84.0192 102.323 83.9601 102.315 83.8918C102.572 83.3132 102.886 82.7674 103.254 82.2547C104.877 80.2674 106.466 78.2528 108.025 76.2132C108.088 76.1302 108.094 76.0438 108.043 75.9529C107.486 74.9922 107.222 73.9565 107.25 72.8468C108.126 73.0344 108.998 73.2391 109.869 73.4608C110.252 73.5495 110.578 73.4551 110.848 73.1788C112.284 71.5553 113.55 69.8102 114.647 67.9434C114.59 67.4761 114.607 67.0123 114.698 66.5518C114.831 66.6371 114.955 66.7326 115.071 66.8383C115.536 66.0971 115.91 65.3092 116.191 64.4724C116.107 64.0688 115.973 63.6823 115.79 63.3117C115.314 62.3931 114.839 61.4744 114.364 60.5558C115.641 61.0458 116.894 60.9856 118.126 60.3751C119.554 59.3916 120.628 58.1138 121.351 56.5391L121.35 56.5357Z" fill="white"/>
<path fill-rule="evenodd" clip-rule="evenodd" d="M97.8056 54.8892C97.7794 55.3156 97.6783 55.7499 97.5009 56.1944C97.2735 57.0266 97.4918 57.7088 98.1535 58.2386C98.4832 58.4455 98.8311 58.6194 99.1972 58.7604C98.7617 58.8184 98.3274 58.8184 97.892 58.7604C97.477 58.641 97.07 58.525 96.6744 58.4125C96.3401 58.6228 96.0207 58.8548 95.7171 59.1083L96.065 59.4562C95.8706 59.5562 95.6682 59.6426 95.4556 59.7177C95.0327 60.1701 94.5825 60.5908 94.1072 60.9796C94.1436 61.1536 94.2164 61.3275 94.3244 61.5015C94.3062 61.5526 94.2766 61.5958 94.2369 61.6322C93.8856 61.7084 93.5377 61.7948 93.1932 61.8937C92.569 62.278 91.9312 62.6406 91.2798 62.9817C91.2047 63.3262 91.2047 63.6741 91.2798 64.0254C91.0456 64.0402 90.8136 64.0254 90.584 63.9822C90.2577 63.8196 89.9382 63.6593 89.6267 63.5035C87.7838 63.9469 85.9284 64.0345 84.0593 63.765C84.1139 63.5206 84.2299 63.3023 84.4072 63.1124C85.9841 61.9471 87.6951 61.0046 89.5403 60.285C89.6836 59.6926 89.9746 59.1856 90.4101 58.7627C90.493 58.7206 90.5794 58.7058 90.6715 58.7195C90.6715 59.0946 90.7579 59.4425 90.933 59.7631C92.0824 59.2902 93.2421 58.84 94.4131 58.4148C94.6302 58.1396 94.8485 57.8634 95.0657 57.5882C95.1634 57.7485 95.2078 57.9225 95.1964 58.1101C95.6591 58.0521 96.0934 57.9077 96.5016 57.6746C96.7517 56.6537 97.186 55.726 97.8067 54.8904L97.8056 54.8892Z" fill="white"/>
<path fill-rule="evenodd" clip-rule="evenodd" d="M96.7139 3.99901C97.1254 4.10474 97.4585 4.33667 97.7143 4.69479C97.9906 5.29394 98.2669 5.88854 98.5409 6.47859C100.266 7.00725 101.889 7.74737 103.412 8.69668C103.819 8.23169 104.138 7.70986 104.37 7.13117C104.69 7.36651 104.879 7.68598 104.935 8.08844C105.089 8.65803 105.176 9.23785 105.196 9.8279C106.603 11.1899 107.661 12.785 108.372 14.6131C108.363 14.695 108.333 14.7677 108.284 14.8303C107.734 14.9985 107.182 14.9985 106.631 14.8303C105.023 14.4005 103.457 13.8491 101.933 13.1772C101.346 13.0612 100.766 12.9453 100.194 12.8293C100.69 12.2961 100.762 11.7015 100.411 11.0455C99.7574 9.62098 98.9752 8.2874 98.0622 7.04363C97.5154 7.24827 96.9492 7.33468 96.366 7.30512C96.4205 6.82876 96.6672 6.48086 97.1049 6.26144C97.1288 5.98745 97.0709 5.72596 96.931 5.47812C96.8298 4.98811 96.7571 4.49584 96.7139 3.99901Z" fill="white"/>
<path fill-rule="evenodd" clip-rule="evenodd" d="M112.013 30.0005C112.128 30.0198 112.23 29.9948 112.321 29.9266C113.226 28.319 113.819 26.6012 114.1 24.7753C115.055 23.9329 115.563 22.8801 115.624 21.6159C115.075 22.2469 114.396 22.5379 113.585 22.4902C113.166 21.7466 112.791 20.9758 112.461 20.18C112.339 19.4273 112.582 18.8271 113.188 18.3814C113.055 18.2939 112.909 18.2882 112.753 18.3632C112.608 18.3348 112.479 18.2711 112.369 18.1733C112.287 17.7561 112.233 17.3332 112.203 16.9046C112.55 16.543 112.885 16.1644 113.207 15.7699C113.18 15.7404 113.151 15.7097 113.124 15.679C112.736 15.8916 112.328 15.9473 111.898 15.8461C111.54 15.2151 111.115 14.6319 110.62 14.0953C110.811 15.0275 111.153 15.912 111.644 16.7499C111.826 17.4992 111.613 18.0858 111.006 18.5087C110.052 18.2779 109.927 18.4758 110.633 19.1033C110.976 19.1875 111.171 19.3978 111.216 19.7366C110.766 20.9519 110.453 22.2014 110.278 23.4861C110.284 23.7578 110.332 24.0204 110.42 24.2751C110.004 24.7355 109.522 24.8026 108.975 24.4763C109.108 24.9402 109.368 25.3426 109.753 25.6837C110.157 25.9441 110.536 26.2351 110.892 26.558C111.108 27.5062 111.359 28.4452 111.647 29.3752C111.726 29.614 111.847 29.8232 112.013 30.0005Z" fill="white"/>
<path fill-rule="evenodd" clip-rule="evenodd" d="M50.7796 17.8301C50.8353 17.7312 50.9205 17.7084 51.0354 17.7619C52.544 18.8431 54.1937 19.6457 55.9877 20.1687C56.3788 20.3779 56.6983 20.6678 56.945 21.0373C57.3804 21.0248 57.817 21.0111 58.2524 20.9986C58.365 21.0657 58.3718 21.1385 58.2729 21.2146C57.8534 21.3852 57.4827 21.625 57.1621 21.9331C57.0007 22.3743 57.0814 22.7597 57.4043 23.0894C57.8511 23.1292 58.2922 23.1735 58.7288 23.2235C58.6628 23.4009 58.5605 23.5566 58.4241 23.6897C57.9955 23.8818 57.6123 24.1365 57.2747 24.4559C56.2242 26.1022 55.2203 27.7723 54.2619 29.4663C54.3483 27.87 53.6571 26.7422 52.187 26.0828C52.0836 25.9169 51.9801 25.752 51.8767 25.5883C49.9451 27.5017 49.1356 29.8232 49.446 32.5529C48.873 30.3508 49.2288 28.3066 50.5147 26.4194C50.9865 25.8623 51.4412 25.295 51.8801 24.714C51.6265 24.6253 51.4935 24.4491 51.4799 24.1842C51.6368 23.2633 51.7357 22.3356 51.78 21.4022C51.8562 20.0823 51.5231 18.8908 50.7796 17.8278V17.8301Z" fill="white"/>
<path fill-rule="evenodd" clip-rule="evenodd" d="M95.0064 65.7373C95.0541 65.743 95.0826 65.7714 95.0939 65.8248C93.6648 67.4676 91.9538 68.7285 89.9608 69.6096C88.4464 72.1005 86.4899 74.1742 84.0887 75.8295C84.0285 75.9023 84.0433 75.9603 84.1319 76.0035C84.5173 76.0978 84.8948 76.2138 85.2631 76.3514C84.8766 76.6606 84.4412 76.8778 83.958 77.004C83.2679 77.1995 82.5721 77.3746 81.8695 77.5258C80.3608 78.5195 78.751 79.3164 77.0411 79.9178C77.0149 80.625 77.1013 81.3208 77.3026 82.0063C77.6527 83.4047 78.0734 84.7826 78.5645 86.139C78.5532 86.231 78.5099 86.3038 78.4338 86.3561C77.4458 85.9195 76.5749 85.3102 75.8234 84.5291C74.7752 83.3649 73.8623 82.103 73.0835 80.7444C72.7368 80.7012 72.3889 80.6864 72.0399 80.7012C72.0717 81.8096 72.1444 82.9124 72.257 84.0073C71.2542 83.1614 70.6596 82.0893 70.4732 80.7887C68.1096 80.4124 66.2394 79.2516 64.8615 77.3087C64.6079 76.9915 64.5943 76.672 64.8183 76.3514C65.1696 76.1581 65.547 76.0569 65.9495 76.0467C68.5973 76.0592 71.2361 75.9137 73.8657 75.6113C76.1884 75.2986 78.4213 74.6756 80.5643 73.7411C81.234 72.9839 81.9593 72.2881 82.7392 71.6526C82.8324 72.1369 83.0064 72.5871 83.261 73.0009C84.6935 73.0362 85.9396 72.5723 87.0015 71.6094C87.7791 70.8465 88.4749 70.02 89.0899 69.1298C88.8808 68.8137 88.7068 68.4806 88.5681 68.1293C89.5004 68.077 90.3996 67.8746 91.2648 67.5199C92.4961 66.8753 93.7433 66.2807 95.0052 65.7361L95.0064 65.7373Z" fill="white"/>
<path fill-rule="evenodd" clip-rule="evenodd" d="M79.6809 15.0111C80.3539 15.7307 80.8325 16.572 81.1168 17.5338C81.2975 18.1921 81.4283 18.8595 81.5079 19.5348C81.8853 19.6269 82.2628 19.7281 82.6391 19.8395C83.1097 19.9066 83.5736 19.8781 84.0306 19.7519C84.1648 19.5837 84.266 19.3949 84.3353 19.1869C84.731 19.553 85.1516 19.8872 85.5973 20.1874C86.8365 20.6342 88.0837 21.0548 89.3377 21.4493C89.4252 21.4345 89.5116 21.4209 89.5992 21.4061C90.0846 20.9798 90.5053 20.5012 90.8612 19.9702C91.2318 20.8286 91.4637 21.7267 91.5569 22.6669C93.6932 24.3109 95.6361 26.1663 97.3858 28.2343C97.4677 28.4822 97.4245 28.6993 97.2551 28.8869C96.3615 29.1621 95.4622 29.1621 94.5583 28.8869C93.5294 28.5243 92.529 28.1036 91.5569 27.625C90.3143 28.1275 89.0239 28.4174 87.6858 28.4947C87.3561 28.5027 87.0378 28.4595 86.7285 28.364C87.6915 27.75 88.6044 27.0679 89.4684 26.3198C89.5287 26.247 89.5139 26.1891 89.4253 26.1459C88.1758 25.4046 86.9877 24.5781 85.8588 23.6663C85.2267 23.4923 84.5889 23.3332 83.9454 23.1876C83.917 23.1592 83.8874 23.1297 83.8578 23.1001C83.9738 22.8966 84.0898 22.6942 84.2057 22.4907C83.2235 21.6983 82.1798 20.9877 81.0736 20.359C80.2163 20.558 79.3466 20.7331 78.4632 20.8809C78.0756 20.9559 77.6981 20.9275 77.332 20.7933C78.3723 20.3681 79.1988 19.686 79.8116 18.7492C79.9935 17.4975 79.9503 16.2503 79.6809 15.0088V15.0111Z" fill="#98D8E5"/>
<path fill-rule="evenodd" clip-rule="evenodd" d="M120.575 38.3286C120.489 38.3207 120.423 38.2797 120.376 38.2047C120.333 37.9216 120.265 37.6442 120.172 37.3725C119.57 36.3868 119.187 35.317 119.023 34.1619C118.519 33.8504 118.052 33.4866 117.627 33.0727C118.465 33.2796 119.034 32.9841 119.333 32.1848C119.553 31.2821 119.717 30.368 119.824 29.4449C119.577 29.2198 119.338 28.9856 119.11 28.7423C119.413 28.8059 119.61 28.6934 119.7 28.4058C119.654 28.0897 119.608 27.7714 119.561 27.453C119.246 27.1802 118.962 26.8789 118.707 26.5492C118.993 26.6959 119.301 26.7811 119.634 26.8039C119.979 26.5003 120.277 26.157 120.526 25.7704C120.476 26.365 120.288 26.9198 119.962 27.4371C120.008 27.7793 120.079 28.117 120.178 28.4478C120.317 28.6445 120.498 28.7059 120.72 28.6331C120.735 28.7093 120.751 28.7866 120.767 28.8628C120.614 29.0765 120.529 29.3119 120.508 29.5677C120.945 30.5659 121.368 31.5697 121.78 32.5793C122.193 32.6464 122.54 32.5179 122.822 32.1916C122.848 32.9204 122.578 33.5195 122.013 33.9913C121.846 34.7565 121.68 35.5227 121.513 36.2879C121.25 36.8791 121.053 37.4907 120.919 38.1263C120.803 38.2058 120.688 38.274 120.573 38.3298L120.575 38.3286Z" fill="#98D8E5"/>
<path fill-rule="evenodd" clip-rule="evenodd" d="M72.5003 64.0508C72.6026 64.0088 72.7084 63.9917 72.8187 64.0008C72.8437 64.6341 72.9789 65.2457 73.2245 65.8381C73.3371 65.9859 73.4849 66.0677 73.6702 66.0836C74.3773 66.0586 75.0834 66.0063 75.7882 65.929C76.21 65.5356 76.6182 65.1264 77.0138 64.7012C77.1025 64.6352 77.2014 64.592 77.3094 64.5738C77.3776 64.8069 77.4697 65.0309 77.5857 65.2423C77.8142 65.1627 78.0473 65.1093 78.2871 65.0809C78.5611 65.1673 78.8169 65.2878 79.0568 65.4413C80.1528 65.2742 81.2533 65.1491 82.3595 65.0695C82.8631 65.0979 83.3577 65.1775 83.842 65.306C83.9591 65.3276 83.9739 65.3788 83.8864 65.4595C83.1031 65.7744 82.3004 66.0211 81.4796 66.1962C81.2658 66.2519 81.2067 66.3792 81.2999 66.5805C80.8781 66.6862 80.4518 66.6976 80.0209 66.6168C78.6521 67.4093 77.2332 68.1107 75.7632 68.7201C74.8162 69.0009 73.8623 69.2499 72.9005 69.4636C73.004 70.0514 73.1199 70.6426 73.2461 71.2349C73.5156 71.9182 73.8441 72.5719 74.2284 73.1972C74.3319 73.4519 74.2659 73.5133 74.0317 73.3791C73.361 72.9425 72.7754 72.4048 72.2763 71.7659C71.6874 70.9575 71.1656 70.1105 70.7097 69.2237C69.1305 68.9338 67.6799 68.3267 66.3576 67.4036C66.012 67.1523 65.7164 66.8488 65.4709 66.4952C65.439 66.3769 65.464 66.2724 65.547 66.1825C66.4065 65.921 67.2876 65.8051 68.1915 65.8346C69.0305 65.8471 69.8684 65.8688 70.7051 65.8983C71.3316 65.3094 71.9296 64.6921 72.4992 64.0486L72.5003 64.0508Z" fill="#98D8E5"/>
<path fill-rule="evenodd" clip-rule="evenodd" d="M69.8183 0C70.6346 0.3081 71.2872 0.829937 71.7761 1.56551C72.0717 1.94865 72.332 2.35452 72.5594 2.78313C72.6367 2.83316 72.7242 2.86272 72.8209 2.87067C73.7122 2.69559 74.5967 2.49209 75.4744 2.2613C75.5028 2.17375 75.5324 2.08735 75.5619 1.99981C75.5062 1.51549 75.4039 1.05163 75.2573 0.608242C76.0827 0.910657 76.8216 1.35973 77.4754 1.95661C78.3883 1.97934 79.3024 1.9657 80.2153 1.9134C81.1328 1.92364 82.0457 1.98162 82.9552 2.08735C83.0882 2.08508 83.1894 2.02709 83.2599 1.9134C83.5737 1.17897 84.0819 0.627569 84.7822 0.26035C85.2176 0.430885 85.4928 0.750355 85.6087 1.21762C85.7668 1.67465 85.8964 2.13851 85.9999 2.60919C88.3146 3.51984 90.519 4.63628 92.612 5.9585C92.7928 6.08924 92.9088 6.26319 92.9599 6.48033C92.5995 6.95556 92.1357 7.30345 91.5684 7.52401C90.6122 7.86053 89.6266 8.0197 88.6102 8.00264C87.911 7.96171 87.2152 7.91851 86.5217 7.8719C85.5724 8.99743 84.3979 9.76598 82.9984 10.1775C82.8972 10.1628 82.7949 10.1491 82.6937 10.1343C83.1849 9.22595 83.5908 8.28346 83.9114 7.30686C82.48 6.94192 81.0589 6.53604 79.648 6.08924C79.2319 6.25409 78.826 6.44168 78.4303 6.65428C78.1438 6.7259 77.8539 6.76911 77.5606 6.78502C77.5254 6.37688 77.4674 5.971 77.3867 5.5674C75.7461 5.09786 74.1226 4.57603 72.5151 4.00189C71.5407 4.47712 70.5255 4.83865 69.4704 5.0899C69.1225 5.14789 68.7746 5.14789 68.4268 5.0899C69.9627 3.68811 70.4266 1.99185 69.8183 0Z" fill="#98D8E5"/>
<path fill-rule="evenodd" clip-rule="evenodd" d="M68.1433 10.1785C69.1052 10.1705 69.9954 10.4536 70.8139 11.0278C72.1123 10.988 73.4072 10.88 74.6976 10.7038C75.8299 10.6503 76.9634 10.6503 78.0958 10.7038C78.2527 10.7697 78.4141 10.8095 78.5812 10.8254C78.5744 11.1903 78.4528 11.5144 78.2174 11.7963C76.7463 13.2879 75.0205 14.3941 73.0388 15.1138C72.6773 15.946 72.2726 16.7543 71.8246 17.5411C71.5847 17.8617 71.3153 18.1584 71.0152 18.4313C70.9742 17.5149 70.9617 16.5974 70.9742 15.68C69.6054 15.9233 68.2298 16.1256 66.8473 16.2871C66.4653 16.6463 66.0469 16.9567 65.5933 17.2182C65.5001 16.984 65.4603 16.7418 65.4716 16.4894C64.985 16.5133 64.4996 16.5542 64.0153 16.6111C63.8481 16.934 63.6321 17.2171 63.3684 17.4604C63.3138 17.2284 63.2058 17.0261 63.0443 16.8533C62.7169 16.8112 62.3929 16.8385 62.0734 16.934C61.9666 17.5752 61.8188 18.2084 61.6289 18.836C61.0809 19.8183 60.8115 19.7103 60.8194 18.512C60.758 18.2937 60.6625 18.0913 60.5363 17.9049C59.3096 17.3887 58.042 17.0113 56.7334 16.7725C57.2075 16.4883 57.7202 16.2996 58.2705 16.2064C59.3426 15.9972 60.4215 15.9562 61.5073 16.0847C62.1314 16.0392 62.6305 15.7698 63.0045 15.2752C63.0455 14.9251 63.058 14.5749 63.0455 14.2236C63.4218 14.318 63.8004 14.3862 64.1778 14.426C65.5262 13.6972 66.8757 12.9696 68.2241 12.2408C68.4196 12.0408 68.5003 11.7975 68.4674 11.5121C68.4492 11.1994 68.4082 10.8891 68.3457 10.581C68.315 10.4195 68.2479 10.2854 68.1433 10.1762V10.1785Z" fill="#98D8E5"/>
<path fill-rule="evenodd" clip-rule="evenodd" d="M44.4663 15.8012C44.6994 15.7728 44.9006 15.833 45.0689 15.982C45.469 17.319 45.5338 18.6719 45.2644 20.0419C45.0632 21.0025 44.8301 21.9541 44.5652 22.8977C44.9086 24.3337 44.9711 25.7809 44.7517 27.2418C44.3413 26.6791 43.8853 26.1504 43.3828 25.6581C42.595 26.836 41.8276 28.0274 41.0806 29.2337C41.0965 29.826 41.1181 30.4206 41.1454 31.0198C41.1113 31.2346 41.0772 31.4495 41.0442 31.6655C40.7612 31.4097 40.4576 31.1835 40.1336 30.9879C39.4946 31.7883 38.8739 32.6069 38.2725 33.4425C38.2213 34.1974 38.1701 34.9523 38.1201 35.7083C38.0985 35.8243 38.0553 35.9312 37.9882 36.029C37.762 35.6822 37.5153 35.3502 37.2493 35.033C36.5319 36.1324 35.7952 37.217 35.038 38.2868C34.9766 38.5017 34.9698 38.7166 35.0175 38.9349C35.2654 39.6454 35.5132 40.356 35.7611 41.0666C35.8043 41.261 35.8259 41.4508 35.8236 41.6361C35.4257 40.9188 34.8322 40.4674 34.0421 40.2821C33.6794 40.323 33.3247 40.4072 32.9802 40.5322C32.3867 40.8073 31.7842 41.0313 31.1748 41.2053C31.8581 40.223 32.721 39.4397 33.7624 38.8553C34.0057 38.6791 34.1887 38.4551 34.3104 38.1834C34.7958 37.0272 35.3052 35.8812 35.8384 34.7454C35.3279 34.6601 34.8152 34.6294 34.3001 34.6556C34.8231 33.7449 35.586 33.1344 36.5876 32.8229C36.7502 32.0555 36.923 31.2915 37.106 30.5286C37.081 30.4604 37.056 30.3922 37.031 30.324C36.9014 30.3854 36.7661 30.4081 36.624 30.3922C36.7286 29.8431 36.9991 29.3917 37.4368 29.0393C37.6313 27.0247 38.1383 25.0954 38.958 23.2491C37.9087 22.9228 36.8354 22.6999 35.736 22.5794C36.508 21.7574 37.4448 21.206 38.5453 20.9252C39.0069 20.8229 39.4696 20.7297 39.9323 20.6444C40.7873 19.4234 41.7025 18.249 42.6791 17.1234C43.2191 16.5902 43.8149 16.1502 44.464 15.8012H44.4663Z" fill="#98D8E5"/>
<path fill-rule="evenodd" clip-rule="evenodd" d="M113.369 32.1131C113.409 32.0005 113.466 31.9948 113.54 32.0983C114.823 33.6104 115.703 35.3396 116.177 37.2871C116.872 39.2699 117.031 41.2901 116.655 43.3491C116.848 43.6299 117.084 43.8675 117.361 44.0619C117.482 44.4064 117.437 44.7247 117.228 45.0192C118.296 45.5876 119.286 46.2766 120.199 47.0849C120.908 47.841 121.618 48.5959 122.328 49.3519C121.58 49.4849 120.852 49.6907 120.146 49.9692C118.524 50.6593 116.926 51.3983 115.351 52.1862C115.044 52.6137 114.737 53.0411 114.43 53.4686C114.265 53.6244 114.074 53.7403 113.858 53.8188C113.825 53.7642 113.791 53.7096 113.758 53.6551C113.867 53.3902 113.946 53.1253 113.991 52.8615C113.453 52.3385 112.821 52.1498 112.095 52.2942C111.899 52.5602 111.738 52.8467 111.609 53.1525C111.445 52.9183 111.35 52.6546 111.326 52.3601C111.415 51.6564 111.398 50.9561 111.275 50.2591C110.694 48.4788 110.028 46.7313 109.278 45.0158C109.093 44.4666 108.973 43.9039 108.917 43.3275C109.854 43.5389 110.79 43.7595 111.724 43.9891C112.643 44.2006 113.561 44.2222 114.48 44.0528C114.567 43.8709 114.698 43.7311 114.873 43.6321C115.265 43.5685 115.626 43.4366 115.957 43.2388C116.263 41.5755 116.221 39.9168 115.831 38.2637C115.399 36.0456 114.578 33.9958 113.368 32.1142L113.369 32.1131Z" fill="#98D8E5"/>
<path fill-rule="evenodd" clip-rule="evenodd" d="M79.0078 91.0037C76.7477 89.9828 74.4682 88.9755 72.1716 87.9819C68.1402 86.0753 64.4691 83.6196 61.1585 80.6159C60.1762 78.8776 59.6032 77.0153 59.4384 75.0303C59.3542 73.4898 59.7999 72.1619 60.7765 71.05C60.1785 70.8977 59.568 70.8101 58.9449 70.7862C57.1361 70.9625 55.325 71.1114 53.514 71.2319C53.149 71.2114 52.7886 71.166 52.4328 71.0943C51.4982 70.5066 50.4887 70.1541 49.4029 70.0382C49.2608 70.0211 49.1585 70.0768 49.0948 70.2053C49.5575 70.4975 49.9964 70.8237 50.4125 71.1841C50.4159 71.6628 50.2488 72.0709 49.9111 72.4086C49.4404 72.1585 48.9982 71.864 48.5843 71.5264C48.4525 71.4627 48.3581 71.5002 48.3013 71.6378C48.3217 71.8481 48.3956 72.0368 48.523 72.2051C49.1312 72.9634 49.7395 73.7217 50.3477 74.48C50.716 74.9484 50.9809 75.4668 51.1435 76.0364C51.33 76.9869 51.4255 77.9464 51.43 78.9139C51.3413 80.3157 51.2299 81.6982 51.0924 83.0636C52.2622 82.61 53.4423 82.1643 54.6327 81.7244C55.7855 81.4356 56.9497 81.3844 58.1229 81.572C58.3105 81.5993 58.4447 81.7028 58.5243 81.8824C58.5925 82.7658 58.6891 83.6469 58.8119 84.5257C58.8597 84.5689 58.9085 84.6121 58.9563 84.6564C59.2701 83.8595 59.444 83.0284 59.4747 82.1643C59.5077 82.0893 59.5611 82.0677 59.6373 82.1007C59.8863 82.2996 60.1682 82.4224 60.4832 82.4702C60.4752 82.1746 60.4377 81.8778 60.3683 81.5811C60.4286 81.3856 60.5536 81.306 60.7412 81.3412C65.6129 85.7649 71.2064 88.9153 77.523 90.7934C78.013 90.9162 78.5076 90.9867 79.0078 91.006V91.0037Z" fill="#98D8E5"/>
<path fill-rule="evenodd" clip-rule="evenodd" d="M105.401 46.0038C105.443 46.7632 105.1 47.3215 104.373 47.6762C104.165 48.6232 104.003 49.5805 103.887 50.548C103.818 50.9118 103.715 51.2642 103.579 51.6064C103.955 51.6553 104.311 51.669 104.648 51.6474C104.258 52.2658 103.724 52.7081 103.044 52.9764C102.556 54.0963 101.791 54.9592 100.75 55.564C100.647 55.5094 100.561 55.4344 100.49 55.34C100.405 54.2429 100.64 53.2174 101.199 52.2636C100.906 51.7576 100.803 51.2176 100.887 50.6458C101.167 50.8845 101.466 51.0039 101.783 51.0016C102.402 49.8579 103.087 48.7608 103.837 47.7091C103.433 47.2976 103.255 46.8087 103.305 46.2437C103.7 46.6473 104.176 46.7905 104.733 46.6734C105.05 46.5347 105.271 46.3119 105.401 46.0038Z" fill="white"/>
<path fill-rule="evenodd" clip-rule="evenodd" d="M89.887 10.4013C90.2099 10.7049 90.4316 11.08 90.551 11.5257C90.6329 12.0328 90.7522 12.5273 90.9091 13.0082C92.6838 13.5937 94.4551 14.1906 96.2241 14.7966C96.4583 14.5112 96.7141 14.2384 96.9904 13.9791C97.4588 14.5078 97.7658 15.1217 97.9102 15.8187C99.005 16.7248 100.061 17.6786 101.079 18.6802C101.308 18.969 101.513 19.276 101.692 19.6C101.814 19.9411 101.696 20.1286 101.333 20.1616C99.86 20.3253 98.4627 20.0695 97.1428 19.3953C96.2173 19.7478 95.2635 19.8672 94.2812 19.7535C94.811 19.3351 95.3226 18.8917 95.8149 18.4244C95.0338 17.7616 94.2164 17.1477 93.3614 16.5849C92.8373 16.3996 92.3268 16.195 91.8277 15.9721C91.9642 15.8357 92.1006 15.6993 92.237 15.5628C91.6197 14.9114 91.0399 14.2304 90.4998 13.5187C90.0417 13.5085 89.5812 13.5255 89.1196 13.5699C88.7104 13.5846 88.3193 13.5164 87.9441 13.3652C89.28 12.8411 89.9291 11.8531 89.887 10.4013Z" fill="white"/>
<path fill-rule="evenodd" clip-rule="evenodd" d="M31.9458 57.86C32.0425 57.8191 32.1368 57.8259 32.2289 57.8805C32.4347 58.159 32.6643 58.4171 32.9179 58.6536C34.1184 59.3664 35.1337 60.293 35.9625 61.4344C36.6787 61.4822 37.3813 61.6061 38.0703 61.8085C37.0573 62.0608 36.6173 62.6998 36.7504 63.723C37.0255 64.8133 37.3677 65.882 37.777 66.9291C38.1681 67.0291 38.5558 67.1451 38.9378 67.2758C38.5785 67.3793 38.4307 67.6101 38.4966 67.9693C38.7252 68.282 38.9537 68.5946 39.1845 68.9095C39.6756 69.0232 40.1497 69.1835 40.609 69.3927C40.2213 69.3973 39.8427 69.4814 39.4744 69.6451C39.2766 70.1647 39.1538 70.7013 39.106 71.255C38.8229 70.5922 38.7104 69.8918 38.765 69.1551C38.5228 68.8152 38.2545 68.4957 37.9612 68.1978C37.7008 68.0671 37.4734 68.1023 37.2779 68.3058C37.2176 68.2331 37.1574 68.1603 37.0971 68.0876C37.1392 67.7715 37.0983 67.4725 36.9743 67.1883C35.9432 66.3674 34.9211 65.5352 33.9104 64.6894C33.4318 64.8508 33.1339 65.185 33.0168 65.6932C32.5768 64.9292 32.5245 64.1357 32.8622 63.3126C32.6064 62.3996 32.3517 61.4878 32.0959 60.5749C32.0413 59.795 31.9072 59.0287 31.6912 58.2738C31.7696 58.1238 31.8537 57.9851 31.9458 57.86Z" fill="white"/>
<path fill-rule="evenodd" clip-rule="evenodd" d="M46.7334 32.3071C46.7585 33.1268 47.0756 33.8191 47.6828 34.383C48.5889 35.1516 49.553 35.844 50.575 36.459C50.6114 36.5488 50.6478 36.6387 50.6842 36.7273C49.6882 36.9365 48.7048 37.2094 47.7351 37.5459C47.4247 37.6721 47.1541 37.8574 46.9244 38.1018C47.5372 38.8226 47.3656 39.1626 46.4094 39.1205C46.1946 39.2888 46.0638 39.5139 46.0149 39.7981C45.9967 40.9521 46.331 42.0003 47.0199 42.9416C47.4918 43.4839 47.9636 44.0262 48.4354 44.5697C46.6277 43.3782 45.6704 41.7081 45.5624 39.5616C45.3169 39.3558 45.0929 39.1228 44.8905 38.8624C44.9212 38.5771 44.9019 38.2974 44.8314 38.0234C43.981 36.9035 42.8919 36.1077 41.564 35.6359C41.6015 35.4301 41.7186 35.2937 41.9153 35.2243C43.1067 34.8026 44.2596 34.2921 45.3737 33.6929C45.6568 33.5213 45.8899 33.2973 46.0729 33.021C46.0058 32.4651 46.2264 32.2286 46.7346 32.3105L46.7334 32.3071Z" fill="white"/>
<path fill-rule="evenodd" clip-rule="evenodd" d="M97.5802 80.6391C97.645 80.6277 97.703 80.6425 97.7541 80.6823C97.2823 81.3213 96.9924 82.0318 96.8844 82.814C96.8844 83.0835 96.9288 83.3438 97.0152 83.5973C97.2062 83.9554 97.3801 84.3033 97.537 84.641C97.1925 84.5455 96.8582 84.4148 96.5365 84.2499C96.1738 84.0168 95.8259 83.7713 95.4928 83.5109C94.7561 83.7417 94.0604 84.0453 93.4044 84.4239C93.4464 84.5967 93.534 84.741 93.6658 84.8593C93.1724 84.8877 92.6801 84.9173 92.1867 84.9468C90.8384 85.596 89.4184 85.9575 87.9234 86.0348C88.1735 86.6499 88.5509 87.1865 89.0546 87.6447C87.8449 87.5617 86.8012 87.0978 85.9224 86.2531C84.7821 86.3043 83.6804 86.1303 82.6163 85.7313C82.3923 85.6631 82.2184 85.5323 82.0945 85.3402C82.3776 84.84 82.7834 84.4773 83.3121 84.2522C84.3182 83.7497 85.3619 83.3427 86.4443 83.0346C86.774 82.299 87.2378 81.6612 87.8358 81.1212L88.0973 80.9904C88.2531 81.6066 88.5146 82.1717 88.8806 82.6867C90.3029 82.7367 91.7229 82.7651 93.144 82.7742C93.3953 82.4786 93.6852 82.2319 94.0137 82.0352C94.0797 82.266 94.1377 82.4979 94.1877 82.731C94.6834 82.8367 95.1756 82.8231 95.6668 82.6878C96.1727 81.8772 96.8105 81.1962 97.5802 80.6437V80.6391Z" fill="white"/>
<path fill-rule="evenodd" clip-rule="evenodd" d="M65.7016 4.10888C65.796 3.95994 65.8073 3.80646 65.7346 3.64957C64.0827 3.14365 62.4126 3.08567 60.7265 3.47449C59.95 2.99699 59.1064 2.76279 58.1969 2.77188C58.1048 2.81736 58.0423 2.89012 58.0127 2.9913C58.3208 3.27553 58.5755 3.60523 58.7768 3.98041C58.8632 4.11684 58.8506 4.24076 58.7392 4.35217C57.0487 5.05705 55.5411 6.04843 54.2166 7.32517C53.7073 7.38088 53.2332 7.54118 52.7932 7.80835C52.7171 7.84587 52.708 7.89931 52.7648 7.96752C52.9228 8.07439 53.0343 8.20968 53.0991 8.37567C52.2885 9.11465 51.4619 9.83658 50.6195 10.5403C50.516 10.5972 50.4057 10.6199 50.2875 10.6074C49.4075 10.2186 48.5389 10.2322 47.6829 10.6472C48.3138 10.9326 48.9039 11.2827 49.453 11.6988C49.6031 12.8948 49.6247 14.0977 49.5178 15.3062C49.8327 15.0118 50.0886 14.6661 50.2841 14.2705C50.6081 13.2302 50.9162 12.19 51.2084 11.1497C51.5631 10.8757 51.9542 10.7074 52.384 10.6426C52.6182 10.8632 52.8046 11.1201 52.9444 11.4112C53.2378 10.9348 53.547 10.4698 53.871 10.0162C55.565 9.35113 57.2704 8.72128 58.9848 8.12669C59.111 8.10849 59.2349 8.11986 59.3566 8.1642C59.7226 8.49959 60.0887 8.83725 60.4559 9.17377C60.5162 9.18855 60.5742 9.18514 60.6322 9.16581C60.9835 8.48367 61.27 7.77879 61.4939 7.05118C62.9662 6.1644 64.3692 5.18439 65.7016 4.10888Z" fill="white"/>
<path fill-rule="evenodd" clip-rule="evenodd" d="M105.624 21.9215C105.762 21.9977 105.829 22.1239 105.825 22.299C105.8 22.706 105.727 23.1028 105.606 23.4927C105.334 24.1021 105.012 24.6774 104.639 25.2197C105.504 26.742 106.158 28.353 106.6 30.0504C107.128 30.4596 107.717 30.7518 108.364 30.9269C108.017 31.4567 107.568 31.8819 107.016 32.2014C107.023 33.1018 107.087 33.9988 107.21 34.8913C107.321 35.1505 107.495 35.3563 107.734 35.5075C108.312 35.8463 108.889 36.1828 109.463 36.5171C109.296 36.8991 109.058 37.2356 108.75 37.5278C108.124 37.9666 107.468 38.3486 106.782 38.6726C106.117 40.3484 105.453 42.0242 104.788 43.7C104.615 44.0286 104.348 44.1502 103.985 44.0627C103.772 43.8364 103.622 43.5704 103.535 43.2668C102.802 40.9009 102.454 38.4839 102.492 36.0157C101.13 35.2437 100.023 34.2035 99.1707 32.896C100.309 33.3337 101.493 33.6407 102.726 33.8181C102.695 33.5861 102.693 33.3531 102.719 33.1211C102.929 32.2605 103.085 31.3908 103.186 30.5142C103.08 29.8162 102.944 29.1283 102.776 28.4507C103.051 28.4417 103.277 28.5565 103.455 28.7941C103.684 27.6958 103.721 26.5885 103.565 25.4721C102.493 25.0048 101.67 24.2647 101.094 23.2506C101.12 23.2051 101.145 23.1596 101.172 23.1141C103.022 24.0339 104.506 23.6371 105.621 21.9227L105.624 21.9215Z" fill="white"/>
<path fill-rule="evenodd" clip-rule="evenodd" d="M40.2976 39.1932C40.5716 39.1466 40.7899 39.233 40.9502 39.4547C41.1002 39.7309 41.2162 40.0208 41.298 40.3244C41.5618 42.0752 41.8802 43.8158 42.2553 45.5439C43.3081 46.2022 44.2654 46.9855 45.126 47.8927C45.7217 48.6056 46.1719 49.4025 46.4744 50.2848C46.4459 50.328 46.4164 50.3723 46.3868 50.4155C45.3011 49.6913 44.1119 49.4151 42.8204 49.589C42.7476 49.6618 42.6748 49.7345 42.6032 49.8061C42.5407 50.7952 42.5691 51.7809 42.6908 52.7644C42.8954 54.2833 43.1557 55.7919 43.4741 57.2881C43.9834 57.7542 44.3756 58.3056 44.6485 58.9411C44.4234 59.0264 44.1915 59.0548 43.9527 59.0287C44.1153 59.8495 44.3904 60.6328 44.7792 61.3775C45.226 61.7368 45.6467 62.129 46.0412 62.5519C45.7547 62.6281 45.4648 62.6861 45.1715 62.7259C45.5364 63.3853 45.8843 64.0526 46.2151 64.7268C47.3577 64.8155 48.4889 64.9895 49.6077 65.2487C50.2398 65.4306 50.8491 65.6625 51.4347 65.9444C50.1261 65.9706 48.8209 66.0581 47.5203 66.2059C47.053 66.8346 46.6619 67.5156 46.3459 68.2501C46.0025 69.0232 45.6842 69.8065 45.3886 70.5989C45.2226 68.8288 45.4409 67.1029 46.0412 65.4226C45.2408 64.7666 44.5303 64.0276 43.9095 63.2045C43.7697 63.3989 43.6105 63.5729 43.4309 63.7264C43.2729 63.1863 43.1717 62.6361 43.1262 62.0733C42.2644 61.2115 41.4663 60.2975 40.7341 59.3334C40.5272 59.372 40.3385 59.4732 40.1691 59.6381C39.9531 59.0491 39.8371 58.4409 39.8212 57.8111C37.8396 55.4634 36.8539 52.7371 36.863 49.6333C36.8334 49.6049 36.805 49.5754 36.7755 49.5458C36.3889 49.6538 35.9967 49.755 35.601 49.8505C34.9314 50.1279 34.264 50.403 33.6001 50.677C33.9196 49.3991 34.5142 48.2679 35.3839 47.2845C35.8523 46.8161 36.3162 46.3522 36.7755 45.8929C37.2348 44.2524 37.8157 42.6573 38.5149 41.1077C38.9776 40.3414 39.5722 39.7025 40.2987 39.1943L40.2976 39.1932Z" fill="white"/>
<path fill-rule="evenodd" clip-rule="evenodd" d="M93.542 75.1531C93.575 75.2645 93.642 75.3464 93.7432 75.3975C93.9262 75.3816 94.1082 75.3646 94.2912 75.3486C96.8845 74.5085 99.2322 73.2158 101.332 71.4707C102.936 71.1557 104.391 70.5043 105.7 69.5175C105.964 69.2799 106.198 69.0195 106.404 68.7364C105.586 68.9672 104.775 68.957 103.971 68.7069C103.895 68.6773 103.871 68.6239 103.901 68.5477C105.079 67.0095 105.967 65.3087 106.564 63.4476C107.305 62.928 107.91 62.2845 108.38 61.5171C107.951 61.5751 107.521 61.6046 107.089 61.6058C107.371 60.0994 107.735 58.6123 108.18 57.1434C108.344 56.8706 108.564 56.6489 108.838 56.4761C109.654 56.1271 110.404 55.6723 111.091 55.1141C110.652 54.9413 110.213 54.7696 109.775 54.5968C108.974 53.0449 108.145 51.5078 107.288 49.9867C107.142 50.5415 107.073 51.1088 107.082 51.6897C107.19 53.0733 107.379 54.4467 107.646 55.8099C107.501 56.6864 106.997 57.2378 106.138 57.4652C105.831 57.3015 105.562 57.0866 105.334 56.8194C105.245 57.015 105.209 57.2208 105.224 57.4368C105.294 57.9654 105.319 58.4929 105.296 59.0182C103.474 61.0191 101.711 63.069 100.008 65.17C99.8347 65.3121 99.6369 65.3666 99.4141 65.3337C98.915 65.2041 98.4306 65.0358 97.96 64.8289C97.8588 64.8266 97.7849 64.8744 97.7383 64.9733C97.5336 65.8214 97.5405 66.6729 97.761 67.5268C96.4093 69.4595 95.1802 71.4661 94.0763 73.5478C93.8353 74.0753 93.6579 74.6119 93.5442 75.1565L93.542 75.1531Z" fill="white"/>
<path fill-rule="evenodd" clip-rule="evenodd" d="M48.1183 53.2489C48.7174 53.2864 49.2677 53.4751 49.7713 53.8139C50.699 54.4813 51.6267 55.1475 52.5556 55.8149C54.3223 55.7125 56.0049 56.032 57.6011 56.7721L57.6887 56.8597C57.0395 56.9495 56.4017 57.095 55.7753 57.2951C55.5297 57.4031 55.2978 57.5339 55.0795 57.6862C56.4131 58.6742 57.6023 59.819 58.646 61.123C59.0837 61.2083 59.5191 61.3106 59.9511 61.4277C59.7885 61.6051 59.643 61.7938 59.5157 61.9928C59.9272 62.5692 60.4639 62.9887 61.1255 63.2547C62.1681 62.8489 63.2265 62.8057 64.3009 63.124C63.5994 63.4491 62.9173 63.8107 62.2567 64.212C62.1192 65.0465 62.0896 65.8878 62.1692 66.7348C62.1965 66.8451 62.2397 66.9463 62.3 67.0395C62.242 67.0975 62.184 67.0975 62.126 67.0395C61.2472 66.2107 60.6094 65.225 60.2126 64.0813C59.4043 63.7243 58.5777 63.4207 57.733 63.1683C57.7046 63.4003 57.675 63.6322 57.6455 63.8641C57.2828 63.6174 56.9781 63.3127 56.7325 62.9512C55.0659 62.4248 53.4856 61.7142 51.9917 60.8195C51.388 61.538 51.0981 62.3793 51.1219 63.3423C50.8514 62.8807 50.649 62.3873 50.5126 61.8632C50.3329 60.973 50.2158 60.0737 50.1647 59.1664C49.3438 58.0477 48.706 56.829 48.2513 55.5124C48.025 54.7678 47.9807 54.014 48.1205 53.25L48.1183 53.2489Z" fill="white"/>
<path fill-rule="evenodd" clip-rule="evenodd" d="M121.35 56.5357C121.566 56.8154 121.66 57.1417 121.632 57.5146C121.504 58.2331 121.268 58.9153 120.926 59.5599C120.512 60.3148 120.057 61.0401 119.557 61.7337C118.839 62.5738 118.141 63.4276 117.466 64.2951C117.367 65.706 117.17 67.1021 116.877 68.4846C117.014 68.8518 117.293 69.0314 117.712 69.0212C117.642 69.2952 117.524 69.5487 117.355 69.7818C117.043 70.1092 116.73 70.4366 116.416 70.7641C115.947 72.4501 115.3 74.0633 114.474 75.6027C114.489 75.655 114.515 75.7005 114.553 75.7391C115.259 76.0484 115.964 76.3576 116.67 76.668C116.806 76.7305 116.916 76.826 116.999 76.9522C116.429 77.4013 115.795 77.7367 115.1 77.9572C114.236 78.1846 113.356 78.2994 112.461 78.3017C110.752 80.0662 108.848 81.5646 106.749 82.797C105.588 83.4087 104.366 83.8486 103.085 84.1181C102.85 84.1601 102.618 84.1442 102.39 84.0715C102.348 84.0192 102.323 83.9601 102.315 83.8918C102.572 83.3132 102.886 82.7674 103.254 82.2547C104.877 80.2674 106.466 78.2528 108.025 76.2132C108.088 76.1302 108.094 76.0438 108.043 75.9529C107.486 74.9922 107.222 73.9565 107.25 72.8468C108.126 73.0344 108.998 73.2391 109.869 73.4608C110.252 73.5495 110.578 73.4551 110.848 73.1788C112.284 71.5553 113.55 69.8102 114.647 67.9434C114.59 67.4761 114.607 67.0123 114.698 66.5518C114.831 66.6371 114.955 66.7326 115.071 66.8383C115.536 66.0971 115.91 65.3092 116.191 64.4724C116.107 64.0688 115.973 63.6823 115.79 63.3117C115.314 62.3931 114.839 61.4744 114.364 60.5558C115.641 61.0458 116.894 60.9856 118.126 60.3751C119.554 59.3916 120.628 58.1138 121.351 56.5391L121.35 56.5357Z" fill="#64ADC3"/>
<path fill-rule="evenodd" clip-rule="evenodd" d="M97.8056 54.8892C97.7794 55.3156 97.6783 55.7499 97.5009 56.1944C97.2735 57.0266 97.4918 57.7088 98.1535 58.2386C98.4832 58.4455 98.8311 58.6194 99.1972 58.7604C98.7617 58.8184 98.3274 58.8184 97.892 58.7604C97.477 58.641 97.07 58.525 96.6744 58.4125C96.3401 58.6228 96.0207 58.8548 95.7171 59.1083L96.065 59.4562C95.8706 59.5562 95.6682 59.6426 95.4556 59.7177C95.0327 60.1701 94.5825 60.5908 94.1072 60.9796C94.1436 61.1536 94.2164 61.3275 94.3244 61.5015C94.3062 61.5526 94.2766 61.5958 94.2369 61.6322C93.8856 61.7084 93.5377 61.7948 93.1932 61.8937C92.569 62.278 91.9312 62.6406 91.2798 62.9817C91.2047 63.3262 91.2047 63.6741 91.2798 64.0254C91.0456 64.0402 90.8136 64.0254 90.584 63.9822C90.2577 63.8196 89.9382 63.6593 89.6267 63.5035C87.7838 63.9469 85.9284 64.0345 84.0593 63.765C84.1139 63.5206 84.2299 63.3023 84.4072 63.1124C85.9841 61.9471 87.6951 61.0046 89.5403 60.285C89.6836 59.6926 89.9746 59.1856 90.4101 58.7627C90.493 58.7206 90.5794 58.7058 90.6715 58.7195C90.6715 59.0946 90.7579 59.4425 90.933 59.7631C92.0824 59.2902 93.2421 58.84 94.4131 58.4148C94.6302 58.1396 94.8485 57.8634 95.0657 57.5882C95.1634 57.7485 95.2078 57.9225 95.1964 58.1101C95.6591 58.0521 96.0934 57.9077 96.5016 57.6746C96.7517 56.6537 97.186 55.726 97.8067 54.8904L97.8056 54.8892Z" fill="#64ADC3"/>
<path fill-rule="evenodd" clip-rule="evenodd" d="M96.7139 3.99901C97.1254 4.10474 97.4585 4.33667 97.7143 4.69479C97.9906 5.29394 98.2669 5.88854 98.5409 6.47859C100.266 7.00725 101.889 7.74737 103.412 8.69668C103.819 8.23169 104.138 7.70986 104.37 7.13117C104.69 7.36651 104.879 7.68598 104.935 8.08844C105.089 8.65803 105.176 9.23785 105.196 9.8279C106.603 11.1899 107.661 12.785 108.372 14.6131C108.363 14.695 108.333 14.7677 108.284 14.8303C107.734 14.9985 107.182 14.9985 106.631 14.8303C105.023 14.4005 103.457 13.8491 101.933 13.1772C101.346 13.0612 100.766 12.9453 100.194 12.8293C100.69 12.2961 100.762 11.7015 100.411 11.0455C99.7574 9.62098 98.9752 8.2874 98.0622 7.04363C97.5154 7.24827 96.9492 7.33468 96.366 7.30512C96.4205 6.82876 96.6672 6.48086 97.1049 6.26144C97.1288 5.98745 97.0709 5.72596 96.931 5.47812C96.8298 4.98811 96.7571 4.49584 96.7139 3.99901Z" fill="#64ADC3"/>
<path fill-rule="evenodd" clip-rule="evenodd" d="M112.013 30.0005C112.128 30.0198 112.23 29.9948 112.321 29.9266C113.226 28.319 113.819 26.6012 114.1 24.7753C115.055 23.9329 115.563 22.8801 115.624 21.6159C115.075 22.2469 114.396 22.5379 113.585 22.4902C113.166 21.7466 112.791 20.9758 112.461 20.18C112.339 19.4273 112.582 18.8271 113.188 18.3814C113.055 18.2939 112.909 18.2882 112.753 18.3632C112.608 18.3348 112.479 18.2711 112.369 18.1733C112.287 17.7561 112.233 17.3332 112.203 16.9046C112.55 16.543 112.885 16.1644 113.207 15.7699C113.18 15.7404 113.151 15.7097 113.124 15.679C112.736 15.8916 112.328 15.9473 111.898 15.8461C111.54 15.2151 111.115 14.6319 110.62 14.0953C110.811 15.0275 111.153 15.912 111.644 16.7499C111.826 17.4992 111.613 18.0858 111.006 18.5087C110.052 18.2779 109.927 18.4758 110.633 19.1033C110.976 19.1875 111.171 19.3978 111.216 19.7366C110.766 20.9519 110.453 22.2014 110.278 23.4861C110.284 23.7578 110.332 24.0204 110.42 24.2751C110.004 24.7355 109.522 24.8026 108.975 24.4763C109.108 24.9402 109.368 25.3426 109.753 25.6837C110.157 25.9441 110.536 26.2351 110.892 26.558C111.108 27.5062 111.359 28.4452 111.647 29.3752C111.726 29.614 111.847 29.8232 112.013 30.0005Z" fill="#64ADC3"/>
<path fill-rule="evenodd" clip-rule="evenodd" d="M50.7796 17.8301C50.8353 17.7312 50.9205 17.7084 51.0354 17.7619C52.544 18.8431 54.1937 19.6457 55.9877 20.1687C56.3788 20.3779 56.6983 20.6678 56.945 21.0373C57.3804 21.0248 57.817 21.0111 58.2524 20.9986C58.365 21.0657 58.3718 21.1385 58.2729 21.2146C57.8534 21.3852 57.4827 21.625 57.1621 21.9331C57.0007 22.3743 57.0814 22.7597 57.4043 23.0894C57.8511 23.1292 58.2922 23.1735 58.7288 23.2235C58.6628 23.4009 58.5605 23.5566 58.4241 23.6897C57.9955 23.8818 57.6123 24.1365 57.2747 24.4559C56.2242 26.1022 55.2203 27.7723 54.2619 29.4663C54.3483 27.87 53.6571 26.7422 52.187 26.0828C52.0836 25.9169 51.9801 25.752 51.8767 25.5883C49.9451 27.5017 49.1356 29.8232 49.446 32.5529C48.873 30.3508 49.2288 28.3066 50.5147 26.4194C50.9865 25.8623 51.4412 25.295 51.8801 24.714C51.6265 24.6253 51.4935 24.4491 51.4799 24.1842C51.6368 23.2633 51.7357 22.3356 51.78 21.4022C51.8562 20.0823 51.5231 18.8908 50.7796 17.8278V17.8301Z" fill="#64ADC3"/>
<path fill-rule="evenodd" clip-rule="evenodd" d="M95.0064 65.7373C95.0541 65.743 95.0826 65.7714 95.0939 65.8248C93.6648 67.4676 91.9538 68.7285 89.9608 69.6096C88.4464 72.1005 86.4899 74.1742 84.0887 75.8295C84.0285 75.9023 84.0433 75.9603 84.1319 76.0035C84.5173 76.0978 84.8948 76.2138 85.2631 76.3514C84.8766 76.6606 84.4412 76.8778 83.958 77.004C83.2679 77.1995 82.5721 77.3746 81.8695 77.5258C80.3608 78.5195 78.751 79.3164 77.0411 79.9178C77.0149 80.625 77.1013 81.3208 77.3026 82.0063C77.6527 83.4047 78.0734 84.7826 78.5645 86.139C78.5532 86.231 78.5099 86.3038 78.4338 86.3561C77.4458 85.9195 76.5749 85.3102 75.8234 84.5291C74.7752 83.3649 73.8623 82.103 73.0835 80.7444C72.7368 80.7012 72.3889 80.6864 72.0399 80.7012C72.0717 81.8096 72.1444 82.9124 72.257 84.0073C71.2542 83.1614 70.6596 82.0893 70.4732 80.7887C68.1096 80.4124 66.2394 79.2516 64.8615 77.3087C64.6079 76.9915 64.5943 76.672 64.8183 76.3514C65.1696 76.1581 65.547 76.0569 65.9495 76.0467C68.5973 76.0592 71.2361 75.9137 73.8657 75.6113C76.1884 75.2986 78.4213 74.6756 80.5643 73.7411C81.234 72.9839 81.9593 72.2881 82.7392 71.6526C82.8324 72.1369 83.0064 72.5871 83.261 73.0009C84.6935 73.0362 85.9396 72.5723 87.0015 71.6094C87.7791 70.8465 88.4749 70.02 89.0899 69.1298C88.8808 68.8137 88.7068 68.4806 88.5681 68.1293C89.5004 68.077 90.3996 67.8746 91.2648 67.5199C92.4961 66.8753 93.7433 66.2807 95.0052 65.7361L95.0064 65.7373Z" fill="#64ADC3"/>
<path fill-rule="evenodd" clip-rule="evenodd" d="M79.6809 15.0111C80.3539 15.7307 80.8325 16.572 81.1168 17.5338C81.2975 18.1921 81.4283 18.8595 81.5079 19.5348C81.8853 19.6269 82.2628 19.7281 82.6391 19.8395C83.1097 19.9066 83.5736 19.8781 84.0306 19.7519C84.1648 19.5837 84.266 19.3949 84.3353 19.1869C84.731 19.553 85.1516 19.8872 85.5973 20.1874C86.8365 20.6342 88.0837 21.0548 89.3377 21.4493C89.4252 21.4345 89.5116 21.4209 89.5992 21.4061C90.0846 20.9798 90.5053 20.5012 90.8612 19.9702C91.2318 20.8286 91.4637 21.7267 91.5569 22.6669C93.6932 24.3109 95.6361 26.1663 97.3858 28.2343C97.4677 28.4822 97.4245 28.6993 97.2551 28.8869C96.3615 29.1621 95.4622 29.1621 94.5583 28.8869C93.5294 28.5243 92.529 28.1036 91.5569 27.625C90.3143 28.1275 89.0239 28.4174 87.6858 28.4947C87.3561 28.5027 87.0378 28.4595 86.7285 28.364C87.6915 27.75 88.6044 27.0679 89.4684 26.3198C89.5287 26.247 89.5139 26.1891 89.4253 26.1459C88.1758 25.4046 86.9877 24.5781 85.8588 23.6663C85.2267 23.4923 84.5889 23.3332 83.9454 23.1876C83.917 23.1592 83.8874 23.1297 83.8578 23.1001C83.9738 22.8966 84.0898 22.6942 84.2057 22.4907C83.2235 21.6983 82.1798 20.9877 81.0736 20.359C80.2163 20.558 79.3466 20.7331 78.4632 20.8809C78.0756 20.9559 77.6981 20.9275 77.332 20.7933C78.3723 20.3681 79.1988 19.686 79.8116 18.7492C79.9935 17.4975 79.9503 16.2503 79.6809 15.0088V15.0111Z" fill="#AEDFE6"/>
<path fill-rule="evenodd" clip-rule="evenodd" d="M120.575 38.3286C120.489 38.3207 120.423 38.2797 120.376 38.2047C120.333 37.9216 120.265 37.6442 120.172 37.3725C119.57 36.3868 119.187 35.317 119.023 34.1619C118.519 33.8504 118.052 33.4866 117.627 33.0727C118.465 33.2796 119.034 32.9841 119.333 32.1848C119.553 31.2821 119.717 30.368 119.824 29.4449C119.577 29.2198 119.338 28.9856 119.11 28.7423C119.413 28.8059 119.61 28.6934 119.7 28.4058C119.654 28.0897 119.608 27.7714 119.561 27.453C119.246 27.1802 118.962 26.8789 118.707 26.5492C118.993 26.6959 119.301 26.7811 119.634 26.8039C119.979 26.5003 120.277 26.157 120.526 25.7704C120.476 26.365 120.288 26.9198 119.962 27.4371C120.008 27.7793 120.079 28.117 120.178 28.4478C120.317 28.6445 120.498 28.7059 120.72 28.6331C120.735 28.7093 120.751 28.7866 120.767 28.8628C120.614 29.0765 120.529 29.3119 120.508 29.5677C120.945 30.5659 121.368 31.5697 121.78 32.5793C122.193 32.6464 122.54 32.5179 122.822 32.1916C122.848 32.9204 122.578 33.5195 122.013 33.9913C121.846 34.7565 121.68 35.5227 121.513 36.2879C121.25 36.8791 121.053 37.4907 120.919 38.1263C120.803 38.2058 120.688 38.274 120.573 38.3298L120.575 38.3286Z" fill="#AEDFE6"/>
<path fill-rule="evenodd" clip-rule="evenodd" d="M72.5003 64.0508C72.6026 64.0088 72.7084 63.9917 72.8187 64.0008C72.8437 64.6341 72.9789 65.2457 73.2245 65.8381C73.3371 65.9859 73.4849 66.0677 73.6702 66.0836C74.3773 66.0586 75.0834 66.0063 75.7882 65.929C76.21 65.5356 76.6182 65.1264 77.0138 64.7012C77.1025 64.6352 77.2014 64.592 77.3094 64.5738C77.3776 64.8069 77.4697 65.0309 77.5857 65.2423C77.8142 65.1627 78.0473 65.1093 78.2871 65.0809C78.5611 65.1673 78.8169 65.2878 79.0568 65.4413C80.1528 65.2742 81.2533 65.1491 82.3595 65.0695C82.8631 65.0979 83.3577 65.1775 83.842 65.306C83.9591 65.3276 83.9739 65.3788 83.8864 65.4595C83.1031 65.7744 82.3004 66.0211 81.4796 66.1962C81.2658 66.2519 81.2067 66.3792 81.2999 66.5805C80.8781 66.6862 80.4518 66.6976 80.0209 66.6168C78.6521 67.4093 77.2332 68.1107 75.7632 68.7201C74.8162 69.0009 73.8623 69.2499 72.9005 69.4636C73.004 70.0514 73.1199 70.6426 73.2461 71.2349C73.5156 71.9182 73.8441 72.5719 74.2284 73.1972C74.3319 73.4519 74.2659 73.5133 74.0317 73.3791C73.361 72.9425 72.7754 72.4048 72.2763 71.7659C71.6874 70.9575 71.1656 70.1105 70.7097 69.2237C69.1305 68.9338 67.6799 68.3267 66.3576 67.4036C66.012 67.1523 65.7164 66.8488 65.4709 66.4952C65.439 66.3769 65.464 66.2724 65.547 66.1825C66.4065 65.921 67.2876 65.8051 68.1915 65.8346C69.0305 65.8471 69.8684 65.8688 70.7051 65.8983C71.3316 65.3094 71.9296 64.6921 72.4992 64.0486L72.5003 64.0508Z" fill="#AEDFE6"/>
<path fill-rule="evenodd" clip-rule="evenodd" d="M69.8183 0C70.6346 0.3081 71.2872 0.829937 71.7761 1.56551C72.0717 1.94865 72.332 2.35452 72.5594 2.78313C72.6367 2.83316 72.7242 2.86272 72.8209 2.87067C73.7122 2.69559 74.5967 2.49209 75.4744 2.2613C75.5028 2.17375 75.5324 2.08735 75.5619 1.99981C75.5062 1.51549 75.4039 1.05163 75.2573 0.608242C76.0827 0.910657 76.8216 1.35973 77.4754 1.95661C78.3883 1.97934 79.3024 1.9657 80.2153 1.9134C81.1328 1.92364 82.0457 1.98162 82.9552 2.08735C83.0882 2.08508 83.1894 2.02709 83.2599 1.9134C83.5737 1.17897 84.0819 0.627569 84.7822 0.26035C85.2176 0.430885 85.4928 0.750355 85.6087 1.21762C85.7668 1.67465 85.8964 2.13851 85.9999 2.60919C88.3146 3.51984 90.519 4.63628 92.612 5.9585C92.7928 6.08924 92.9088 6.26319 92.9599 6.48033C92.5995 6.95556 92.1357 7.30345 91.5684 7.52401C90.6122 7.86053 89.6266 8.0197 88.6102 8.00264C87.911 7.96171 87.2152 7.91851 86.5217 7.8719C85.5724 8.99743 84.3979 9.76598 82.9984 10.1775C82.8972 10.1628 82.7949 10.1491 82.6937 10.1343C83.1849 9.22595 83.5908 8.28346 83.9114 7.30686C82.48 6.94192 81.0589 6.53604 79.648 6.08924C79.2319 6.25409 78.826 6.44168 78.4303 6.65428C78.1438 6.7259 77.8539 6.76911 77.5606 6.78502C77.5254 6.37688 77.4674 5.971 77.3867 5.5674C75.7461 5.09786 74.1226 4.57603 72.5151 4.00189C71.5407 4.47712 70.5255 4.83865 69.4704 5.0899C69.1225 5.14789 68.7746 5.14789 68.4268 5.0899C69.9627 3.68811 70.4266 1.99185 69.8183 0Z" fill="#AEDFE6"/>
<path fill-rule="evenodd" clip-rule="evenodd" d="M68.1433 10.1785C69.1052 10.1705 69.9954 10.4536 70.8139 11.0278C72.1123 10.988 73.4072 10.88 74.6976 10.7038C75.8299 10.6503 76.9634 10.6503 78.0958 10.7038C78.2527 10.7697 78.4141 10.8095 78.5812 10.8254C78.5744 11.1903 78.4528 11.5144 78.2174 11.7963C76.7463 13.2879 75.0205 14.3941 73.0388 15.1138C72.6773 15.946 72.2726 16.7543 71.8246 17.5411C71.5847 17.8617 71.3153 18.1584 71.0152 18.4313C70.9742 17.5149 70.9617 16.5974 70.9742 15.68C69.6054 15.9233 68.2298 16.1256 66.8473 16.2871C66.4653 16.6463 66.0469 16.9567 65.5933 17.2182C65.5001 16.984 65.4603 16.7418 65.4716 16.4894C64.985 16.5133 64.4996 16.5542 64.0153 16.6111C63.8481 16.934 63.6321 17.2171 63.3684 17.4604C63.3138 17.2284 63.2058 17.0261 63.0443 16.8533C62.7169 16.8112 62.3929 16.8385 62.0734 16.934C61.9666 17.5752 61.8188 18.2084 61.6289 18.836C61.0809 19.8183 60.8115 19.7103 60.8194 18.512C60.758 18.2937 60.6625 18.0913 60.5363 17.9049C59.3096 17.3887 58.042 17.0113 56.7334 16.7725C57.2075 16.4883 57.7202 16.2996 58.2705 16.2064C59.3426 15.9972 60.4215 15.9562 61.5073 16.0847C62.1314 16.0392 62.6305 15.7698 63.0045 15.2752C63.0455 14.9251 63.058 14.5749 63.0455 14.2236C63.4218 14.318 63.8004 14.3862 64.1778 14.426C65.5262 13.6972 66.8757 12.9696 68.2241 12.2408C68.4196 12.0408 68.5003 11.7975 68.4674 11.5121C68.4492 11.1994 68.4082 10.8891 68.3457 10.581C68.315 10.4195 68.2479 10.2854 68.1433 10.1762V10.1785Z" fill="#AEDFE6"/>
<path fill-rule="evenodd" clip-rule="evenodd" d="M44.4663 15.8012C44.6994 15.7728 44.9006 15.833 45.0689 15.982C45.469 17.319 45.5338 18.6719 45.2644 20.0419C45.0632 21.0025 44.8301 21.9541 44.5652 22.8977C44.9086 24.3337 44.9711 25.7809 44.7517 27.2418C44.3413 26.6791 43.8853 26.1504 43.3828 25.6581C42.595 26.836 41.8276 28.0274 41.0806 29.2337C41.0965 29.826 41.1181 30.4206 41.1454 31.0198C41.1113 31.2346 41.0772 31.4495 41.0442 31.6655C40.7612 31.4097 40.4576 31.1835 40.1336 30.9879C39.4946 31.7883 38.8739 32.6069 38.2725 33.4425C38.2213 34.1974 38.1701 34.9523 38.1201 35.7083C38.0985 35.8243 38.0553 35.9312 37.9882 36.029C37.762 35.6822 37.5153 35.3502 37.2493 35.033C36.5319 36.1324 35.7952 37.217 35.038 38.2868C34.9766 38.5017 34.9698 38.7166 35.0175 38.9349C35.2654 39.6454 35.5132 40.356 35.7611 41.0666C35.8043 41.261 35.8259 41.4508 35.8236 41.6361C35.4257 40.9188 34.8322 40.4674 34.0421 40.2821C33.6794 40.323 33.3247 40.4072 32.9802 40.5322C32.3867 40.8073 31.7842 41.0313 31.1748 41.2053C31.8581 40.223 32.721 39.4397 33.7624 38.8553C34.0057 38.6791 34.1887 38.4551 34.3104 38.1834C34.7958 37.0272 35.3052 35.8812 35.8384 34.7454C35.3279 34.6601 34.8152 34.6294 34.3001 34.6556C34.8231 33.7449 35.586 33.1344 36.5876 32.8229C36.7502 32.0555 36.923 31.2915 37.106 30.5286C37.081 30.4604 37.056 30.3922 37.031 30.324C36.9014 30.3854 36.7661 30.4081 36.624 30.3922C36.7286 29.8431 36.9991 29.3917 37.4368 29.0393C37.6313 27.0247 38.1383 25.0954 38.958 23.2491C37.9087 22.9228 36.8354 22.6999 35.736 22.5794C36.508 21.7574 37.4448 21.206 38.5453 20.9252C39.0069 20.8229 39.4696 20.7297 39.9323 20.6444C40.7873 19.4234 41.7025 18.249 42.6791 17.1234C43.2191 16.5902 43.8149 16.1502 44.464 15.8012H44.4663Z" fill="#AEDFE6"/>
<path fill-rule="evenodd" clip-rule="evenodd" d="M113.369 32.1131C113.409 32.0005 113.466 31.9948 113.54 32.0983C114.823 33.6104 115.703 35.3396 116.177 37.2871C116.872 39.2699 117.031 41.2901 116.655 43.3491C116.848 43.6299 117.084 43.8675 117.361 44.0619C117.482 44.4064 117.437 44.7247 117.228 45.0192C118.296 45.5876 119.286 46.2766 120.199 47.0849C120.908 47.841 121.618 48.5959 122.328 49.3519C121.58 49.4849 120.852 49.6907 120.146 49.9692C118.524 50.6593 116.926 51.3983 115.351 52.1862C115.044 52.6137 114.737 53.0411 114.43 53.4686C114.265 53.6244 114.074 53.7403 113.858 53.8188C113.825 53.7642 113.791 53.7096 113.758 53.6551C113.867 53.3902 113.946 53.1253 113.991 52.8615C113.453 52.3385 112.821 52.1498 112.095 52.2942C111.899 52.5602 111.738 52.8467 111.609 53.1525C111.445 52.9183 111.35 52.6546 111.326 52.3601C111.415 51.6564 111.398 50.9561 111.275 50.2591C110.694 48.4788 110.028 46.7313 109.278 45.0158C109.093 44.4666 108.973 43.9039 108.917 43.3275C109.854 43.5389 110.79 43.7595 111.724 43.9891C112.643 44.2006 113.561 44.2222 114.48 44.0528C114.567 43.8709 114.698 43.7311 114.873 43.6321C115.265 43.5685 115.626 43.4366 115.957 43.2388C116.263 41.5755 116.221 39.9168 115.831 38.2637C115.399 36.0456 114.578 33.9958 113.368 32.1142L113.369 32.1131Z" fill="#AEDFE6"/>
<path fill-rule="evenodd" clip-rule="evenodd" d="M79.0078 91.0037C76.7477 89.9828 74.4682 88.9755 72.1716 87.9819C68.1402 86.0753 64.4691 83.6196 61.1585 80.6159C60.1762 78.8776 59.6032 77.0153 59.4384 75.0303C59.3542 73.4898 59.7999 72.1619 60.7765 71.05C60.1785 70.8977 59.568 70.8101 58.9449 70.7862C57.1361 70.9625 55.325 71.1114 53.514 71.2319C53.149 71.2114 52.7886 71.166 52.4328 71.0943C51.4982 70.5066 50.4887 70.1541 49.4029 70.0382C49.2608 70.0211 49.1585 70.0768 49.0948 70.2053C49.5575 70.4975 49.9964 70.8237 50.4125 71.1841C50.4159 71.6628 50.2488 72.0709 49.9111 72.4086C49.4404 72.1585 48.9982 71.864 48.5843 71.5264C48.4525 71.4627 48.3581 71.5002 48.3013 71.6378C48.3217 71.8481 48.3956 72.0368 48.523 72.2051C49.1312 72.9634 49.7395 73.7217 50.3477 74.48C50.716 74.9484 50.9809 75.4668 51.1435 76.0364C51.33 76.9869 51.4255 77.9464 51.43 78.9139C51.3413 80.3157 51.2299 81.6982 51.0924 83.0636C52.2622 82.61 53.4423 82.1643 54.6327 81.7244C55.7855 81.4356 56.9497 81.3844 58.1229 81.572C58.3105 81.5993 58.4447 81.7028 58.5243 81.8824C58.5925 82.7658 58.6891 83.6469 58.8119 84.5257C58.8597 84.5689 58.9085 84.6121 58.9563 84.6564C59.2701 83.8595 59.444 83.0284 59.4747 82.1643C59.5077 82.0893 59.5611 82.0677 59.6373 82.1007C59.8863 82.2996 60.1682 82.4224 60.4832 82.4702C60.4752 82.1746 60.4377 81.8778 60.3683 81.5811C60.4286 81.3856 60.5536 81.306 60.7412 81.3412C65.6129 85.7649 71.2064 88.9153 77.523 90.7934C78.013 90.9162 78.5076 90.9867 79.0078 91.006V91.0037Z" fill="#AEDFE6"/>
</svg>
