<svg width="368" height="93" viewBox="0 0 368 93" fill="none" xmlns="http://www.w3.org/2000/svg">
<path fill-rule="evenodd" clip-rule="evenodd" d="M75.3964 46.7319C75.4399 47.5042 75.0916 48.0701 74.3516 48.4312C74.1404 49.3938 73.9759 50.366 73.8583 51.3479C73.7873 51.7171 73.6825 52.075 73.5455 52.4232C73.9276 52.4732 74.2887 52.4877 74.6305 52.4652C74.2355 53.0923 73.6922 53.5437 73.0021 53.8162C72.5072 54.9545 71.7301 55.8299 70.6708 56.4442C70.566 56.3878 70.4789 56.312 70.408 56.2169C70.3209 55.1012 70.5612 54.0597 71.1271 53.0907C70.8304 52.5764 70.7256 52.0282 70.8095 51.4478C71.0932 51.6913 71.3963 51.8106 71.7204 51.8089C72.3492 50.6481 73.0441 49.5324 73.8067 48.4651C73.3955 48.0475 73.215 47.551 73.2666 46.977C73.668 47.3865 74.1517 47.5332 74.7176 47.4139C75.04 47.2737 75.2658 47.0463 75.3964 46.7336V46.7319Z" fill="#579AC3"/>
<path fill-rule="evenodd" clip-rule="evenodd" d="M59.6381 10.5641C59.967 10.8737 60.1911 11.2542 60.3136 11.7056C60.3974 12.2215 60.5184 12.7229 60.6764 13.2115C62.4789 13.8064 64.2782 14.4126 66.0759 15.0285C66.3129 14.7383 66.5724 14.4626 66.8546 14.1982C67.3302 14.7351 67.643 15.359 67.7897 16.0668C68.9022 16.9874 69.9743 17.9564 71.0078 18.9737C71.2416 19.2672 71.4495 19.5783 71.6301 19.9088C71.7559 20.2555 71.635 20.4457 71.2674 20.4796C69.7712 20.6456 68.3508 20.3861 67.011 19.7008C66.071 20.0588 65.102 20.1797 64.1041 20.0636C64.6425 19.638 65.1617 19.1881 65.6615 18.7141C64.8683 18.0402 64.0379 17.4179 63.1689 16.8455C62.6369 16.6569 62.1177 16.4489 61.6115 16.2232C61.7501 16.0845 61.8888 15.9459 62.0275 15.8072C61.4003 15.1462 60.8118 14.4529 60.262 13.7306C59.7961 13.7193 59.3301 13.7371 58.861 13.7822C58.445 13.7967 58.0468 13.729 57.6663 13.5742C59.0238 13.0422 59.6816 12.0377 59.6397 10.5625L59.6381 10.5641Z" fill="#579AC3"/>
<path fill-rule="evenodd" clip-rule="evenodd" d="M0.778766 58.7766C0.877114 58.7347 0.972238 58.7428 1.06575 58.7976C1.27534 59.0797 1.50912 59.3425 1.76547 59.5827C2.98435 60.3067 4.0162 61.2482 4.85781 62.4074C5.58494 62.4558 6.29918 62.5815 6.9989 62.7879C5.97027 63.0442 5.52367 63.6924 5.65749 64.7323C5.93642 65.84 6.28467 66.925 6.70063 67.9891C7.09886 68.0907 7.49064 68.2083 7.8792 68.3406C7.51322 68.4454 7.36489 68.6808 7.43099 69.0451C7.66316 69.3628 7.89532 69.6804 8.1291 69.9996C8.62729 70.1141 9.10936 70.2785 9.57692 70.4897C9.18353 70.4946 8.79819 70.58 8.42415 70.7461C8.22261 71.2733 8.09847 71.8182 8.0501 72.3809C7.76312 71.707 7.64703 70.996 7.70346 70.2479C7.45679 69.9029 7.18592 69.5788 6.88765 69.2757C6.62324 69.1419 6.39269 69.179 6.19277 69.3853C6.1315 69.3112 6.07023 69.237 6.00897 69.1628C6.0525 68.842 6.00897 68.5373 5.88482 68.2487C4.83685 67.4151 3.80016 66.5687 2.77153 65.711C2.28463 65.8754 1.98313 66.214 1.86382 66.7315C1.41722 65.956 1.36402 65.1499 1.70743 64.3131C1.44786 63.3861 1.18828 62.459 0.928707 61.532C0.87389 60.7403 0.736847 59.9616 0.517578 59.1958C0.596579 59.0426 0.683642 58.9024 0.775541 58.7766H0.778766Z" fill="#579AC3"/>
<path fill-rule="evenodd" clip-rule="evenodd" d="M15.8005 32.8194C15.8263 33.6514 16.1471 34.3543 16.7646 34.9283C17.6852 35.7102 18.6655 36.4116 19.7022 37.0371C19.7393 37.1274 19.7763 37.2193 19.8134 37.3096C18.8009 37.5224 17.8029 37.7997 16.8178 38.1399C16.5018 38.2689 16.2277 38.4575 15.9939 38.7042C16.6163 39.4362 16.4422 39.7812 15.47 39.7393C15.2523 39.9102 15.1185 40.1391 15.0701 40.4277C15.0508 41.5998 15.391 42.6656 16.0907 43.62C16.5695 44.1714 17.05 44.7228 17.5288 45.2742C15.6925 44.0634 14.7203 42.3673 14.6106 40.1859C14.3607 39.9763 14.1334 39.7393 13.9286 39.4765C13.9609 39.1863 13.9399 38.9025 13.8674 38.6236C13.0032 37.487 11.8972 36.6776 10.5493 36.1988C10.588 35.9908 10.7073 35.8505 10.9056 35.7796C12.1164 35.3507 13.2869 34.8332 14.4188 34.2237C14.7057 34.0496 14.9428 33.8206 15.1282 33.5417C15.0604 32.9774 15.2846 32.7372 15.8005 32.8194Z" fill="#579AC3"/>
<path fill-rule="evenodd" clip-rule="evenodd" d="M67.4526 81.9163C67.5187 81.905 67.5767 81.9195 67.6299 81.9598C67.1511 82.6096 66.8561 83.3303 66.7464 84.1251C66.7464 84.3976 66.7916 84.6636 66.8786 84.92C67.0721 85.2827 67.2494 85.6374 67.4091 85.9808C67.0592 85.8841 66.7206 85.7503 66.3933 85.5826C66.0257 85.3456 65.671 85.0957 65.3325 84.8313C64.5844 85.065 63.8766 85.3746 63.2107 85.76C63.2542 85.9357 63.3429 86.0824 63.4751 86.2017C62.9737 86.2307 62.4739 86.2614 61.9725 86.2904C60.6037 86.9498 59.1591 87.3174 57.6419 87.3948C57.8967 88.0204 58.2788 88.5653 58.7915 89.0296C57.5629 88.9458 56.5021 88.475 55.6105 87.6157C54.4529 87.6689 53.3339 87.4915 52.2521 87.0852C52.0248 87.0159 51.8474 86.8837 51.7217 86.687C52.0087 86.1791 52.4214 85.8099 52.9583 85.5826C53.9805 85.0715 55.0413 84.6588 56.1393 84.346C56.4747 83.5995 56.9454 82.9514 57.5533 82.4016L57.8177 82.2694C57.9757 82.8949 58.2417 83.4689 58.6125 83.9929C60.0571 84.0429 61.5001 84.0735 62.9431 84.0816C63.1994 83.7817 63.4929 83.5318 63.8266 83.3302C63.8943 83.5656 63.9524 83.8011 64.0039 84.0381C64.507 84.1461 65.0084 84.1316 65.5066 83.9945C66.0209 83.1706 66.669 82.479 67.451 81.9179L67.4526 81.9163Z" fill="#579AC3"/>
<path fill-rule="evenodd" clip-rule="evenodd" d="M63.3511 76.3424C63.3833 76.4553 63.4526 76.5391 63.5558 76.5907C63.7412 76.5746 63.9267 76.5568 64.1121 76.5407C66.7465 75.6878 69.1311 74.3738 71.2641 72.602C72.8925 72.2811 74.3725 71.6201 75.7011 70.6173C75.9687 70.377 76.2073 70.111 76.4153 69.824C75.585 70.0578 74.7611 70.0481 73.9437 69.7934C73.8663 69.7627 73.8421 69.7096 73.8727 69.6306C75.069 68.0683 75.9703 66.3399 76.5781 64.4487C77.3311 63.9215 77.9453 63.2669 78.4226 62.4866C77.9873 62.5446 77.5503 62.5753 77.1118 62.5769C77.3988 61.0468 77.768 59.5361 78.2194 58.0432C78.3871 57.7659 78.6096 57.5402 78.8885 57.366C79.7172 57.0113 80.4798 56.5502 81.1779 55.9827C80.7313 55.807 80.2863 55.6328 79.8397 55.4571C79.0272 53.8803 78.1856 52.3196 77.3149 50.7734C77.1666 51.3377 77.0973 51.9133 77.1053 52.5034C77.215 53.9093 77.4068 55.3039 77.6777 56.6889C77.5294 57.5788 77.0183 58.1399 76.1444 58.3705C75.8316 58.2044 75.5608 57.9851 75.3286 57.7142C75.2383 57.9126 75.2013 58.1222 75.2174 58.3414C75.2899 58.8783 75.3141 59.4136 75.2915 59.9489C73.4407 61.9803 71.6494 64.0634 69.9178 66.198C69.7421 66.3432 69.5422 66.398 69.3149 66.3641C68.8086 66.2319 68.3153 66.061 67.838 65.8514C67.7348 65.8482 67.6607 65.8981 67.6123 65.9981C67.4043 66.859 67.4124 67.7248 67.6349 68.5922C66.2612 70.556 65.0133 72.5939 63.8912 74.7092C63.6461 75.2461 63.4655 75.791 63.3511 76.3424Z" fill="#579AC3"/>
<path fill-rule="evenodd" clip-rule="evenodd" d="M35.0702 4.17431C35.1669 4.02276 35.1782 3.86798 35.104 3.70836C33.4256 3.19566 31.7295 3.13602 30.0173 3.52941C29.2289 3.04412 28.3728 2.80708 27.4473 2.81514C27.3538 2.8619 27.291 2.93606 27.2603 3.03763C27.5731 3.32623 27.8311 3.66 28.0358 4.0421C28.1229 4.18076 28.1116 4.30648 27.9987 4.41934C26.2817 5.13519 24.75 6.14127 23.4054 7.43915C22.8878 7.49558 22.4058 7.65839 21.9592 7.92925C21.8818 7.96795 21.8721 8.02117 21.9302 8.09211C22.0914 8.20014 22.2042 8.33877 22.2703 8.50645C21.4465 9.25777 20.6081 9.98976 19.752 10.7056C19.6472 10.7636 19.5343 10.7862 19.415 10.7733C18.5202 10.3783 17.6399 10.3912 16.7693 10.8136C17.411 11.1038 18.0091 11.4586 18.567 11.8826C18.7201 13.0982 18.7411 14.3187 18.6331 15.5472C18.9539 15.2474 19.2135 14.8975 19.4118 14.4944C19.7407 13.4384 20.0535 12.3808 20.3501 11.3247C20.7097 11.0474 21.1079 10.8749 21.5448 10.8088C21.7818 11.0329 21.9721 11.2941 22.114 11.5891C22.4122 11.1055 22.725 10.6331 23.0555 10.172C24.7774 9.49641 26.509 8.85634 28.2503 8.25335C28.3792 8.234 28.505 8.24687 28.6275 8.2904C28.9983 8.6322 29.3708 8.97403 29.7448 9.31583C29.8061 9.33034 29.8657 9.32872 29.9238 9.30776C30.2801 8.61449 30.5719 7.89864 30.7993 7.16022C32.2938 6.25896 33.7191 5.26418 35.0734 4.17106L35.0702 4.17431Z" fill="#579AC3"/>
<path fill-rule="evenodd" clip-rule="evenodd" d="M75.6237 22.269C75.764 22.3464 75.8333 22.4754 75.8285 22.6528C75.8027 23.0655 75.7285 23.4702 75.606 23.8652C75.3303 24.4843 75.003 25.0696 74.6241 25.6193C75.5028 27.1655 76.167 28.802 76.6152 30.5271C77.1521 30.9431 77.7487 31.2397 78.4065 31.4171C78.055 31.9556 77.5987 32.3876 77.0377 32.7117C77.0441 33.6275 77.1102 34.5384 77.2344 35.4445C77.3472 35.7073 77.5246 35.9169 77.7664 36.0701C78.3533 36.4135 78.9401 36.7553 79.5238 37.0955C79.3545 37.4824 79.1126 37.8258 78.7999 38.1225C78.163 38.5691 77.4972 38.956 76.8007 39.2849C76.1251 40.9875 75.4512 42.69 74.7756 44.3926C74.5999 44.7263 74.329 44.8489 73.9598 44.7618C73.7422 44.5312 73.5906 44.262 73.5036 43.9525C72.7587 41.5486 72.4056 39.0931 72.4427 36.586C71.0594 35.8008 69.9356 34.7448 69.0698 33.4179C70.2258 33.8629 71.4302 34.174 72.6813 34.3546C72.6491 34.1192 72.6475 33.8822 72.6749 33.6468C72.8893 32.773 73.0473 31.8895 73.1489 30.9995C73.0408 30.2901 72.9022 29.592 72.7329 28.9035C73.0118 28.8938 73.2424 29.0099 73.4229 29.2534C73.6551 28.1377 73.6938 27.0124 73.5342 25.8789C72.4459 25.4049 71.6091 24.652 71.0239 23.6233C71.0497 23.5766 71.0771 23.5314 71.1029 23.4847C72.9828 24.4198 74.4903 24.0151 75.6237 22.2739V22.269Z" fill="#579AC3"/>
<path fill-rule="evenodd" clip-rule="evenodd" d="M9.26252 39.8155C9.54144 39.7672 9.76232 39.8559 9.92516 40.08C10.0783 40.3605 10.196 40.6555 10.2782 40.9635C10.5459 42.7418 10.8699 44.5105 11.2504 46.2662C12.3194 46.9353 13.2916 47.7302 14.167 48.6524C14.7716 49.3763 15.2295 50.1873 15.5375 51.0821C15.5084 51.1256 15.4778 51.1708 15.4488 51.2143C14.346 50.4775 13.1384 50.1986 11.826 50.3743C11.7519 50.4485 11.6793 50.521 11.6051 50.5952C11.5407 51.5996 11.5713 52.6009 11.6938 53.6005C11.9018 55.1434 12.1662 56.675 12.4887 58.1954C13.0062 58.6694 13.4044 59.2289 13.6817 59.8738C13.4528 59.9609 13.2174 59.9899 12.974 59.9625C13.1384 60.796 13.4189 61.5925 13.814 62.3486C14.267 62.7146 14.6943 63.1112 15.0957 63.5417C14.8055 63.6191 14.5105 63.6788 14.2122 63.7191C14.583 64.3882 14.9361 65.0669 15.2731 65.7521C16.4339 65.8424 17.5834 66.0198 18.7201 66.2826C19.3618 66.4664 19.9809 66.7034 20.5758 66.9904C19.2457 67.0178 17.9204 67.1064 16.5983 67.2548C16.1243 67.8932 15.7261 68.5849 15.4053 69.3314C15.057 70.1165 14.7329 70.9114 14.4331 71.7175C14.2654 69.9199 14.4863 68.1657 15.0957 66.4599C14.2815 65.794 13.5608 65.0427 12.9304 64.2059C12.7885 64.4026 12.6257 64.58 12.4451 64.7364C12.2855 64.1882 12.1823 63.6288 12.1356 63.058C11.2601 62.1826 10.4491 61.2539 9.70589 60.2736C9.49468 60.3123 9.30444 60.4155 9.13192 60.5832C8.91265 59.9851 8.79496 59.3676 8.77884 58.7275C6.76511 56.3429 5.76389 53.573 5.77357 50.4194C5.74454 50.3904 5.71391 50.3598 5.68489 50.3308C5.2915 50.4404 4.89488 50.5436 4.49181 50.6403C3.81143 50.9225 3.13428 51.2014 2.45874 51.4803C2.78442 50.1825 3.38741 49.0329 4.27093 48.0333C4.74655 47.5577 5.21895 47.0853 5.68489 46.6193C6.15245 44.9522 6.74093 43.3319 7.45194 41.7584C7.92111 40.9796 8.52571 40.3315 9.26413 39.8139L9.26252 39.8155Z" fill="#579AC3"/>
<path fill-rule="evenodd" clip-rule="evenodd" d="M17.2079 54.0923C17.8157 54.131 18.3751 54.3228 18.8862 54.6662C19.8294 55.3434 20.771 56.0205 21.7141 56.6993C23.5086 56.5961 25.2176 56.9202 26.8395 57.6715L26.9282 57.7602C26.2688 57.8521 25.6207 57.9988 24.9838 58.2019C24.7339 58.3116 24.4985 58.4454 24.276 58.6002C25.6303 59.603 26.8379 60.7671 27.8988 62.0908C28.3438 62.1778 28.7856 62.281 29.2241 62.4003C29.058 62.5809 28.9113 62.7711 28.7823 62.9742C29.1999 63.5595 29.7449 63.9868 30.4172 64.256C31.4764 63.8433 32.5518 63.7997 33.6433 64.1238C32.9307 64.4543 32.239 64.8219 31.5667 65.2282C31.4265 66.0763 31.3974 66.9308 31.478 67.7917C31.5055 67.9029 31.549 68.0062 31.6103 68.1013C31.5506 68.1609 31.4926 68.1609 31.4329 68.1013C30.5397 67.2597 29.8916 66.2584 29.4885 65.096C28.6663 64.7332 27.8279 64.4253 26.9701 64.1673C26.9411 64.4027 26.9105 64.6381 26.8815 64.8751C26.5139 64.6252 26.2043 64.3157 25.9528 63.9465C24.2599 63.4112 22.6541 62.6905 21.137 61.7812C20.5227 62.5115 20.2292 63.366 20.2534 64.3447C19.9793 63.8755 19.773 63.3741 19.6343 62.842C19.4505 61.9375 19.3328 61.0234 19.2812 60.1028C18.4477 58.9662 17.7996 57.7279 17.3368 56.3914C17.1063 55.6352 17.0627 54.8694 17.2046 54.0939L17.2079 54.0923Z" fill="#579AC3"/>
<path fill-rule="evenodd" clip-rule="evenodd" d="M67.6815 55.7593C67.6541 56.1914 67.5526 56.6331 67.372 57.0845C67.1414 57.9294 67.3623 58.6226 68.0346 59.1611C68.37 59.3707 68.7231 59.5481 69.0955 59.6916C68.6537 59.7512 68.212 59.7512 67.7702 59.6916C67.3478 59.5707 66.9351 59.453 66.5336 59.3385C66.1934 59.5529 65.8693 59.7883 65.5614 60.0463L65.9145 60.3994C65.7178 60.5009 65.5114 60.5896 65.2954 60.6638C64.8649 61.1233 64.4086 61.5505 63.925 61.9455C63.962 62.1229 64.0362 62.2986 64.1458 62.476C64.1281 62.5276 64.0975 62.5727 64.0572 62.6082C63.7008 62.6856 63.3478 62.7742 62.9963 62.8726C62.3627 63.2628 61.7145 63.632 61.0519 63.977C60.9745 64.3269 60.9745 64.6815 61.0519 65.0378C60.8149 65.0524 60.5795 65.0379 60.3441 64.9944C60.012 64.8283 59.6879 64.6671 59.3719 64.5091C57.5001 64.9605 55.6153 65.0476 53.7161 64.7735C53.7709 64.5252 53.8886 64.3043 54.0692 64.1108C55.6701 62.9258 57.4082 61.9697 59.2832 61.2394C59.4299 60.638 59.7234 60.1221 60.1668 59.6932C60.2506 59.6513 60.3393 59.6352 60.4312 59.6497C60.4312 60.0302 60.5182 60.3832 60.6956 60.7105C61.8629 60.2301 63.0414 59.7738 64.2313 59.3401C64.4522 59.0596 64.673 58.7806 64.8939 58.5001C64.9939 58.6629 65.0374 58.8403 65.0261 59.0306C65.4953 58.9725 65.9387 58.8242 66.3514 58.5888C66.6045 57.5521 67.0463 56.6089 67.6767 55.7609L67.6815 55.7593Z" fill="#1D4077"/>
<path fill-rule="evenodd" clip-rule="evenodd" d="M91.5997 57.4288C91.819 57.7126 91.9141 58.0431 91.8867 58.422C91.7561 59.1523 91.5175 59.844 91.1692 60.4986C90.7484 61.2661 90.2857 62.0029 89.7795 62.7074C89.0491 63.5603 88.3413 64.4277 87.6545 65.3096C87.5545 66.7429 87.3546 68.1617 87.0563 69.5644C87.1966 69.9384 87.4788 70.119 87.9044 70.1094C87.8335 70.3867 87.7125 70.6446 87.5416 70.8816C87.224 71.2137 86.9064 71.5475 86.5888 71.8796C86.1115 73.5918 85.4554 75.2315 84.617 76.7954C84.6315 76.8486 84.6589 76.8938 84.696 76.9341C85.4134 77.2485 86.1293 77.5629 86.8467 77.8773C86.9854 77.9417 87.0966 78.0368 87.1821 78.1658C86.6017 78.6221 85.96 78.9623 85.2522 79.1864C84.3735 79.4169 83.4803 79.5347 82.571 79.5363C80.8346 81.3291 78.9015 82.8511 76.7701 84.1022C75.5899 84.7246 74.35 85.1712 73.0473 85.4436C72.8087 85.4872 72.5733 85.471 72.3412 85.3953C72.2992 85.3421 72.2734 85.2824 72.2654 85.2131C72.5266 84.6246 72.8458 84.0716 73.2198 83.5508C74.8676 81.5322 76.4831 79.4863 78.0647 77.4129C78.1292 77.3291 78.1356 77.2404 78.0824 77.1485C77.5165 76.1731 77.2473 75.1203 77.2779 73.9933C78.1663 74.1836 79.053 74.3915 79.9366 74.6172C80.3251 74.7075 80.6572 74.6124 80.9297 74.3302C82.3888 72.6809 83.6754 70.9074 84.7895 69.0114C84.7314 68.5374 84.7492 68.0666 84.8411 67.5974C84.9749 67.6845 85.1023 67.7812 85.22 67.8892C85.6924 67.1363 86.0712 66.335 86.3566 65.487C86.2712 65.0775 86.1357 64.684 85.9487 64.3084C85.465 63.3749 84.983 62.4414 84.4993 61.5079C85.7955 62.0061 87.0692 61.9448 88.3204 61.3241C89.7698 60.3261 90.8629 59.0266 91.5965 57.4272L91.5997 57.4288Z" fill="#1D4077"/>
<path fill-rule="evenodd" clip-rule="evenodd" d="M66.5723 4.06152C66.9899 4.16793 67.3301 4.40493 67.5881 4.7693C67.8686 5.37713 68.1491 5.98172 68.428 6.58148C70.179 7.11837 71.8299 7.8697 73.3777 8.83545C73.7905 8.36306 74.1145 7.83262 74.3499 7.24414C74.6756 7.48276 74.8674 7.80682 74.9239 8.21633C75.0803 8.79514 75.1689 9.38363 75.1883 9.9834C76.6168 11.3667 77.6921 12.987 78.4144 14.8444C78.4048 14.9282 78.3757 15.0007 78.3258 15.0652C77.7663 15.2361 77.2069 15.2361 76.6474 15.0652C75.0142 14.6283 73.4229 14.0689 71.8751 13.3869C71.2785 13.2692 70.6884 13.1515 70.108 13.0338C70.6127 12.4921 70.6852 11.8874 70.3289 11.2216C69.6647 9.77376 68.8698 8.41946 67.9428 7.15705C67.3865 7.36504 66.8126 7.4521 66.2192 7.42147C66.2741 6.93779 66.524 6.58472 66.9706 6.36061C66.9947 6.08169 66.9367 5.81726 66.7932 5.56574C66.69 5.06755 66.6175 4.56779 66.5723 4.06315V4.06152Z" fill="#1D4077"/>
<path fill-rule="evenodd" clip-rule="evenodd" d="M82.1145 30.4764C82.2306 30.4957 82.3354 30.4715 82.4273 30.4006C83.3463 28.7674 83.9493 27.0229 84.2347 25.1672C85.2053 24.3111 85.7196 23.2421 85.7825 21.9588C85.2246 22.6004 84.5346 22.8955 83.7123 22.8471C83.2851 22.091 82.9046 21.309 82.5708 20.5012C82.4483 19.737 82.6933 19.1276 83.3092 18.6745C83.1738 18.5859 83.0271 18.5794 82.8675 18.6568C82.7191 18.6278 82.5902 18.5633 82.4773 18.4634C82.3951 18.0393 82.3387 17.6088 82.3096 17.1735C82.6611 16.8059 83.0013 16.4222 83.3302 16.0208C83.3028 15.9901 83.2738 15.9595 83.2447 15.9288C82.8514 16.1449 82.4354 16.2013 82.0001 16.0982C81.6373 15.4581 81.2036 14.8648 80.7022 14.3198C80.8957 15.2662 81.2423 16.1659 81.7405 17.0155C81.9259 17.7765 81.7099 18.3731 81.0924 18.8019C80.1234 18.5682 79.996 18.7681 80.7135 19.4049C81.0617 19.4904 81.26 19.7048 81.3068 20.0482C80.8489 21.2816 80.5313 22.552 80.3539 23.8564C80.3604 24.1321 80.4072 24.3997 80.4974 24.6577C80.075 25.1252 79.5849 25.1946 79.0303 24.8625C79.1657 25.3332 79.4285 25.7427 79.8203 26.0894C80.2314 26.3538 80.6167 26.6504 80.9779 26.9777C81.1972 27.9402 81.4535 28.8947 81.7453 29.8395C81.8243 30.0814 81.9485 30.2926 82.1178 30.4747L82.1145 30.4764Z" fill="#1D4077"/>
<path fill-rule="evenodd" clip-rule="evenodd" d="M19.9116 18.1112C19.968 18.0112 20.0551 17.987 20.1712 18.0418C21.7028 19.1398 23.3796 19.9556 25.2015 20.486C25.5997 20.6989 25.9238 20.9923 26.1737 21.3696C26.617 21.3567 27.0588 21.3438 27.5022 21.3309C27.6166 21.3986 27.6231 21.4727 27.5231 21.5501C27.0975 21.7226 26.7202 21.9661 26.3945 22.2805C26.2317 22.7287 26.3123 23.1189 26.6412 23.4559C27.0943 23.4962 27.5425 23.5413 27.9858 23.5929C27.9181 23.7735 27.8149 23.9315 27.6763 24.0669C27.241 24.262 26.8524 24.5216 26.509 24.8456C25.4417 26.5192 24.4227 28.2153 23.4489 29.9356C23.5376 28.3136 22.8346 27.1689 21.3417 26.4982C21.2369 26.3305 21.1321 26.1629 21.0273 25.9952C19.0652 27.938 18.2429 30.2967 18.5573 33.0698C17.9753 30.8336 18.338 28.7554 19.644 26.8384C20.1228 26.2725 20.5855 25.6953 21.0305 25.1068C20.7742 25.0165 20.6371 24.8376 20.6242 24.5683C20.7838 23.6332 20.8854 22.69 20.9289 21.742C21.0063 20.4006 20.6661 19.1914 19.9116 18.1112Z" fill="#1D4077"/>
<path fill-rule="evenodd" clip-rule="evenodd" d="M64.8376 66.7778C64.8859 66.7827 64.915 66.8133 64.9262 66.8665C63.4752 68.5352 61.7372 69.817 59.7122 70.7101C58.1741 73.2414 56.1861 75.347 53.7468 77.0286C53.6855 77.1028 53.7 77.1609 53.7903 77.206C54.1821 77.3011 54.5642 77.4204 54.9399 77.5591C54.5481 77.8735 54.1047 78.0943 53.6146 78.2217C52.9132 78.4216 52.2071 78.5974 51.4928 78.7522C49.9596 79.7614 48.3247 80.5724 46.5883 81.1818C46.5609 81.9009 46.6496 82.6071 46.8527 83.3036C47.209 84.724 47.6363 86.1235 48.1345 87.5019C48.1232 87.5955 48.078 87.6696 48.0023 87.7228C46.9978 87.2794 46.1143 86.6603 45.3517 85.8671C44.2876 84.6853 43.3589 83.4035 42.5673 82.0234C42.2158 81.9799 41.8611 81.9638 41.5064 81.9799C41.5387 83.1069 41.6128 84.2258 41.7273 85.3383C40.7084 84.4789 40.1054 83.3891 39.9151 82.0686C37.5144 81.6865 35.6136 80.5079 34.2157 78.5329C33.9578 78.2105 33.9433 77.8864 34.1722 77.5607C34.5301 77.364 34.9122 77.2608 35.3218 77.2511C38.011 77.264 40.6922 77.1157 43.3638 76.8094C45.7225 76.4918 47.991 75.8581 50.1691 74.9101C50.8495 74.1411 51.5863 73.4349 52.378 72.7884C52.4731 73.2801 52.6488 73.7364 52.9084 74.1588C54.3627 74.1943 55.6299 73.7235 56.7085 72.7449C57.4985 71.9694 58.2063 71.131 58.8303 70.2265C58.6191 69.9056 58.4417 69.5671 58.2998 69.2108C59.2462 69.1575 60.1604 68.9528 61.0391 68.5916C62.2902 67.9371 63.5558 67.3325 64.8392 66.7795L64.8376 66.7778Z" fill="#1D4077"/>
<path fill-rule="evenodd" clip-rule="evenodd" d="M83.4914 32.6214C83.5317 32.5069 83.5898 32.5021 83.6655 32.6069C84.9699 34.1434 85.8631 35.8991 86.3451 37.8774C87.0497 39.8911 87.2125 41.9435 86.8304 44.0347C87.0271 44.32 87.2657 44.5619 87.5479 44.7586C87.6704 45.1084 87.6253 45.4325 87.4124 45.7308C88.4975 46.308 89.5036 47.0077 90.4306 47.8299C91.1513 48.5974 91.872 49.3648 92.5927 50.1323C91.8333 50.2677 91.0949 50.4773 90.3758 50.7594C88.7281 51.4607 87.1045 52.2121 85.5051 53.0118C85.194 53.4455 84.8812 53.8808 84.57 54.3145C84.4023 54.4725 84.2089 54.5902 83.9896 54.6708C83.9557 54.6159 83.9219 54.5595 83.888 54.5047C83.9993 54.2355 84.0783 53.9662 84.125 53.6986C83.5785 53.1681 82.9368 52.9747 82.1984 53.1214C82.0001 53.3922 81.8356 53.6825 81.705 53.9936C81.5373 53.755 81.4422 53.4874 81.418 53.1891C81.5083 52.4749 81.4906 51.7639 81.3648 51.0545C80.7747 49.2471 80.0976 47.4704 79.335 45.7275C79.148 45.1697 79.0254 44.5973 78.969 44.0121C79.9202 44.2265 80.8715 44.4506 81.8211 44.6844C82.7546 44.8988 83.6865 44.9214 84.6216 44.7489C84.7103 44.5651 84.8425 44.4216 85.0214 44.3216C85.4197 44.2572 85.7857 44.1233 86.1226 43.9218C86.4338 42.2321 86.3903 40.5473 85.9936 38.8689C85.5551 36.615 84.7216 34.5335 83.493 32.623L83.4914 32.6214Z" fill="#5981B3"/>
<path fill-rule="evenodd" clip-rule="evenodd" d="M39.2508 0C40.0795 0.31278 40.7437 0.843216 41.2387 1.59131C41.5386 1.97987 41.803 2.3926 42.0336 2.82792C42.1126 2.87951 42.2012 2.90857 42.298 2.91663C43.2041 2.73767 44.1021 2.5329 44.9937 2.29751C45.0227 2.20884 45.0533 2.12016 45.0824 2.0331C45.0259 1.54136 44.9227 1.06894 44.7728 0.619116C45.6112 0.925447 46.3625 1.38334 47.0268 1.98955C47.9538 2.01374 48.8825 1.9976 49.8111 1.94601C50.743 1.95568 51.6717 2.01536 52.5955 2.12339C52.731 2.12016 52.8341 2.06209 52.9051 1.94601C53.2243 1.19953 53.7402 0.640096 54.4513 0.267662C54.893 0.441787 55.1735 0.765848 55.2912 1.23985C55.4509 1.70419 55.5847 2.17499 55.6895 2.65384C58.0418 3.57928 60.2796 4.71268 62.4062 6.0557C62.59 6.18791 62.7077 6.36527 62.7593 6.58615C62.3933 7.06822 61.9225 7.4229 61.3453 7.64701C60.3747 7.98881 59.3719 8.15003 58.34 8.1323C57.629 8.09038 56.9229 8.04684 56.2183 8.00009C55.2542 9.14319 54.0611 9.92353 52.6391 10.3427C52.5359 10.3282 52.4327 10.3137 52.3295 10.2992C52.8277 9.37696 53.2404 8.41931 53.5661 7.42776C52.1118 7.05694 50.6689 6.64416 49.2356 6.19111C48.8131 6.35878 48.4004 6.54906 47.9989 6.7651C47.7071 6.83766 47.4137 6.8828 47.1154 6.89731C47.08 6.48296 47.0203 6.07022 46.9381 5.6607C45.271 5.18347 43.6216 4.65304 41.9884 4.0694C40.9985 4.55146 39.9666 4.92067 38.8961 5.1738C38.543 5.23345 38.1883 5.23345 37.8352 5.1738C39.3943 3.75016 39.8667 2.02664 39.2492 0.00324737L39.2508 0Z" fill="#5981B3"/>
<path fill-rule="evenodd" clip-rule="evenodd" d="M37.5498 10.3397C38.5268 10.3316 39.4313 10.6202 40.2632 11.2022C41.5821 11.1619 42.8977 11.0523 44.2085 10.8733C45.3596 10.8185 46.5108 10.8185 47.6603 10.8733C47.8199 10.9394 47.9844 10.9813 48.1537 10.9958C48.1472 11.3667 48.0231 11.6956 47.7845 11.9825C46.2899 13.4981 44.5374 14.6218 42.5236 15.3522C42.156 16.197 41.7449 17.0193 41.2902 17.819C41.0468 18.1446 40.7727 18.4461 40.468 18.7234C40.4277 17.7916 40.4132 16.8613 40.4277 15.9294C39.0379 16.1777 37.6401 16.3825 36.2358 16.5453C35.8472 16.9113 35.4232 17.2257 34.9621 17.4901C34.867 17.2515 34.8267 17.0064 34.8396 16.75C34.3462 16.7742 33.8528 16.8161 33.3595 16.8725C33.1886 17.1998 32.9693 17.4884 32.7017 17.7351C32.6453 17.4997 32.5356 17.295 32.3728 17.1192C32.039 17.0773 31.7118 17.1047 31.3861 17.2015C31.2781 17.8528 31.1265 18.4961 30.9346 19.133C30.3784 20.131 30.1043 20.0213 30.1124 18.8041C30.0495 18.5832 29.9528 18.3768 29.8254 18.1882C28.5791 17.6642 27.2909 17.2805 25.9624 17.037C26.4445 16.7484 26.9652 16.5566 27.5247 16.4615C28.6146 16.2486 29.7109 16.2083 30.8121 16.3389C31.4457 16.2921 31.9536 16.0181 32.3325 15.5167C32.3728 15.162 32.3873 14.8056 32.3728 14.4477C32.7549 14.5444 33.1386 14.6122 33.5239 14.6525C34.8944 13.9124 36.2632 13.1724 37.6336 12.4324C37.8319 12.2292 37.9142 11.9826 37.8803 11.6923C37.8609 11.3747 37.8206 11.0587 37.7578 10.7476C37.7271 10.5831 37.6578 10.4461 37.553 10.3364L37.5498 10.3397Z" fill="#5981B3"/>
<path fill-rule="evenodd" clip-rule="evenodd" d="M13.4979 16.0524C13.7349 16.0234 13.9381 16.0846 14.1106 16.2362C14.5169 17.5937 14.583 18.969 14.3089 20.3604C14.1041 21.3358 13.8687 22.3032 13.5995 23.2625C13.9494 24.7199 14.0122 26.1919 13.7897 27.6752C13.3722 27.1029 12.9094 26.5676 12.4 26.0662C11.6003 27.2625 10.8199 28.4733 10.0606 29.6986C10.0767 30.3 10.0993 30.9046 10.1267 31.5124C10.0928 31.7317 10.0573 31.9494 10.0235 32.1687C9.73649 31.9091 9.42694 31.6801 9.09803 31.4802C8.44829 32.2944 7.81789 33.1247 7.20684 33.9744C7.15525 34.7418 7.10366 35.5093 7.05207 36.2751C7.02949 36.3928 6.98596 36.5008 6.91825 36.6008C6.68769 36.2493 6.43779 35.9123 6.16854 35.5882C5.4398 36.7055 4.6917 37.8067 3.92265 38.8934C3.86139 39.1111 3.85332 39.3303 3.90169 39.5512C4.15321 40.2735 4.40472 40.9942 4.65623 41.7165C4.69977 41.9132 4.72234 42.1066 4.72072 42.2953C4.31766 41.5665 3.71306 41.107 2.91176 40.92C2.54255 40.9619 2.18301 41.0474 1.83315 41.1748C1.23016 41.4537 0.619111 41.681 0 41.8584C0.694888 40.8604 1.57035 40.0655 2.62961 39.4706C2.87629 39.2916 3.06331 39.0643 3.18584 38.7886C3.6792 37.6133 4.19674 36.4492 4.73846 35.2964C4.21931 35.2093 3.70016 35.1787 3.17617 35.2061C3.70822 34.2823 4.48211 33.6616 5.50106 33.344C5.66551 32.5652 5.84125 31.7881 6.02828 31.0126C6.00248 30.9433 5.97829 30.874 5.9525 30.8047C5.8219 30.8675 5.68325 30.8901 5.53815 30.874C5.64455 30.3161 5.92025 29.8582 6.36363 29.5003C6.56194 27.4543 7.07625 25.4938 7.90979 23.6188C6.84408 23.2883 5.75258 23.0609 4.63689 22.9384C5.42045 22.1032 6.37169 21.5438 7.4906 21.2584C7.95977 21.1552 8.42894 21.0601 8.89973 20.9731C9.76713 19.7332 10.6974 18.5401 11.6906 17.3954C12.2387 16.8537 12.8433 16.4071 13.5044 16.0524H13.4979Z" fill="#5981B3"/>
<path fill-rule="evenodd" clip-rule="evenodd" d="M49.271 15.2485C49.9546 15.9789 50.4399 16.8334 50.7285 17.812C50.9123 18.4811 51.0445 19.1583 51.1267 19.8451C51.5104 19.9386 51.8941 20.0418 52.2762 20.1547C52.7535 20.2224 53.2259 20.1934 53.6902 20.066C53.8256 19.8951 53.9288 19.7032 53.9998 19.492C54.4012 19.8644 54.8285 20.203 55.2815 20.5077C56.5407 20.9624 57.8063 21.3881 59.0816 21.7895C59.1703 21.775 59.259 21.7605 59.346 21.746C59.8394 21.3123 60.2666 20.827 60.6278 20.2885C61.0051 21.1607 61.2405 22.0733 61.3356 23.0278C63.5057 24.6965 65.4791 26.5828 67.2574 28.6836C67.3413 28.9351 67.2961 29.156 67.1252 29.3462C66.2175 29.6252 65.3034 29.6252 64.386 29.3462C63.3412 28.977 62.3239 28.5514 61.3372 28.0645C60.0748 28.5756 58.764 28.8706 57.4049 28.948C57.0711 28.9561 56.7471 28.9109 56.4327 28.8158C57.4113 28.1918 58.3384 27.4986 59.2171 26.7392C59.2783 26.665 59.2638 26.607 59.1735 26.5618C57.9047 25.8089 56.6971 24.9689 55.5508 24.0435C54.9091 23.8678 54.2609 23.7049 53.6064 23.5582C53.5773 23.5291 53.5467 23.4985 53.5177 23.4695C53.6354 23.2631 53.7531 23.0567 53.8708 22.8504C52.8728 22.0459 51.8119 21.3236 50.6898 20.6851C49.8191 20.8883 48.9356 21.064 48.0392 21.2155C47.6458 21.2929 47.2621 21.2623 46.8896 21.1269C47.9473 20.6948 48.7857 20.0031 49.408 19.0503C49.5934 17.7782 49.5483 16.511 49.2758 15.2502L49.271 15.2485Z" fill="#5981B3"/>
<path fill-rule="evenodd" clip-rule="evenodd" d="M90.8112 38.9363C90.7225 38.9282 90.6564 38.8863 90.6097 38.8105C90.5662 38.5235 90.4968 38.2413 90.4017 37.9656C89.7907 36.9644 89.4021 35.8778 89.236 34.7041C88.7233 34.3864 88.2509 34.0188 87.8188 33.5964C88.6701 33.806 89.2473 33.5061 89.552 32.6952C89.7761 31.7778 89.9422 30.8491 90.0502 29.9107C89.7987 29.6818 89.5569 29.4448 89.3247 29.1965C89.6327 29.261 89.8326 29.1465 89.9245 28.8547C89.8777 28.5339 89.831 28.2114 89.7842 27.8873C89.465 27.61 89.1748 27.3037 88.9168 26.9684C89.207 27.1167 89.5198 27.2038 89.8584 27.2263C90.2098 26.9184 90.5113 26.5685 90.7645 26.1768C90.7129 26.7797 90.5226 27.344 90.1921 27.8696C90.2373 28.2179 90.3114 28.5597 90.4114 28.8966C90.5533 29.0965 90.7354 29.1594 90.9612 29.0853C90.9773 29.1627 90.9934 29.24 91.0095 29.319C90.8548 29.5367 90.7661 29.7753 90.7467 30.0349C91.1901 31.049 91.6206 32.0696 92.0398 33.095C92.459 33.1627 92.8104 33.0321 93.0974 32.7016C93.1248 33.4416 92.8507 34.0511 92.2768 34.5299C92.1075 35.307 91.9382 36.0857 91.7689 36.8629C91.5029 37.4626 91.3014 38.0849 91.1643 38.7299C91.0466 38.8105 90.9305 38.8798 90.8128 38.9363H90.8112Z" fill="#5981B3"/>
<path fill-rule="evenodd" clip-rule="evenodd" d="M41.9756 65.0639C42.0788 65.0203 42.1868 65.0042 42.2981 65.0123C42.3223 65.6555 42.4609 66.2779 42.7108 66.8793C42.8253 67.0292 42.9752 67.1131 43.1639 67.1292C43.8829 67.1034 44.6004 67.0518 45.3146 66.9728C45.7435 66.5729 46.1578 66.157 46.5593 65.7265C46.6496 65.6588 46.7495 65.6169 46.8592 65.5975C46.9285 65.8345 47.022 66.0618 47.1397 66.2763C47.3719 66.1957 47.6089 66.1409 47.8523 66.1118C48.1296 66.1989 48.3908 66.3214 48.6343 66.4778C49.7484 66.3069 50.8657 66.1812 51.9894 66.1006C52.5005 66.1296 53.0035 66.2102 53.4953 66.3408C53.6146 66.3633 53.6291 66.415 53.5404 66.4972C52.744 66.818 51.9298 67.0679 51.0946 67.2453C50.8786 67.3017 50.8173 67.4323 50.9124 67.6354C50.4836 67.7418 50.0499 67.7547 49.6129 67.6725C48.2232 68.477 46.7802 69.1897 45.2872 69.8104C44.3247 70.0958 43.3557 70.3473 42.3787 70.5665C42.4851 71.1647 42.6012 71.7644 42.7302 72.3658C43.0042 73.0591 43.3364 73.7233 43.7281 74.3586C43.8329 74.6181 43.7668 74.6794 43.5282 74.5424C42.8462 74.099 42.2529 73.5525 41.7451 72.9027C41.1469 72.0821 40.6165 71.2211 40.1537 70.3215C38.5495 70.0264 37.0759 69.4105 35.7329 68.4722C35.3814 68.2158 35.0815 67.9095 34.8333 67.55C34.801 67.4307 34.8268 67.3243 34.9106 67.2324C35.7829 66.9663 36.6793 66.8487 37.5967 66.8793C38.4496 66.8922 39.3009 66.9131 40.1505 66.9437C40.7874 66.3456 41.3936 65.7185 41.974 65.0655L41.9756 65.0639Z" fill="#5981B3"/>
<path fill-rule="evenodd" clip-rule="evenodd" d="M48.5858 92.4437C46.2899 91.4054 43.9747 90.3832 41.6417 89.374C37.5466 87.4376 33.8174 84.9434 30.4542 81.8914C29.4562 80.126 28.8742 78.2348 28.7065 76.2162C28.6211 74.6507 29.0741 73.3029 30.0657 72.1727C29.4578 72.0179 28.8387 71.9292 28.2051 71.905C26.3671 72.084 24.5275 72.2355 22.6879 72.358C22.3171 72.3371 21.9511 72.2919 21.59 72.2194C20.6403 71.6212 19.6149 71.2649 18.5121 71.1472C18.3686 71.1295 18.2638 71.1859 18.1993 71.3165C18.6701 71.6132 19.1151 71.9453 19.5375 72.3113C19.5408 72.7966 19.3715 73.2126 19.0281 73.5544C18.5492 73.2996 18.101 73.0014 17.6802 72.6579C17.5464 72.5934 17.4496 72.6322 17.3916 72.7708C17.4126 72.9836 17.4867 73.1771 17.6173 73.3464C18.2348 74.117 18.8539 74.8877 19.4714 75.6568C19.8455 76.1324 20.1147 76.6596 20.2808 77.2384C20.471 78.2041 20.5678 79.1779 20.571 80.1614C20.4807 81.5851 20.3678 82.991 20.2292 84.3759C21.4174 83.9148 22.6154 83.4618 23.8246 83.0152C24.9967 82.7217 26.1785 82.6701 27.3699 82.8604C27.5602 82.8878 27.6956 82.9926 27.7778 83.1748C27.8472 84.0728 27.9455 84.9676 28.0697 85.8608C28.118 85.9043 28.168 85.9495 28.2164 85.993C28.5356 85.1837 28.7113 84.3388 28.7436 83.4617C28.7774 83.386 28.8323 83.3634 28.908 83.3973C29.1612 83.5988 29.4465 83.7246 29.7674 83.7729C29.7593 83.4731 29.7206 83.1716 29.6513 82.8701C29.7126 82.6718 29.8399 82.5912 30.0302 82.6266C34.9782 87.12 40.6615 90.3203 47.0767 92.2277C47.5749 92.3518 48.0779 92.4244 48.5858 92.4437Z" fill="#5981B3"/>
<path d="M120.746 34.9318C119.142 36.536 117.178 37.3388 114.855 37.3388C112.532 37.3388 110.568 36.536 108.964 34.9318C107.36 33.2969 106.557 31.3332 106.557 29.0405C106.557 26.7334 107.36 24.7777 108.964 23.1719C110.568 21.5515 112.532 20.7422 114.855 20.7422C117.178 20.7422 119.142 21.5515 120.746 23.1719C122.35 24.7761 123.153 26.7334 123.153 29.0405C123.153 31.3332 122.35 33.2969 120.746 34.9318ZM110.088 33.8322C111.371 35.1317 112.961 35.7798 114.855 35.7798C116.749 35.7798 118.339 35.1301 119.622 33.8322C120.906 32.5327 121.548 30.9366 121.548 29.0405C121.548 27.1606 120.906 25.5709 119.622 24.2731C118.339 22.9591 116.749 22.3012 114.855 22.3012C112.961 22.3012 111.371 22.9591 110.088 24.2731C108.804 25.5726 108.162 27.1606 108.162 29.0405C108.162 30.935 108.804 32.5327 110.088 33.8322Z" fill="#5981B3"/>
<path d="M127.737 21.0176H133.467C134.903 21.0176 136.103 21.4996 137.065 22.4622C138.028 23.4247 138.51 24.6242 138.51 26.0607C138.51 27.4973 138.028 28.6968 137.065 29.6594C136.103 30.6219 134.903 31.104 133.467 31.104H129.341V37.0645H127.737V21.0192V21.0176ZM129.341 29.59H133.467C134.46 29.59 135.277 29.2611 135.919 28.6049C136.577 27.9471 136.906 27.1007 136.906 26.0607C136.906 25.037 136.577 24.197 135.919 23.5392C135.277 22.8668 134.46 22.5315 133.467 22.5315H129.341V29.5916V29.59Z" fill="#5981B3"/>
<path d="M144.701 29.7277V35.5496H152.495V37.0619H143.097V21.0166H152.381V22.5289H144.701V28.2138H151.808V29.7261H144.701V29.7277Z" fill="#5981B3"/>
<path d="M167.396 28.0551V21.0176H169V37.0629H167.396V29.5675H158.685V37.0629H157.08V21.0176H158.685V28.0551H167.396Z" fill="#5981B3"/>
<path d="M176.105 27.4358H180.46C181.774 27.4358 182.904 27.9099 183.852 28.8579C184.8 29.8059 185.274 30.9361 185.274 32.2501C185.274 33.5802 184.8 34.7185 183.852 35.6665C182.92 36.5984 181.788 37.0643 180.46 37.0643H174.499V21.019H183.897V22.5313H176.103L176.105 27.4358ZM176.105 35.5504H180.46C181.347 35.5504 182.103 35.2296 182.73 34.5879C183.355 33.9301 183.67 33.1514 183.67 32.2501C183.67 31.3634 183.357 30.5927 182.73 29.9349C182.119 29.2771 181.363 28.9482 180.46 28.9482H176.105V35.5504Z" fill="#5981B3"/>
<path d="M194.192 30.8757L198.409 21.0182H200.06L194.719 33.5569C194.183 34.8402 193.503 35.7657 192.678 36.33C191.852 36.8959 190.828 37.1393 189.606 37.0635V35.5964C190.462 35.6882 191.169 35.5625 191.726 35.2175C192.284 34.8741 192.747 34.2743 193.113 33.4182L193.434 32.6621L187.91 21.0166H189.561L194.192 30.874V30.8757Z" fill="#5981B3"/>
<path d="M203.957 21.0176H209.687C211.124 21.0176 212.323 21.4996 213.287 22.4622C214.25 23.4247 214.732 24.6242 214.732 26.0607C214.732 27.4973 214.25 28.6968 213.287 29.6594C212.323 30.6219 211.124 31.104 209.687 31.104H205.561V37.0645H203.957V21.0192V21.0176ZM205.561 29.59H209.687C210.68 29.59 211.499 29.2611 212.141 28.6049C212.797 27.9471 213.126 27.1007 213.126 26.0607C213.126 25.037 212.797 24.197 212.141 23.5392C211.499 22.8668 210.682 22.5315 209.687 22.5315H205.561V29.5916V29.59Z" fill="#5981B3"/>
<path d="M219.315 21.0176H228.255V22.5299H220.92V37.0629H219.315V21.0176Z" fill="#5981B3"/>
<path d="M238.73 37.3388C236.286 37.3388 234.276 36.536 232.702 34.9318C231.112 33.3114 230.318 31.3477 230.318 29.0405C230.318 26.7334 231.112 24.7696 232.702 23.1493C234.276 21.5451 236.286 20.7422 238.73 20.7422C240.198 20.7422 241.55 21.0969 242.789 21.8079C244.027 22.5189 244.989 23.4782 245.678 24.6841L244.256 25.5097C243.753 24.5326 243.003 23.7523 242.01 23.1719C241.017 22.5914 239.924 22.3012 238.73 22.3012C236.714 22.3012 235.077 22.951 233.826 24.2505C232.557 25.5645 231.923 27.1622 231.923 29.0421C231.923 30.922 232.557 32.5182 233.826 33.8338C235.079 35.1333 236.715 35.7814 238.73 35.7814C239.922 35.7814 241.015 35.4912 242.01 34.9108C243.005 34.3304 243.753 33.5516 244.256 32.573L245.678 33.3759C245.02 34.5835 244.065 35.546 242.813 36.2635C241.558 36.9809 240.199 37.3405 238.732 37.3405L238.73 37.3388Z" fill="#5981B3"/>
<path d="M253.447 28.8112L261.378 37.0643H259.269L251.75 29.2932V37.0643H250.146V21.019H251.75V28.3548L259.04 21.019H261.149L253.446 28.8127L253.447 28.8112Z" fill="#5981B3"/>
<path d="M277.196 37.0629H275.59V23.997L266.65 37.0629H265.275V21.0176H266.879V34.0834L275.819 21.0176H277.194L277.196 37.0629Z" fill="#5981B3"/>
<path d="M294.618 37.0631H293.012V23.9972L284.072 37.0631H282.697V21.0178H284.301V34.0836L293.241 21.0178H294.617L294.618 37.0631ZM291.639 19.183H285.678V17.8545H291.639V19.183Z" fill="#5981B3"/>
<path d="M129.317 68.5685C126.744 71.1417 123.592 72.4299 119.866 72.4299C116.14 72.4299 112.991 71.1433 110.416 68.5685C107.843 65.9454 106.555 62.7966 106.555 59.119C106.555 55.4172 107.842 52.2797 110.416 49.7049C112.989 47.106 116.14 45.8081 119.866 45.8081C123.592 45.8081 126.742 47.106 129.317 49.7049C131.89 52.2781 133.178 55.4172 133.178 59.119C133.178 62.7966 131.892 65.9454 129.317 68.5685ZM112.219 66.8031C114.278 68.8877 116.827 69.9276 119.866 69.9276C122.905 69.9276 125.456 68.8861 127.514 66.8031C129.573 64.72 130.604 62.1581 130.604 59.119C130.604 56.104 129.573 53.555 127.514 51.4704C125.456 49.3615 122.905 48.3071 119.866 48.3071C116.827 48.3071 114.278 49.3615 112.219 51.4704C110.16 53.555 109.13 56.104 109.13 59.119C109.13 62.1581 110.16 64.72 112.219 66.8031Z" fill="#1D4077"/>
<path d="M145.826 58.7525L158.547 71.9893H155.165L143.105 59.5232V71.9893H140.532V46.251H143.105V58.0173L154.797 46.251H158.18L145.826 58.7525Z" fill="#1D4077"/>
<path d="M167.371 60.2229V69.5612H179.873V71.9893H164.798V46.251H179.689V48.6774H167.371V57.7965H178.77V60.2245L167.371 60.2229Z" fill="#1D4077"/>
<path d="M207.451 71.9893H204.729L202.34 65.6659H190.133L187.744 71.9893H185.024L194.914 46.251H197.561L207.452 71.9893H207.451ZM196.236 49.4497L191.051 63.2379H201.419L196.236 49.4497Z" fill="#1D4077"/>
<path d="M230.245 57.5385V46.251H232.818V71.9893H230.245V59.9666H216.273V71.9893H213.7V46.251H216.273V57.5385H230.245Z" fill="#1D4077"/>
<path d="M261.499 71.9893H258.779L256.39 65.6659H244.182L241.792 71.9893H239.072L248.962 46.251H251.611L261.499 71.9893ZM250.284 49.4497L245.099 63.2379H255.469L250.284 49.4497Z" fill="#1D4077"/>
<path d="M267.75 46.2506H276.941C279.245 46.2506 281.17 47.0213 282.713 48.5675C284.258 50.1121 285.03 52.0355 285.03 54.3394C285.03 56.6433 284.258 58.5684 282.713 60.1114C281.168 61.6543 279.245 62.4282 276.941 62.4282H270.323V71.9873H267.75V46.249V46.2506ZM270.323 60.0017H276.941C278.534 60.0017 279.845 59.4745 280.875 58.4201C281.929 57.3673 282.457 56.0065 282.457 54.3394C282.457 52.6981 281.929 51.3486 280.875 50.2942C279.845 49.2156 278.534 48.6755 276.941 48.6755H270.323V60.0017Z" fill="#1D4077"/>
<path d="M311.505 71.9893H308.932V51.0313L294.592 71.9893H292.387V46.251H294.96V67.2089L309.299 46.251H311.505V71.9893Z" fill="#1D4077"/>
<path d="M328.565 62.0614L335.331 46.2515H337.979L329.411 66.3645C328.553 68.4234 327.462 69.9067 326.14 70.8144C324.816 71.7205 323.173 72.1123 321.213 71.9913V69.6374C322.586 69.7858 323.72 69.5826 324.614 69.0312C325.509 68.4798 326.253 67.5173 326.839 66.1437L327.355 64.9312L318.493 46.2531H321.14L328.568 62.063L328.565 62.0614Z" fill="#1D4077"/>
<path d="M364.562 46.251H367.76V71.9893H365.187V50.1478L356.179 65.2225H355.812L346.804 50.1478V71.9893H344.231V46.251H347.43L355.997 60.5905L364.565 46.251H364.562Z" fill="#1D4077"/>
</svg>
