<svg width="12" height="17" viewBox="0 0 12 17" fill="none" xmlns="http://www.w3.org/2000/svg">
<path d="M5.7946 0C2.59944 0 0 2.73573 0 6.09839C0 10.2716 5.1856 16.398 5.40638 16.6568C5.61376 16.8998 5.97582 16.8994 6.18282 16.6568C6.4036 16.398 11.5892 10.2716 11.5892 6.09839C11.5891 2.73573 8.98973 0 5.7946 0ZM5.7946 9.16666C4.18704 9.16666 2.87922 7.79024 2.87922 6.09839C2.87922 4.40654 4.18707 3.03015 5.7946 3.03015C7.40213 3.03015 8.70995 4.40657 8.70995 6.09842C8.70995 7.79028 7.40213 9.16666 5.7946 9.16666Z" fill="white"/>
</svg>
