<svg width="13" height="15" viewBox="0 0 13 15" fill="none" xmlns="http://www.w3.org/2000/svg">
<path fill-rule="evenodd" clip-rule="evenodd" d="M12.762 13.1215C12.6757 13.2203 12.5716 13.3465 12.4612 13.4801C12.1858 13.8155 11.8417 14.2325 11.6261 14.4016C10.4914 15.2914 8.97343 14.8657 7.89969 14.3522C6.48324 13.675 4.94111 12.4266 3.55644 10.8374C2.17048 9.2481 1.08274 7.47786 0.492567 5.85332C0.0457123 4.62086 -0.326066 2.87853 0.449405 1.57614C0.596664 1.32849 0.960876 0.934247 1.2528 0.617568C1.3696 0.491292 1.47877 0.37198 1.56509 0.273238C1.71835 0.0982397 1.92576 0 2.14196 0C2.35816 0 2.56556 0.0982397 2.71882 0.273238L4.80654 2.66834C4.95895 2.8442 5.04451 3.08215 5.04451 3.33018C5.04451 3.57821 4.95895 3.81615 4.80654 3.99202L4.23782 4.64335C4.04788 4.85972 3.92391 5.14069 3.88434 5.44443C3.84477 5.74817 3.89173 6.05846 4.01822 6.32911C4.80047 8.02338 6.00811 9.40899 7.48465 10.3064C7.72044 10.4515 7.99078 10.5053 8.25539 10.4598C8.51999 10.4143 8.76472 10.272 8.95312 10.054L9.52045 9.40261C9.67371 9.22761 9.88111 9.12937 10.0973 9.12937C10.3135 9.12937 10.5209 9.22761 10.6742 9.40261L12.762 11.7981C12.9144 11.9739 13 12.2118 13 12.4598C13 12.7078 12.9144 12.9457 12.762 13.1215Z" fill="white"/>
</svg>
