<svg width="99" height="99" viewBox="0 0 99 99" fill="none" xmlns="http://www.w3.org/2000/svg">
<circle cx="49.5" cy="49.5" r="49.5" fill="#22C7B9"/>
<path d="M49.5 24C44.4566 24 39.5264 25.4955 35.333 28.2975C31.1395 31.0995 27.8711 35.0821 25.9411 39.7416C24.011 44.4011 23.5061 49.5283 24.49 54.4748C25.4739 59.4213 27.9025 63.965 31.4688 67.5312C35.035 71.0975 39.5787 73.5261 44.5252 74.51C49.4717 75.4939 54.5989 74.989 59.2584 73.0589C63.9179 71.1289 67.9005 67.8605 70.7025 63.667C73.5045 59.4736 75 54.5434 75 49.5C74.992 42.7394 72.3029 36.258 67.5224 31.4776C62.742 26.6971 56.2606 24.008 49.5 24ZM58.0935 58.0935C57.6588 58.5281 57.0692 58.7722 56.4545 58.7722C55.8399 58.7722 55.2503 58.5281 54.8156 58.0935L47.8611 51.139C47.4263 50.7043 47.182 50.1148 47.1818 49.5V35.5909C47.1818 34.9761 47.4261 34.3864 47.8608 33.9517C48.2955 33.517 48.8852 33.2727 49.5 33.2727C50.1148 33.2727 50.7045 33.517 51.1392 33.9517C51.5739 34.3864 51.8182 34.9761 51.8182 35.5909V48.5403L58.0935 54.8156C58.5281 55.2503 58.7722 55.8398 58.7722 56.4545C58.7722 57.0692 58.5281 57.6588 58.0935 58.0935Z" fill="white"/>
</svg>
