<svg width="63" height="253" viewBox="0 0 63 253" fill="none" xmlns="http://www.w3.org/2000/svg">
<path d="M39.2461 164.237C39.2461 165.27 39 166.175 38.5078 166.955C38.0156 167.734 37.3252 168.342 36.4365 168.78C35.5479 169.21 34.5156 169.426 33.3398 169.426C32.1436 169.426 31.1011 169.21 30.2124 168.78C29.3169 168.342 28.623 167.734 28.1309 166.955C27.6387 166.175 27.3926 165.27 27.3926 164.237C27.3926 163.198 27.6387 162.289 28.1309 161.51C28.623 160.73 29.3169 160.122 30.2124 159.685C31.1011 159.247 32.1436 159.028 33.3398 159.028C34.5156 159.028 35.5479 159.247 36.4365 159.685C37.3252 160.122 38.0156 160.73 38.5078 161.51C39 162.289 39.2461 163.198 39.2461 164.237ZM37.667 164.237C37.667 163.444 37.4653 162.795 37.062 162.289C36.6587 161.783 36.1289 161.407 35.4727 161.161C34.8096 160.915 34.0986 160.792 33.3398 160.792C32.5674 160.792 31.8496 160.915 31.1865 161.161C30.5234 161.407 29.9902 161.783 29.5869 162.289C29.1768 162.795 28.9717 163.444 28.9717 164.237C28.9717 165.017 29.1768 165.659 29.5869 166.165C29.9902 166.671 30.5234 167.047 31.1865 167.293C31.8496 167.539 32.5674 167.662 33.3398 167.662C34.0986 167.662 34.8096 167.539 35.4727 167.293C36.1289 167.047 36.6587 166.671 37.062 166.165C37.4653 165.659 37.667 165.017 37.667 164.237ZM39 157.326L27.5361 157.326L27.5361 155.645L29.2793 155.645L29.2793 155.521C28.7119 155.31 28.2539 154.93 27.9053 154.383C27.5498 153.83 27.3721 153.211 27.3721 152.527C27.3721 152.397 27.3755 152.237 27.3823 152.045C27.3823 151.854 27.3857 151.707 27.3926 151.604L29.1768 151.604C29.1631 151.666 29.1426 151.803 29.1152 152.015C29.0879 152.227 29.0742 152.452 29.0742 152.691C29.0742 153.245 29.1904 153.741 29.4229 154.178C29.6553 154.616 29.9731 154.961 30.3765 155.214C30.7798 155.46 31.2412 155.583 31.7607 155.583L39 155.583L39 157.326ZM39.2461 146.047C39.2461 147.147 39 148.101 38.5078 148.908C38.0156 149.708 37.3286 150.323 36.4468 150.753C35.5581 151.184 34.5293 151.399 33.3604 151.399C32.1846 151.399 31.1489 151.187 30.2534 150.764C29.3579 150.34 28.6572 149.745 28.1514 148.979C27.6455 148.207 27.3926 147.305 27.3926 146.272C27.3926 145.678 27.4917 145.086 27.6899 144.499C27.8882 143.911 28.2095 143.377 28.6538 142.899C29.0981 142.414 29.686 142.027 30.4175 141.74C31.1489 141.453 32.0479 141.31 33.1143 141.31L33.873 141.31L33.873 150.148L32.3555 150.148L32.3555 142.263L32.9297 143.073C32.1641 143.073 31.4839 143.193 30.8892 143.432C30.2944 143.671 29.8262 144.03 29.4844 144.509C29.1426 144.98 28.9717 145.568 28.9717 146.272C28.9717 146.977 29.146 147.582 29.4946 148.087C29.8364 148.586 30.2842 148.969 30.8379 149.236C31.3916 149.502 31.9863 149.636 32.6221 149.636L33.627 149.636C34.4951 149.636 35.23 149.485 35.8315 149.185C36.4331 148.884 36.8911 148.463 37.2056 147.923C37.5132 147.383 37.667 146.758 37.667 146.047C37.667 145.589 37.602 145.172 37.4722 144.796C37.3354 144.42 37.1338 144.095 36.8672 143.822C36.5937 143.548 36.2588 143.34 35.8623 143.196L36.3545 141.494C36.9287 141.672 37.4346 141.973 37.8721 142.396C38.3027 142.813 38.6411 143.333 38.8872 143.955C39.1265 144.577 39.2461 145.274 39.2461 146.047ZM32.1094 137.905L39 137.905L39 139.648L27.5361 139.648L27.5361 137.967L29.3408 137.967L29.3408 137.803C28.7529 137.536 28.2812 137.129 27.9258 136.583C27.5703 136.036 27.3926 135.328 27.3926 134.46C27.3926 133.687 27.5498 133.011 27.8643 132.43C28.1787 131.849 28.6572 131.397 29.2998 131.076C29.9355 130.748 30.7422 130.584 31.7197 130.584L39 130.584L39 132.327L31.8428 132.327C30.9473 132.327 30.2466 132.563 29.7407 133.035C29.228 133.506 28.9717 134.149 28.9717 134.962C28.9717 135.523 29.0947 136.025 29.3408 136.47C29.5869 136.914 29.9424 137.266 30.4072 137.526C30.8721 137.779 31.4395 137.905 32.1094 137.905ZM39.2461 123.099C39.2461 123.83 39.123 124.418 38.877 124.862C38.624 125.307 38.3403 125.648 38.0259 125.888C37.7046 126.127 37.4414 126.312 37.2363 126.441L37.2363 126.646L39 126.646L39 128.328L23.7217 128.328L23.7217 126.585L29.3613 126.585L29.3613 126.441C29.1631 126.312 28.9102 126.13 28.6025 125.898C28.2881 125.666 28.0078 125.331 27.7617 124.893C27.5156 124.456 27.3926 123.864 27.3926 123.119C27.3926 122.155 27.6353 121.308 28.1206 120.576C28.5991 119.845 29.2827 119.274 30.1714 118.864C31.0532 118.447 32.0957 118.238 33.2988 118.238C34.5088 118.238 35.5615 118.443 36.457 118.854C37.3457 119.264 38.0327 119.834 38.5181 120.566C39.0034 121.297 39.2461 122.142 39.2461 123.099ZM37.667 123.324C37.667 122.593 37.4722 121.981 37.0825 121.489C36.686 120.997 36.1562 120.627 35.4932 120.381C34.8301 120.128 34.0918 120.002 33.2783 120.002C32.4717 120.002 31.7437 120.125 31.0942 120.371C30.4448 120.617 29.9287 120.986 29.5459 121.479C29.1631 121.964 28.9717 122.579 28.9717 123.324C28.9717 124.042 29.1528 124.644 29.5151 125.129C29.8706 125.614 30.373 125.983 31.0225 126.236C31.665 126.482 32.417 126.605 33.2783 126.605C34.1396 126.605 34.9019 126.479 35.5649 126.226C36.2212 125.973 36.7373 125.604 37.1133 125.119C37.4824 124.626 37.667 124.028 37.667 123.324ZM34.3242 109.317L27.5361 109.317L27.5361 107.574L39 107.574L39 109.317L37.0518 109.317L37.0518 109.44C37.6328 109.714 38.1284 110.134 38.5386 110.702C38.9487 111.262 39.1504 111.977 39.1436 112.845C39.1436 113.562 38.9897 114.198 38.6821 114.752C38.3677 115.306 37.8892 115.743 37.2466 116.064C36.604 116.379 35.7939 116.536 34.8164 116.536L27.5361 116.536L27.5361 114.793L34.7139 114.793C35.541 114.793 36.2041 114.557 36.7031 114.085C37.2021 113.607 37.4482 113.002 37.4414 112.271C37.4414 111.833 37.332 111.389 37.1133 110.937C36.8877 110.479 36.5459 110.097 36.0879 109.789C35.623 109.475 35.0352 109.317 34.3242 109.317ZM39 105.318L27.5361 105.318L27.5361 103.637L29.2793 103.637L29.2793 103.514C28.7119 103.302 28.2539 102.922 27.9053 102.375C27.5498 101.822 27.3721 101.203 27.3721 100.52C27.3721 100.39 27.3755 100.229 27.3823 100.038C27.3823 99.8462 27.3857 99.6992 27.3926 99.5967L29.1768 99.5967C29.1631 99.6582 29.1426 99.7949 29.1152 100.007C29.0879 100.219 29.0742 100.444 29.0742 100.684C29.0742 101.237 29.1904 101.733 29.4228 102.17C29.6553 102.608 29.9731 102.953 30.3765 103.206C30.7798 103.452 31.2412 103.575 31.7607 103.575L39 103.575L39 105.318ZM43.5322 94.2236C43.5322 95.502 43.2998 96.5137 42.835 97.2588C42.3701 97.9971 41.8369 98.5439 41.2353 98.8994L40.251 97.5049C40.4629 97.3477 40.7021 97.146 40.9687 96.8999C41.2422 96.6538 41.478 96.3188 41.6763 95.895C41.8745 95.4712 41.9736 94.9141 41.9736 94.2236C41.9736 93.3008 41.7515 92.5386 41.3071 91.937C40.8628 91.3286 40.1621 91.0244 39.2051 91.0244L36.8877 91.0244L36.8877 91.1885C37.0928 91.3115 37.3491 91.4927 37.6567 91.7319C37.9575 91.9644 38.2275 92.3027 38.4668 92.7471C38.6992 93.1846 38.8154 93.7793 38.8154 94.5312C38.8154 95.4541 38.5967 96.2812 38.1592 97.0127C37.7217 97.7441 37.0859 98.3252 36.252 98.7559C35.418 99.1797 34.4062 99.3916 33.2168 99.3916C32.041 99.3916 31.019 99.1865 30.1509 98.7764C29.2759 98.3594 28.5991 97.7817 28.1206 97.0435C27.6353 96.3052 27.3926 95.4541 27.3926 94.4902C27.3926 93.7451 27.5156 93.1538 27.7617 92.7163C28.0078 92.272 28.2881 91.9336 28.6025 91.7012C28.9102 91.4619 29.1631 91.2773 29.3613 91.1475L29.3613 90.9629L27.5361 90.9629L27.5361 89.2812L39.3281 89.2812C40.3125 89.2812 41.1123 89.5034 41.7275 89.9478C42.3496 90.3853 42.8042 90.98 43.0913 91.7319C43.3853 92.477 43.5322 93.3076 43.5322 94.2236ZM37.2363 94.2852C37.2363 93.2256 36.8774 92.4155 36.1597 91.855C35.4419 91.2876 34.4473 91.0039 33.1758 91.0039C32.3486 91.0039 31.6206 91.127 30.9917 91.373C30.3628 91.6191 29.8706 91.9883 29.5151 92.4805C29.1528 92.9658 28.9717 93.5674 28.9717 94.2852C28.9717 95.0303 29.1631 95.6523 29.5459 96.1514C29.9219 96.6436 30.4277 97.0127 31.0635 97.2588C31.6992 97.5049 32.4033 97.6279 33.1758 97.6279C33.9687 97.6279 34.6728 97.5049 35.2881 97.2588C35.8965 97.0059 36.375 96.6299 36.7236 96.1309C37.0654 95.6318 37.2363 95.0166 37.2363 94.2852ZM31.6377 80.4834L33.2783 80.4834L33.2783 87.1689L31.6377 87.1689L31.6377 80.4834ZM39.2461 73.7363C39.2461 74.7686 39 75.6743 38.5078 76.4536C38.0156 77.2329 37.3252 77.8413 36.4365 78.2788C35.5478 78.7095 34.5156 78.9248 33.3398 78.9248C32.1436 78.9248 31.1011 78.7095 30.2124 78.2788C29.3169 77.8413 28.623 77.2329 28.1309 76.4536C27.6387 75.6743 27.3926 74.7686 27.3926 73.7363C27.3926 72.6973 27.6387 71.7881 28.1309 71.0088C28.623 70.2295 29.3169 69.6211 30.2124 69.1836C31.1011 68.7461 32.1436 68.5273 33.3398 68.5273C34.5156 68.5273 35.5478 68.7461 36.4365 69.1836C37.3252 69.6211 38.0156 70.2295 38.5078 71.0088C39 71.7881 39.2461 72.6973 39.2461 73.7363ZM37.667 73.7363C37.667 72.9434 37.4653 72.2939 37.062 71.7881C36.6587 71.2822 36.1289 70.9062 35.4727 70.6602C34.8096 70.4141 34.0986 70.291 33.3398 70.291C32.5674 70.291 31.8496 70.4141 31.1865 70.6602C30.5234 70.9062 29.9902 71.2822 29.5869 71.7881C29.1768 72.2939 28.9717 72.9434 28.9717 73.7363C28.9717 74.5156 29.1768 75.1582 29.5869 75.6641C29.9902 76.1699 30.5234 76.5459 31.1865 76.792C31.8496 77.0381 32.5674 77.1611 33.3398 77.1611C34.0986 77.1611 34.8096 77.0381 35.4727 76.792C36.1289 76.5459 36.6587 76.1699 37.062 75.6641C37.4653 75.1582 37.667 74.5156 37.667 73.7363ZM39.2461 62.1904C39.2461 63.2568 38.9932 64.1797 38.4873 64.959C37.9746 65.7314 37.2739 66.3296 36.3852 66.7534C35.4966 67.1704 34.4814 67.3789 33.3398 67.3789C32.1709 67.3789 31.1421 67.1636 30.2534 66.7329C29.3579 66.3022 28.6572 65.7007 28.1514 64.9282C27.6455 64.1489 27.3926 63.2432 27.3926 62.2109C27.3926 61.4043 27.543 60.6797 27.8437 60.0371C28.1377 59.3877 28.5547 58.8579 29.0947 58.4478C29.6348 58.0308 30.2637 57.7744 30.9814 57.6787L30.9814 59.4424C30.6328 59.5312 30.3047 59.6919 29.9971 59.9243C29.6894 60.1567 29.4434 60.4644 29.2588 60.8472C29.0674 61.2231 28.9717 61.6709 28.9717 62.1904C28.9717 62.874 29.1494 63.4722 29.5049 63.9849C29.8603 64.4976 30.3628 64.8975 31.0122 65.1846C31.6548 65.4717 32.4102 65.6152 33.2783 65.6152C34.1602 65.6152 34.9326 65.4751 35.5957 65.1948C36.2519 64.9146 36.7612 64.5181 37.1235 64.0054C37.4858 63.4858 37.667 62.8809 37.667 62.1904C37.667 61.5 37.4893 60.9087 37.1338 60.4165C36.7715 59.9243 36.2793 59.5996 35.6572 59.4424L35.6572 57.6787C36.334 57.7744 36.9424 58.0205 37.4824 58.417C38.0225 58.8066 38.4531 59.3228 38.7744 59.9653C39.0889 60.6011 39.2461 61.3428 39.2461 62.1904ZM39.2461 51.2187C39.2461 52.3193 39 53.2729 38.5078 54.0796C38.0156 54.8794 37.3286 55.4946 36.4468 55.9253C35.5581 56.356 34.5293 56.5713 33.3603 56.5713C32.1846 56.5713 31.1489 56.3594 30.2534 55.9355C29.3579 55.5117 28.6572 54.917 28.1514 54.1514C27.6455 53.3789 27.3926 52.4766 27.3926 51.4443C27.3926 50.8496 27.4917 50.2583 27.6899 49.6704C27.8882 49.0825 28.2095 48.5493 28.6538 48.0708C29.0981 47.5854 29.686 47.1992 30.4175 46.9121C31.1489 46.625 32.0478 46.4814 33.1143 46.4814L33.873 46.4814L33.873 55.3203L32.3555 55.3203L32.3555 47.4351L32.9297 48.2451C32.1641 48.2451 31.4839 48.3647 30.8892 48.604C30.2944 48.8433 29.8262 49.2021 29.4844 49.6807C29.1426 50.1523 28.9717 50.7402 28.9717 51.4443C28.9717 52.1484 29.146 52.7534 29.4946 53.2593C29.8364 53.7583 30.2842 54.1411 30.8379 54.4077C31.3916 54.6743 31.9863 54.8076 32.6221 54.8076L33.6269 54.8076C34.4951 54.8076 35.23 54.6572 35.8315 54.3564C36.4331 54.0557 36.8911 53.6353 37.2056 53.0952C37.5132 52.5552 37.667 51.9297 37.667 51.2187C37.667 50.7607 37.602 50.3437 37.4722 49.9678C37.3354 49.5918 37.1338 49.2671 36.8672 48.9937C36.5937 48.7202 36.2588 48.5117 35.8623 48.3682L36.3545 46.666C36.9287 46.8437 37.4346 47.1445 37.8721 47.5684C38.3027 47.9854 38.6411 48.5049 38.8872 49.127C39.1265 49.749 39.2461 50.4463 39.2461 51.2187ZM39.2666 41.457C39.2666 42.1816 39.1299 42.8413 38.8564 43.436C38.5762 44.0308 38.1728 44.5024 37.6465 44.8511C37.1201 45.1997 36.4844 45.374 35.7393 45.374C35.083 45.374 34.5532 45.2441 34.1499 44.9844C33.7397 44.7246 33.4185 44.3794 33.186 43.9487C32.9468 43.5112 32.769 43.0327 32.6528 42.5132C32.5366 41.9868 32.4443 41.457 32.376 40.9238C32.2871 40.2266 32.2187 39.6626 32.1709 39.2319C32.123 38.7944 32.041 38.4766 31.9248 38.2783C31.8086 38.0732 31.6103 37.9707 31.3301 37.9707L31.2685 37.9707C30.5371 37.9707 29.9697 38.1724 29.5664 38.5757C29.1562 38.9722 28.9512 39.5771 28.9512 40.3906C28.9512 41.2246 29.1357 41.8809 29.5049 42.3594C29.8672 42.8379 30.2568 43.1729 30.6738 43.3643L30.0791 45.0459C29.3818 44.7451 28.8384 44.3452 28.4487 43.8462C28.0591 43.3403 27.7856 42.7935 27.6284 42.2056C27.4712 41.6108 27.3926 41.0264 27.3926 40.4521C27.3926 40.083 27.437 39.6592 27.5259 39.1807C27.6079 38.7021 27.7856 38.2373 28.0591 37.7861C28.3257 37.3281 28.7324 36.9521 29.2793 36.6582C29.8193 36.3574 30.5439 36.207 31.4531 36.207L39 36.207L39 37.9707L37.4414 37.9707L37.4414 38.0527C37.6875 38.1689 37.9541 38.3672 38.2412 38.6475C38.5215 38.9277 38.7642 39.3003 38.9692 39.7651C39.1675 40.2231 39.2666 40.7871 39.2666 41.457ZM37.6875 41.1904C37.6875 40.4932 37.5508 39.9053 37.2773 39.4268C37.0039 38.9482 36.6518 38.5859 36.2212 38.3398C35.7837 38.0937 35.3291 37.9707 34.8574 37.9707L33.2373 37.9707C33.3262 38.0459 33.4082 38.21 33.4834 38.4629C33.5518 38.709 33.6133 38.9961 33.668 39.3242C33.7227 39.6455 33.7705 39.96 33.8115 40.2676C33.8457 40.5752 33.873 40.8213 33.8935 41.0059C33.9551 41.4639 34.0542 41.8911 34.1909 42.2876C34.3208 42.6841 34.5156 43.0054 34.7754 43.2515C35.0352 43.4907 35.3906 43.6104 35.8418 43.6104C36.4502 43.6104 36.9116 43.3848 37.2261 42.9336C37.5337 42.4756 37.6875 41.8945 37.6875 41.1904ZM32.1094 32.208L39 32.208L39 33.9512L27.5361 33.9512L27.5361 32.2695L29.3408 32.2695L29.3408 32.1055C28.7529 31.8389 28.2812 31.4321 27.9258 30.8853C27.5703 30.3384 27.3926 29.6309 27.3926 28.7627C27.3926 27.9902 27.5498 27.3135 27.8643 26.7324C28.1787 26.1514 28.6572 25.7002 29.2998 25.3789C29.9355 25.0508 30.7422 24.8867 31.7197 24.8867L39 24.8867L39 26.6299L31.8428 26.6299C30.9473 26.6299 30.2466 26.8657 29.7407 27.3374C29.228 27.8091 28.9717 28.4517 28.9717 29.2651C28.9717 29.8257 29.0947 30.3281 29.3408 30.7725C29.5869 31.2168 29.9424 31.5688 30.4072 31.8286C30.8721 32.0815 31.4394 32.208 32.1094 32.208ZM39.123 21.2671C39.123 21.6362 38.9932 21.9541 38.7334 22.2207C38.4668 22.4805 38.1489 22.6104 37.7798 22.6104C37.4106 22.6104 37.0962 22.4805 36.8364 22.2207C36.5698 21.9541 36.4365 21.6362 36.4365 21.2671C36.4365 20.8979 36.5698 20.5835 36.8364 20.3237C37.0962 20.0571 37.4106 19.9238 37.7798 19.9238C38.1489 19.9238 38.4668 20.0571 38.7334 20.3237C38.9932 20.5835 39.123 20.8979 39.123 21.2671ZM39 17.6475L27.5361 17.6475L27.5361 15.9658L29.2793 15.9658L29.2793 15.8428C28.7119 15.6309 28.2539 15.2515 27.9053 14.7046C27.5498 14.1509 27.3721 13.5322 27.3721 12.8486C27.3721 12.7187 27.3755 12.5581 27.3823 12.3667C27.3823 12.1753 27.3857 12.0283 27.3926 11.9258L29.1768 11.9258C29.1631 11.9873 29.1426 12.124 29.1152 12.3359C29.0879 12.5479 29.0742 12.7734 29.0742 13.0127C29.0742 13.5664 29.1904 14.062 29.4228 14.4995C29.6553 14.937 29.9731 15.2822 30.3765 15.5352C30.7798 15.7812 31.2412 15.9043 31.7607 15.9043L39 15.9043L39 17.6475ZM34.3242 3.59961L27.5361 3.59961L27.5361 1.85644L39 1.85644L39 3.59961L37.0518 3.59961L37.0518 3.72266C37.6328 3.99609 38.1284 4.4165 38.5386 4.98389C38.9487 5.54443 39.1504 6.25879 39.1435 7.12695C39.1435 7.84473 38.9897 8.48047 38.6821 9.03418C38.3677 9.58789 37.8892 10.0254 37.2466 10.3467C36.604 10.6611 35.7939 10.8184 34.8164 10.8184L27.5361 10.8184L27.5361 9.07519L34.7139 9.07519C35.541 9.07519 36.2041 8.83935 36.7031 8.36768C37.2021 7.88916 37.4482 7.28418 37.4414 6.55273C37.4414 6.11523 37.332 5.6709 37.1133 5.21973C36.8877 4.76172 36.5459 4.37891 36.0879 4.07129C35.623 3.75684 35.0351 3.59961 34.3242 3.59961Z" fill="white"/>
<path fill-rule="evenodd" clip-rule="evenodd" d="M50.417 222.729C50.4452 223.236 50.2133 223.609 49.719 223.846C49.5781 224.479 49.4676 225.117 49.3895 225.763C49.3418 226.006 49.2725 226.242 49.1803 226.47C49.435 226.503 49.6778 226.512 49.9065 226.498C49.6421 226.91 49.279 227.206 48.8172 227.386C48.4856 228.134 47.9664 228.709 47.2586 229.113C47.1892 229.077 47.1307 229.027 47.083 228.964C47.0245 228.231 47.1849 227.547 47.5643 226.909C47.3659 226.571 47.2955 226.211 47.3518 225.828C47.5415 225.988 47.7442 226.067 47.961 226.066C48.3815 225.302 48.8465 224.569 49.3559 223.867C49.0806 223.592 48.9603 223.266 48.995 222.888C49.2627 223.158 49.5868 223.254 49.9651 223.175C50.1797 223.082 50.3314 222.933 50.4192 222.728L50.417 222.729Z" fill="white"/>
<path fill-rule="evenodd" clip-rule="evenodd" d="M39.8817 198.948C40.1006 199.152 40.2513 199.401 40.3326 199.7C40.3879 200.039 40.4692 200.368 40.5754 200.69C41.7806 201.081 42.9838 201.48 44.1858 201.885C44.3451 201.694 44.5185 201.512 44.706 201.339C45.0247 201.692 45.2328 202.102 45.3304 202.568C46.0739 203.174 46.7914 203.811 47.4829 204.479C47.639 204.672 47.7778 204.877 47.8992 205.093C47.9826 205.321 47.9024 205.446 47.6564 205.468C46.6559 205.577 45.7065 205.407 44.8101 204.957C44.1814 205.192 43.5333 205.271 42.8667 205.196C43.2265 204.916 43.5734 204.62 43.9083 204.308C43.3783 203.864 42.8223 203.455 42.2424 203.079C41.8869 202.955 41.5389 202.819 41.2008 202.669C41.2929 202.579 41.3861 202.487 41.4782 202.396C41.0588 201.962 40.6653 201.506 40.2979 201.031C39.9868 201.024 39.6747 201.035 39.3603 201.065C39.0829 201.075 38.8162 201.03 38.5615 200.929C39.4687 200.579 39.9099 199.918 39.8817 198.948Z" fill="white"/>
<path fill-rule="evenodd" clip-rule="evenodd" d="M0.52596 230.648C0.592077 230.621 0.656026 230.626 0.717807 230.662C0.857628 230.847 1.01371 231.02 1.18604 231.179C2.00112 231.655 2.69047 232.274 3.25409 233.037C3.74075 233.069 4.21766 233.152 4.68589 233.287C3.99763 233.456 3.69956 233.882 3.78953 234.565C3.97704 235.293 4.20899 236.007 4.48646 236.707C4.75201 236.774 5.0154 236.851 5.27444 236.938C5.03057 237.007 4.92977 237.162 4.97529 237.402C5.13029 237.611 5.28637 237.819 5.44244 238.029C5.77628 238.105 6.09819 238.213 6.41035 238.352C6.14697 238.356 5.89009 238.412 5.63971 238.521C5.50531 238.868 5.42185 239.226 5.38933 239.596C5.19749 239.153 5.12053 238.686 5.15738 238.194C4.99263 237.967 4.81054 237.753 4.61111 237.554C4.43443 237.467 4.27944 237.49 4.14721 237.627C4.10602 237.577 4.06592 237.53 4.02473 237.481C4.05291 237.269 4.02473 237.069 3.94127 236.879C3.24108 236.331 2.5474 235.775 1.86022 235.21C1.53505 235.318 1.33237 235.542 1.25324 235.881C0.954093 235.371 0.919409 234.84 1.14811 234.29C0.974687 233.681 0.801266 233.071 0.627845 232.462C0.590993 231.941 0.498863 231.429 0.352539 230.925C0.405649 230.825 0.463095 230.732 0.524876 230.649L0.52596 230.648Z" fill="white"/>
<path fill-rule="evenodd" clip-rule="evenodd" d="M10.5703 213.58C10.5876 214.128 10.8022 214.589 11.2152 214.967C11.8308 215.48 12.4855 215.942 13.1792 216.353C13.2041 216.413 13.229 216.473 13.2529 216.532C12.5765 216.672 11.9089 216.854 11.2499 217.079C11.0385 217.164 10.8553 217.287 10.6992 217.45C11.1155 217.932 10.9984 218.158 10.3491 218.13C10.2028 218.242 10.1139 218.394 10.0814 218.583C10.0684 219.354 10.296 220.054 10.7643 220.683C11.0851 221.046 11.4048 221.408 11.7257 221.77C10.4976 220.974 9.84731 219.859 9.77469 218.426C9.60777 218.288 9.45603 218.132 9.31838 217.959C9.34006 217.768 9.32597 217.581 9.27827 217.398C8.70057 216.65 7.96028 216.119 7.05957 215.803C7.08558 215.666 7.16471 215.574 7.29802 215.528C8.1066 215.247 8.89025 214.906 9.64679 214.505C9.83864 214.39 9.99689 214.241 10.1215 214.056C10.076 213.685 10.2256 213.527 10.5713 213.582L10.5703 213.58Z" fill="white"/>
<path fill-rule="evenodd" clip-rule="evenodd" d="M45.1058 245.864C45.1491 245.857 45.1892 245.866 45.2239 245.893C44.9031 246.32 44.7058 246.795 44.6332 247.317C44.6332 247.497 44.6635 247.671 44.7221 247.84C44.8521 248.079 44.9703 248.312 45.0765 248.538C44.8424 248.474 44.6158 248.386 44.3969 248.276C44.1509 248.121 43.9146 247.957 43.688 247.783C43.1873 247.936 42.7147 248.14 42.2703 248.393C42.2996 248.508 42.3581 248.605 42.4481 248.684C42.1132 248.703 41.7783 248.722 41.4433 248.742C40.5275 249.176 39.5628 249.418 38.5483 249.468C38.7185 249.878 38.9742 250.238 39.3168 250.544C38.4952 250.488 37.7863 250.178 37.1891 249.614C36.4152 249.648 35.6662 249.532 34.9433 249.266C34.7916 249.22 34.6734 249.133 34.5889 249.004C34.7807 248.671 35.0571 248.428 35.4159 248.279C36.0987 247.943 36.8087 247.671 37.5435 247.465C37.7668 246.974 38.0822 246.548 38.4887 246.187L38.6664 246.1C38.7726 246.511 38.9493 246.889 39.1986 247.233C40.1644 247.266 41.129 247.286 42.0937 247.292C42.2649 247.094 42.4611 246.929 42.6844 246.798C42.7288 246.953 42.7689 247.107 42.8025 247.263C43.1385 247.334 43.4734 247.324 43.8073 247.234C44.1509 246.692 44.5844 246.237 45.1069 245.869L45.1058 245.864Z" fill="white"/>
<path fill-rule="evenodd" clip-rule="evenodd" d="M23.4539 194.746C23.5179 194.647 23.5255 194.544 23.4767 194.439C22.3538 194.101 21.22 194.063 20.0755 194.322C19.5487 194.003 18.9753 193.846 18.3575 193.853C18.2946 193.884 18.2524 193.932 18.2318 193.999C18.441 194.188 18.6144 194.408 18.751 194.66C18.8095 194.75 18.8008 194.833 18.726 194.908C17.5782 195.379 16.5539 196.041 15.6543 196.894C15.3086 196.931 14.9856 197.038 14.6875 197.217C14.6355 197.242 14.629 197.278 14.668 197.323C14.7753 197.395 14.8512 197.485 14.8945 197.596C14.3439 198.09 13.7825 198.572 13.2102 199.043C13.1397 199.081 13.0649 199.096 12.9847 199.087C12.3864 198.827 11.7968 198.837 11.2158 199.114C11.644 199.305 12.045 199.538 12.4178 199.816C12.5197 200.616 12.5349 201.419 12.4612 202.225C12.6758 202.028 12.8492 201.798 12.9815 201.534C13.2015 200.839 13.4107 200.144 13.609 199.45C13.8497 199.268 14.1163 199.155 14.4078 199.111C14.5661 199.258 14.694 199.43 14.7883 199.625C14.9877 199.306 15.1969 198.996 15.418 198.693C16.5691 198.249 17.7267 197.828 18.8919 197.431C18.9775 197.418 19.062 197.427 19.1444 197.455C19.3926 197.679 19.6419 197.904 19.8912 198.13C19.9324 198.14 19.9714 198.138 20.0104 198.125C20.2489 197.67 20.444 197.199 20.5957 196.713C21.5951 196.12 22.5478 195.465 23.4528 194.747L23.4539 194.746Z" fill="white"/>
<path fill-rule="evenodd" clip-rule="evenodd" d="M50.5696 206.644C50.6639 206.695 50.7094 206.779 50.7062 206.896C50.6899 207.168 50.6401 207.433 50.5566 207.693C50.3724 208.101 50.1534 208.485 49.8998 208.847C50.4873 209.864 50.9316 210.939 51.2319 212.073C51.5906 212.347 51.9895 212.542 52.4296 212.658C52.1944 213.012 51.8887 213.296 51.5148 213.51C51.5191 214.111 51.5625 214.71 51.6459 215.307C51.7218 215.48 51.8399 215.617 52.0014 215.719C52.3938 215.945 52.7862 216.17 53.1764 216.393C53.0626 216.648 52.9011 216.873 52.693 217.068C52.2681 217.361 51.8226 217.616 51.3565 217.832C50.9056 218.952 50.4537 220.071 50.0028 221.191C49.8857 221.411 49.7036 221.492 49.4576 221.433C49.3123 221.282 49.2104 221.105 49.1519 220.901C48.6544 219.32 48.417 217.707 48.4431 216.058C47.5185 215.542 46.7663 214.847 46.1875 213.974C46.9603 214.266 47.7656 214.472 48.6024 214.59C48.5818 214.435 48.5796 214.28 48.5981 214.124C48.7411 213.55 48.8463 212.969 48.9156 212.383C48.8441 211.917 48.7509 211.457 48.6371 211.005C48.8246 210.999 48.9774 211.076 49.0977 211.234C49.2538 210.501 49.2787 209.761 49.1725 209.015C48.4452 208.703 47.8849 208.209 47.4947 207.531C47.512 207.502 47.5293 207.471 47.5478 207.441C48.8051 208.056 49.812 207.79 50.5707 206.645L50.5696 206.644Z" fill="white"/>
<path fill-rule="evenodd" clip-rule="evenodd" d="M6.19944 218.181C6.38587 218.15 6.53327 218.208 6.64275 218.356C6.74463 218.54 6.82375 218.734 6.87903 218.937C7.05787 220.106 7.27465 221.269 7.52936 222.423C8.24472 222.862 8.89397 223.386 9.47926 223.992C9.88355 224.469 10.1892 225.001 10.3951 225.59C10.3756 225.619 10.3561 225.649 10.3355 225.678C9.59741 225.194 8.78991 225.009 7.91305 225.125C7.86428 225.173 7.81442 225.222 7.76565 225.27C7.72338 225.93 7.74289 226.589 7.82526 227.247C7.964 228.261 8.14175 229.269 8.35745 230.268C8.7032 230.58 8.96984 230.948 9.15518 231.373C9.00235 231.429 8.84519 231.449 8.68261 231.431C8.79317 231.98 8.97959 232.503 9.24406 233C9.54755 233.24 9.83261 233.502 10.1014 233.785C9.9074 233.836 9.71013 233.874 9.51069 233.901C9.75782 234.341 9.99519 234.787 10.2196 235.238C10.9956 235.297 11.7641 235.414 12.5239 235.586C12.9531 235.708 13.3671 235.862 13.7649 236.051C12.8761 236.069 11.9895 236.127 11.1062 236.226C10.7886 236.646 10.523 237.101 10.3084 237.591C10.0754 238.107 9.85862 238.63 9.6581 239.16C9.54538 237.978 9.69387 236.825 10.1014 235.702C9.5573 235.264 9.07498 234.771 8.65335 234.221C8.55796 234.351 8.44958 234.467 8.32818 234.569C8.22088 234.209 8.15259 233.841 8.12116 233.465C7.53586 232.889 6.99392 232.279 6.49642 231.635C6.35552 231.66 6.22762 231.729 6.11273 231.838C5.96532 231.445 5.88728 231.039 5.87644 230.618C4.53026 229.05 3.86042 227.228 3.86693 225.155C3.84742 225.136 3.82791 225.117 3.80731 225.097C3.54501 225.168 3.27838 225.236 3.00958 225.3C2.55435 225.486 2.10129 225.669 1.65039 225.852C1.86717 224.999 2.27145 224.244 2.86217 223.586C3.18083 223.273 3.49516 222.964 3.80731 222.657C4.11947 221.561 4.514 220.495 4.98874 219.461C5.30307 218.948 5.70627 218.523 6.20052 218.183L6.19944 218.181Z" fill="white"/>
<path fill-rule="evenodd" clip-rule="evenodd" d="M42.3644 242.2C42.386 242.275 42.4316 242.329 42.5009 242.363C42.6245 242.353 42.7491 242.341 42.8727 242.33C44.634 241.77 46.2284 240.906 47.6548 239.74C48.7441 239.529 49.7326 239.094 50.6214 238.436C50.8002 238.277 50.9595 238.103 51.0994 237.913C50.5444 238.067 49.9927 238.06 49.4464 237.893C49.3944 237.873 49.3792 237.838 49.3988 237.786C50.1987 236.759 50.8013 235.623 51.2078 234.38C51.7118 234.033 52.1225 233.603 52.4412 233.09C52.1507 233.128 51.8581 233.149 51.5643 233.149C51.7562 232.142 52.0033 231.149 52.3046 230.168C52.4174 229.986 52.5659 229.838 52.7512 229.723C53.3051 229.489 53.8156 229.187 54.2816 228.812C53.9836 228.697 53.6855 228.582 53.3874 228.467C52.8444 227.431 52.2808 226.405 51.6987 225.388C51.599 225.759 51.5524 226.137 51.5589 226.525C51.6326 227.449 51.7605 228.367 51.9415 229.277C51.8429 229.862 51.5004 230.231 50.9173 230.383C50.7081 230.273 50.526 230.129 50.371 229.951C50.3114 230.082 50.2865 230.219 50.2962 230.363C50.3439 230.716 50.3612 231.069 50.3461 231.42C49.1083 232.756 47.9106 234.126 46.753 235.529C46.6359 235.624 46.5015 235.66 46.3498 235.639C46.0105 235.552 45.6821 235.439 45.3624 235.302C45.2941 235.3 45.2432 235.332 45.2117 235.398C45.073 235.965 45.0773 236.533 45.2269 237.103C44.3088 238.394 43.4743 239.735 42.7242 241.125C42.5605 241.478 42.4402 241.836 42.3633 242.199L42.3644 242.2Z" fill="white"/>
<path fill-rule="evenodd" clip-rule="evenodd" d="M11.5107 227.569C11.9172 227.595 12.2922 227.721 12.6336 227.947C13.2644 228.392 13.8942 228.838 14.525 229.283C15.7249 229.215 16.8673 229.428 17.9522 229.923L18.0118 229.981C17.5707 230.041 17.1372 230.138 16.7123 230.273C16.5454 230.345 16.3871 230.432 16.2397 230.534C17.1458 231.193 17.9533 231.959 18.6622 232.829C18.9602 232.886 19.2551 232.953 19.5488 233.032C19.4382 233.15 19.3396 233.276 19.2529 233.409C19.5325 233.794 19.8967 234.075 20.3465 234.253C21.0554 233.982 21.774 233.952 22.5034 234.165C22.0265 234.382 21.5637 234.625 21.115 234.891C21.0207 235.449 21.0012 236.01 21.0554 236.576C21.0738 236.65 21.1031 236.718 21.1443 236.78C21.1052 236.818 21.0651 236.818 21.0261 236.78C20.4289 236.227 19.9964 235.568 19.7265 234.804C19.177 234.566 18.6156 234.362 18.0422 234.194C18.0227 234.349 18.0032 234.504 17.9826 234.659C17.7365 234.495 17.5295 234.291 17.3626 234.049C16.231 233.697 15.1569 233.223 14.1424 232.625C13.7316 233.105 13.5354 233.666 13.5517 234.31C13.3685 234.002 13.2298 233.673 13.1376 233.322C13.0152 232.727 12.936 232.127 12.9013 231.521C12.3442 230.773 11.9107 229.959 11.6018 229.08C11.4479 228.583 11.4186 228.079 11.5129 227.569H11.5107Z" fill="white"/>
<path fill-rule="evenodd" clip-rule="evenodd" d="M61.2526 229.765C61.399 229.951 61.4629 230.169 61.4445 230.418C61.3567 230.898 61.1974 231.353 60.9654 231.783C60.6847 232.288 60.3747 232.773 60.0365 233.236C59.5488 233.797 59.074 234.367 58.6156 234.947C58.5484 235.889 58.415 236.822 58.2156 237.745C58.3088 237.99 58.4985 238.11 58.7836 238.103C58.7359 238.286 58.6546 238.455 58.5408 238.612C58.3283 238.83 58.1159 239.05 57.9035 239.268C57.5848 240.395 57.1458 241.472 56.5844 242.5C56.5941 242.535 56.6125 242.565 56.6375 242.591C57.1166 242.798 57.5956 243.004 58.0758 243.211C58.169 243.253 58.2427 243.317 58.2991 243.401C57.911 243.701 57.4818 243.925 57.0093 244.072C56.4218 244.225 55.8246 244.301 55.2165 244.303C54.0557 245.482 52.7626 246.482 51.3373 247.305C50.5482 247.714 49.7191 248.008 48.8476 248.188C48.6872 248.216 48.53 248.206 48.3761 248.156C48.348 248.122 48.3306 248.081 48.3252 248.037C48.4997 247.65 48.7132 247.285 48.9636 246.943C50.0659 245.615 51.1455 244.27 52.2033 242.907C52.2467 242.852 52.251 242.794 52.2152 242.734C51.837 242.092 51.657 241.4 51.6776 240.659C52.2727 240.784 52.8645 240.922 53.4563 241.07C53.7164 241.129 53.9386 241.067 54.1207 240.881C55.0962 239.796 55.9557 238.631 56.7014 237.384C56.6635 237.071 56.6743 236.762 56.7361 236.454C56.8261 236.512 56.9106 236.575 56.9897 236.646C57.3062 236.152 57.5588 235.624 57.7506 235.066C57.6932 234.797 57.6032 234.539 57.4786 234.292C57.1556 233.678 56.8326 233.065 56.5096 232.451C57.3767 232.778 58.2275 232.737 59.0643 232.33C60.0344 231.674 60.7638 230.82 61.2548 229.768L61.2526 229.765Z" fill="white"/>
<path fill-rule="evenodd" clip-rule="evenodd" d="M45.2595 228.665C45.2422 228.949 45.1728 229.24 45.0525 229.536C44.8986 230.093 45.046 230.548 45.4958 230.902C45.7202 231.04 45.9564 231.157 46.2047 231.25C45.9088 231.289 45.6139 231.289 45.318 231.25C45.0362 231.171 44.7598 231.093 44.491 231.018C44.2634 231.159 44.0477 231.313 43.8407 231.483L44.077 231.715C43.9448 231.782 43.8071 231.84 43.663 231.89C43.3757 232.192 43.0701 232.473 42.7471 232.733C42.772 232.849 42.8208 232.966 42.8945 233.082C42.8826 233.116 42.862 233.145 42.8349 233.169C42.5964 233.22 42.3601 233.278 42.126 233.344C41.7022 233.601 41.2687 233.843 40.8264 234.07C40.7755 234.3 40.7755 234.532 40.8264 234.767C40.6682 234.776 40.5099 234.767 40.3539 234.738C40.1328 234.629 39.916 234.523 39.7035 234.418C38.4517 234.715 37.1911 234.773 35.9219 234.593C35.9587 234.43 36.0379 234.284 36.1582 234.157C37.229 233.378 38.391 232.749 39.645 232.268C39.7426 231.873 39.9398 231.534 40.2357 231.252C40.2921 231.224 40.3506 231.214 40.4135 231.223C40.4135 231.473 40.472 231.706 40.5912 231.92C41.3716 231.604 42.1596 231.304 42.9552 231.019C43.1026 230.835 43.2511 230.651 43.3985 230.467C43.4646 230.575 43.4949 230.691 43.4874 230.816C43.8017 230.777 44.0965 230.68 44.374 230.525C44.5431 229.842 44.8379 229.223 45.2595 228.665Z" fill="white"/>
<path fill-rule="evenodd" clip-rule="evenodd" d="M44.5175 194.672C44.7972 194.742 45.0237 194.897 45.1971 195.137C45.3846 195.536 45.5722 195.934 45.7586 196.328C46.9303 196.681 48.0326 197.176 49.0677 197.81C49.3441 197.5 49.5608 197.151 49.718 196.764C49.9359 196.921 50.0638 197.134 50.1017 197.404C50.2068 197.784 50.2654 198.171 50.2794 198.566C51.2343 199.476 51.954 200.541 52.4364 201.761C52.4299 201.816 52.4104 201.865 52.3768 201.906C52.0028 202.018 51.6289 202.018 51.2539 201.906C50.1613 201.62 49.098 201.251 48.0629 200.802C47.664 200.724 47.2695 200.646 46.8815 200.57C47.2186 200.214 47.2673 199.816 47.0289 199.378C46.5856 198.426 46.0534 197.535 45.4334 196.705C45.0616 196.841 44.678 196.899 44.2812 196.879C44.3181 196.562 44.485 196.329 44.7831 196.182C44.7993 195.999 44.7603 195.825 44.6649 195.659C44.5967 195.332 44.5468 195.002 44.5175 194.671V194.672Z" fill="white"/>
<path fill-rule="evenodd" clip-rule="evenodd" d="M54.9094 212.041C54.9875 212.054 55.0568 212.038 55.1186 211.991C55.7332 210.916 56.1364 209.769 56.3271 208.55C56.9753 207.987 57.32 207.284 57.3612 206.44C56.9883 206.861 56.5266 207.056 55.976 207.024C55.6909 206.527 55.4362 206.012 55.2129 205.48C55.1305 204.977 55.2953 204.576 55.7071 204.279C55.6161 204.22 55.5175 204.216 55.4123 204.267C55.3137 204.248 55.2259 204.205 55.1511 204.14C55.0958 203.861 55.0579 203.579 55.0384 203.293C55.2736 203.051 55.5012 202.798 55.7202 202.535C55.7017 202.515 55.6822 202.495 55.6638 202.474C55.4004 202.616 55.1229 202.653 54.8314 202.586C54.5886 202.165 54.2992 201.775 53.9632 201.417C54.0932 202.039 54.3241 202.631 54.658 203.19C54.7815 203.691 54.6374 204.082 54.2244 204.364C53.5762 204.211 53.4917 204.343 53.9708 204.761C54.2038 204.817 54.336 204.958 54.3675 205.184C54.0618 205.995 53.8494 206.83 53.7301 207.688C53.7345 207.869 53.7659 208.045 53.8266 208.215C53.5437 208.523 53.2164 208.568 52.8457 208.35C52.9357 208.66 53.1123 208.928 53.3736 209.157C53.6478 209.33 53.9057 209.525 54.1474 209.741C54.2938 210.374 54.465 211.002 54.6601 211.622C54.7132 211.781 54.7967 211.921 54.9083 212.039L54.9094 212.041Z" fill="white"/>
<path fill-rule="evenodd" clip-rule="evenodd" d="M13.3184 203.91C13.3564 203.844 13.4149 203.829 13.4918 203.864C14.5161 204.587 15.6379 205.122 16.8551 205.472C17.1207 205.611 17.3375 205.805 17.5055 206.053C17.8014 206.044 18.0973 206.035 18.3932 206.027C18.469 206.072 18.4744 206.12 18.4072 206.172C18.1222 206.286 17.8707 206.446 17.6529 206.653C17.5434 206.947 17.5987 207.205 17.8176 207.425C18.1211 207.452 18.4202 207.482 18.7172 207.515C18.6728 207.633 18.6034 207.738 18.5102 207.826C18.2197 207.954 17.9585 208.125 17.7298 208.338C17.0166 209.438 16.3349 210.554 15.6835 211.685C15.742 210.619 15.2727 209.865 14.2744 209.425C14.204 209.314 14.1335 209.204 14.0641 209.095C12.7526 210.373 12.202 211.924 12.4134 213.746C12.0243 212.275 12.266 210.91 13.1396 209.649C13.4604 209.277 13.7693 208.897 14.0663 208.511C13.894 208.452 13.804 208.334 13.7942 208.157C13.9005 207.542 13.9688 206.922 13.998 206.299C14.05 205.417 13.8235 204.621 13.3184 203.911V203.91Z" fill="white"/>
<path fill-rule="evenodd" clip-rule="evenodd" d="M43.3586 235.911C43.3911 235.914 43.4106 235.934 43.4182 235.97C42.447 237.067 41.2851 237.91 39.9314 238.498C38.9028 240.162 37.5739 241.547 35.9427 242.653C35.9015 242.701 35.9123 242.741 35.9719 242.769C36.2342 242.832 36.49 242.91 36.7404 243.002C36.4781 243.208 36.1822 243.353 35.8538 243.438C35.3845 243.569 34.9119 243.685 34.4361 243.786C33.4118 244.45 32.3182 244.982 31.1563 245.384C31.1378 245.856 31.1974 246.321 31.334 246.778C31.5714 247.712 31.8575 248.633 32.1914 249.539C32.1838 249.601 32.1545 249.649 32.1025 249.684C31.4316 249.392 30.8398 248.985 30.3293 248.463C29.6171 247.686 28.9972 246.843 28.4682 245.935C28.233 245.906 27.9967 245.897 27.7594 245.906C27.7811 246.647 27.8309 247.383 27.9068 248.115C27.2261 247.55 26.8218 246.834 26.695 245.965C25.0898 245.713 23.8195 244.938 22.8841 243.64C22.7117 243.428 22.702 243.215 22.8548 243.001C23.0933 242.872 23.3501 242.803 23.6233 242.797C25.4214 242.806 27.2142 242.709 29.0004 242.506C30.5785 242.297 32.0949 241.881 33.5506 241.257C34.0058 240.752 34.4979 240.287 35.0279 239.863C35.0907 240.187 35.21 240.486 35.3823 240.763C36.3546 240.787 37.2021 240.477 37.9229 239.834C38.4508 239.324 38.9244 238.772 39.3406 238.177C39.1987 237.966 39.0805 237.744 38.9862 237.509C39.6192 237.475 40.2294 237.338 40.818 237.102C41.6536 236.671 42.5012 236.274 43.3586 235.91V235.911Z" fill="white"/>
<path fill-rule="evenodd" clip-rule="evenodd" d="M32.949 202.028C33.4064 202.509 33.7305 203.071 33.9245 203.714C34.047 204.154 34.1358 204.598 34.19 205.05C34.4469 205.112 34.7027 205.179 34.9585 205.254C35.2782 205.299 35.5926 205.28 35.9036 205.195C35.9947 205.083 36.063 204.958 36.1107 204.818C36.3795 205.063 36.6645 205.286 36.968 205.486C37.8102 205.785 38.6567 206.066 39.5086 206.329C39.5683 206.32 39.6268 206.31 39.6864 206.301C40.0159 206.015 40.302 205.696 40.5437 205.341C40.7952 205.915 40.9534 206.515 41.0163 207.143C42.4676 208.241 43.7867 209.48 44.9757 210.862C45.031 211.027 45.0017 211.173 44.8869 211.298C44.2799 211.481 43.6686 211.481 43.0551 211.298C42.356 211.056 41.6764 210.774 41.0163 210.455C40.172 210.79 39.2951 210.984 38.3868 211.035C38.1635 211.041 37.9468 211.012 37.7365 210.948C38.3901 210.538 39.0111 210.083 39.5975 209.583C39.6387 209.535 39.6279 209.495 39.5683 209.466C38.7196 208.971 37.9121 208.419 37.1458 207.81C36.7166 207.694 36.283 207.587 35.8462 207.49C35.8267 207.471 35.8072 207.452 35.7866 207.432C35.8657 207.296 35.9438 207.161 36.0229 207.024C35.3552 206.495 34.6463 206.02 33.8952 205.6C33.3132 205.734 32.7225 205.85 32.122 205.949C31.8586 205.999 31.6028 205.98 31.3535 205.89C32.0602 205.606 32.6217 205.151 33.0379 204.525C33.1614 203.688 33.1322 202.856 32.949 202.026V202.028Z" fill="#98D8E5"/>
<path fill-rule="evenodd" clip-rule="evenodd" d="M60.7236 217.604C60.6651 217.598 60.6196 217.571 60.5881 217.521C60.5589 217.332 60.5123 217.146 60.4494 216.965C60.0408 216.306 59.7806 215.592 59.6701 214.821C59.3265 214.613 59.0111 214.37 58.7217 214.093C59.2907 214.231 59.6766 214.033 59.8803 213.5C60.0299 212.897 60.1416 212.287 60.2142 211.67C60.0462 211.519 59.8847 211.363 59.7297 211.201C59.9356 211.243 60.0689 211.169 60.1307 210.976C60.0993 210.765 60.0679 210.553 60.0364 210.339C59.8229 210.157 59.6289 209.956 59.4566 209.735C59.6506 209.833 59.8598 209.89 60.0863 209.905C60.3215 209.702 60.5231 209.472 60.6922 209.214C60.6586 209.61 60.5307 209.981 60.3096 210.327C60.3399 210.556 60.3898 210.781 60.457 211.002C60.5513 211.134 60.6738 211.175 60.8244 211.126C60.8353 211.177 60.8461 211.228 60.8569 211.28C60.7529 211.422 60.6943 211.579 60.6813 211.751C60.9772 212.418 61.2656 213.088 61.5452 213.763C61.8248 213.808 62.0611 213.722 62.253 213.504C62.2703 213.99 62.0882 214.391 61.7034 214.707C61.5907 215.218 61.4769 215.73 61.3642 216.24C61.1864 216.635 61.052 217.044 60.9599 217.468C60.8819 217.522 60.8027 217.566 60.7247 217.604H60.7236Z" fill="#98D8E5"/>
<path fill-rule="evenodd" clip-rule="evenodd" d="M28.0714 234.783C28.1408 234.755 28.2123 234.744 28.2871 234.749C28.3033 235.173 28.3955 235.581 28.5635 235.976C28.6394 236.075 28.7402 236.13 28.8659 236.14C29.346 236.123 29.8262 236.089 30.3042 236.037C30.5903 235.775 30.8678 235.501 31.1366 235.217C31.1962 235.173 31.2634 235.145 31.3371 235.132C31.3837 235.288 31.4455 235.437 31.5246 235.579C31.6796 235.525 31.839 235.489 32.0016 235.471C32.1869 235.529 32.3614 235.608 32.524 235.712C33.2686 235.6 34.0165 235.517 34.7676 235.464C35.1101 235.483 35.445 235.535 35.7745 235.622C35.8537 235.637 35.8645 235.671 35.8049 235.725C35.2727 235.936 34.7275 236.1 34.1704 236.217C34.0252 236.254 33.9851 236.34 34.0479 236.474C33.7607 236.544 33.4713 236.553 33.1797 236.499C32.2498 237.028 31.2862 237.496 30.2879 237.903C29.6452 238.091 28.997 238.257 28.3435 238.4C28.4139 238.793 28.4919 239.188 28.5787 239.583C28.7618 240.039 28.984 240.477 29.2463 240.893C29.3168 241.064 29.2723 241.104 29.113 241.015C28.6578 240.723 28.26 240.364 27.9207 239.937C27.5208 239.398 27.1664 238.832 26.8564 238.239C25.7833 238.045 24.7981 237.64 23.9006 237.024C23.6654 236.856 23.4649 236.654 23.2991 236.418C23.2774 236.339 23.2947 236.269 23.3511 236.209C23.9342 236.034 24.5336 235.957 25.1471 235.976C25.7172 235.985 26.2862 235.999 26.8542 236.019C27.2791 235.626 27.6855 235.213 28.0736 234.783H28.0714Z" fill="#98D8E5"/>
<path fill-rule="evenodd" clip-rule="evenodd" d="M26.2507 192C26.8056 192.206 27.249 192.554 27.5806 193.046C27.7811 193.301 27.9589 193.572 28.1128 193.859C28.1659 193.893 28.2244 193.912 28.2906 193.918C28.8965 193.8 29.4969 193.665 30.0931 193.51C30.1126 193.452 30.1321 193.394 30.1527 193.336C30.1147 193.012 30.0454 192.702 29.9457 192.406C30.506 192.608 31.0079 192.908 31.4522 193.307C32.0722 193.322 32.6933 193.312 33.3133 193.278C33.9365 193.284 34.5565 193.324 35.1743 193.394C35.2643 193.392 35.3336 193.354 35.3813 193.278C35.5948 192.788 35.9395 192.419 36.4153 192.174C36.7112 192.288 36.8977 192.501 36.9768 192.813C37.0841 193.118 37.173 193.428 37.2423 193.743C38.815 194.351 40.3119 195.098 41.7329 195.98C41.8564 196.068 41.9345 196.184 41.9691 196.329C41.7242 196.646 41.4088 196.879 41.024 197.026C40.3748 197.251 39.7049 197.357 39.0145 197.346C38.5397 197.318 38.0672 197.289 37.5968 197.258C36.9519 198.01 36.1541 198.523 35.2036 198.798C35.1342 198.789 35.0659 198.779 34.9965 198.77C35.3293 198.163 35.6057 197.533 35.8235 196.881C34.8513 196.637 33.8866 196.366 32.9285 196.068C32.6456 196.177 32.3703 196.303 32.1015 196.445C31.9064 196.493 31.7102 196.522 31.5108 196.532C31.4869 196.259 31.4479 195.989 31.3926 195.719C30.2784 195.406 29.175 195.057 28.0835 194.673C27.4213 194.991 26.7319 195.233 26.0155 195.399C25.7792 195.438 25.5429 195.438 25.3066 195.399C26.3493 194.462 26.6637 193.329 26.2507 192Z" fill="#98D8E5"/>
<path fill-rule="evenodd" clip-rule="evenodd" d="M25.113 198.799C25.7666 198.794 26.3714 198.984 26.9264 199.366C27.8086 199.34 28.6877 199.268 29.5645 199.15C30.3341 199.114 31.1036 199.114 31.8732 199.15C31.9794 199.194 32.09 199.222 32.2027 199.231C32.1984 199.475 32.1149 199.692 31.9556 199.88C30.9562 200.877 29.7846 201.616 28.4384 202.096C28.1923 202.652 27.9181 203.192 27.6135 203.718C27.451 203.932 27.2678 204.13 27.064 204.312C27.0369 203.7 27.0272 203.088 27.0369 202.475C26.1069 202.638 25.1726 202.772 24.234 202.88C23.975 203.12 23.691 203.327 23.3821 203.501C23.3192 203.344 23.291 203.182 23.2997 203.015C22.9691 203.031 22.6396 203.059 22.3101 203.096C22.1963 203.311 22.05 203.501 21.8701 203.663C21.8332 203.509 21.7595 203.373 21.65 203.258C21.4278 203.23 21.2078 203.249 20.9899 203.313C20.9173 203.741 20.8165 204.164 20.6875 204.583C20.3158 205.24 20.1326 205.167 20.138 204.367C20.0957 204.221 20.0318 204.086 19.9462 203.962C19.1127 203.617 18.2521 203.365 17.3633 203.205C17.6852 203.015 18.0331 202.889 18.4071 202.826C19.1354 202.687 19.8681 202.659 20.6052 202.745C21.029 202.715 21.3682 202.534 21.6218 202.205C21.6489 201.972 21.6587 201.737 21.6489 201.503C21.9047 201.565 22.1616 201.611 22.4185 201.638C23.3344 201.152 24.2503 200.665 25.1661 200.179C25.2995 200.044 25.3536 199.882 25.3309 199.693C25.3179 199.484 25.2908 199.276 25.2485 199.071C25.2279 198.964 25.1824 198.874 25.1109 198.8L25.113 198.799Z" fill="#98D8E5"/>
<path fill-rule="evenodd" clip-rule="evenodd" d="M9.0309 202.555C9.18914 202.536 9.32571 202.577 9.43952 202.677C9.71157 203.57 9.75601 204.474 9.57284 205.389C9.43627 206.03 9.27802 206.666 9.0981 207.297C9.33113 208.256 9.37449 209.223 9.22491 210.198C8.94635 209.822 8.63636 209.469 8.29494 209.14C7.76059 209.926 7.23924 210.722 6.7309 211.528C6.74174 211.924 6.75691 212.321 6.77534 212.721C6.75258 212.865 6.72982 213.009 6.70597 213.152C6.51412 212.981 6.3071 212.83 6.08707 212.699C5.65352 213.234 5.23189 213.781 4.82219 214.338C4.7875 214.842 4.75282 215.346 4.71813 215.852C4.70404 215.929 4.67369 216 4.62817 216.066C4.47426 215.835 4.30734 215.613 4.12633 215.401C3.63967 216.135 3.13892 216.86 2.62408 217.574C2.58289 217.717 2.57855 217.862 2.60999 218.007C2.77799 218.481 2.94707 218.957 3.11507 219.431C3.14434 219.561 3.15843 219.688 3.15734 219.811C2.88746 219.332 2.48426 219.03 1.94773 218.908C1.70169 218.935 1.46107 218.991 1.22587 219.075C0.822666 219.258 0.414043 219.409 0 219.524C0.463901 218.868 1.05028 218.345 1.75805 217.954C1.92389 217.836 2.04745 217.686 2.13091 217.505C2.46041 216.732 2.80725 215.967 3.16818 215.208C2.82134 215.15 2.47342 215.131 2.12332 215.148C2.47884 214.541 2.99693 214.132 3.67761 213.923C3.78816 213.411 3.90522 212.9 4.02987 212.391C4.01253 212.345 3.99627 212.299 3.97893 212.253C3.89113 212.295 3.799 212.31 3.70254 212.299C3.77299 211.932 3.95725 211.631 4.25532 211.395C4.38755 210.05 4.73222 208.76 5.28825 207.528C4.57614 207.31 3.84669 207.161 3.0999 207.08C3.6245 206.531 4.26074 206.162 5.00753 205.975C5.32077 205.907 5.6351 205.844 5.94942 205.787C6.5293 204.972 7.15145 204.187 7.81478 203.435C8.18222 203.079 8.58542 202.785 9.02764 202.552L9.0309 202.555Z" fill="#98D8E5"/>
<path fill-rule="evenodd" clip-rule="evenodd" d="M55.8307 213.451C55.8578 213.376 55.8968 213.372 55.9466 213.442C56.8192 214.452 57.4164 215.607 57.7383 216.908C58.2098 218.232 58.3182 219.582 58.0624 220.958C58.1935 221.145 58.3529 221.304 58.5415 221.434C58.6227 221.664 58.5935 221.877 58.4515 222.074C59.1766 222.453 59.8497 222.913 60.4697 223.453C60.952 223.958 61.4332 224.462 61.9156 224.967C61.4072 225.057 60.9141 225.195 60.4339 225.38C59.3316 225.842 58.2466 226.335 57.1768 226.861C56.9687 227.146 56.7596 227.432 56.5514 227.718C56.4387 227.821 56.3097 227.899 56.1634 227.951C56.1407 227.915 56.1179 227.878 56.0951 227.842C56.1699 227.665 56.2219 227.488 56.2534 227.312C55.8881 226.963 55.4589 226.837 54.9646 226.933C54.8324 227.111 54.7219 227.302 54.6351 227.506C54.5235 227.35 54.4596 227.174 54.4433 226.978C54.504 226.508 54.4921 226.04 54.4086 225.574C54.0141 224.385 53.561 223.217 53.0516 222.071C52.9259 221.705 52.8446 221.328 52.8066 220.944C53.4429 221.085 54.0791 221.233 54.7132 221.385C55.3364 221.527 55.9607 221.541 56.585 221.428C56.6436 221.306 56.7335 221.212 56.8528 221.146C57.1183 221.104 57.3644 221.016 57.5887 220.883C57.7968 219.772 57.7676 218.664 57.5031 217.56C57.2094 216.079 56.6522 214.708 55.8307 213.451Z" fill="#98D8E5"/>
<path fill-rule="evenodd" clip-rule="evenodd" d="M32.4919 252.786C30.956 252.104 29.4093 251.432 27.8485 250.768C25.1107 249.494 22.6166 247.854 20.3687 245.847C19.7021 244.687 19.3119 243.443 19.2003 242.116C19.1428 241.086 19.4463 240.2 20.1085 239.457C19.7021 239.356 19.288 239.297 18.8643 239.281C17.6351 239.4 16.406 239.499 15.1747 239.579C14.9265 239.565 14.6816 239.535 14.4398 239.487C13.8047 239.094 13.1186 238.859 12.3826 238.781C12.2862 238.77 12.2168 238.807 12.1735 238.893C12.4878 239.088 12.7858 239.307 13.0687 239.547C13.0709 239.867 12.9571 240.139 12.7284 240.364C12.4087 240.197 12.1084 240.001 11.8277 239.775C11.7377 239.732 11.6738 239.758 11.6348 239.849C11.6478 239.99 11.6987 240.116 11.7854 240.228C12.1984 240.734 12.6124 241.24 13.0254 241.748C13.2758 242.06 13.4557 242.408 13.5662 242.787C13.6931 243.422 13.7581 244.063 13.7603 244.709C13.7006 245.645 13.6237 246.569 13.5316 247.48C14.326 247.178 15.127 246.879 15.9356 246.586C16.7193 246.393 17.5094 246.359 18.3061 246.485C18.4329 246.503 18.5239 246.572 18.5792 246.692C18.6258 247.282 18.6908 247.87 18.7743 248.458C18.8068 248.487 18.8393 248.515 18.8729 248.545C19.0864 248.012 19.2035 247.458 19.2252 246.88C19.2479 246.83 19.2837 246.816 19.3357 246.838C19.5048 246.97 19.6967 247.053 19.9102 247.085C19.9048 246.888 19.8788 246.689 19.8322 246.491C19.8733 246.361 19.9579 246.308 20.0858 246.331C23.3949 249.286 27.1939 251.391 31.4839 252.645C31.8166 252.727 32.1526 252.774 32.4919 252.786Z" fill="#98D8E5"/>
<path fill-rule="evenodd" clip-rule="evenodd" d="M50.417 222.729C50.4452 223.236 50.2133 223.609 49.719 223.846C49.5781 224.479 49.4676 225.117 49.3895 225.763C49.3418 226.006 49.2725 226.242 49.1803 226.47C49.435 226.503 49.6778 226.512 49.9065 226.498C49.6421 226.91 49.279 227.206 48.8172 227.386C48.4856 228.134 47.9664 228.709 47.2586 229.113C47.1892 229.077 47.1307 229.027 47.083 228.964C47.0245 228.231 47.1849 227.547 47.5643 226.909C47.3659 226.571 47.2955 226.211 47.3518 225.828C47.5415 225.988 47.7442 226.067 47.961 226.066C48.3815 225.302 48.8465 224.569 49.3559 223.867C49.0806 223.592 48.9603 223.266 48.995 222.888C49.2627 223.158 49.5868 223.254 49.9651 223.175C50.1797 223.082 50.3314 222.933 50.4192 222.728L50.417 222.729Z" fill="white"/>
<path fill-rule="evenodd" clip-rule="evenodd" d="M39.8817 198.948C40.1006 199.152 40.2513 199.401 40.3326 199.7C40.3879 200.039 40.4692 200.368 40.5754 200.69C41.7806 201.081 42.9838 201.48 44.1858 201.885C44.3451 201.694 44.5185 201.512 44.706 201.339C45.0247 201.692 45.2328 202.102 45.3304 202.568C46.0739 203.174 46.7914 203.811 47.4829 204.479C47.639 204.672 47.7778 204.877 47.8992 205.093C47.9826 205.321 47.9024 205.446 47.6564 205.468C46.6559 205.577 45.7065 205.407 44.8101 204.957C44.1814 205.192 43.5333 205.271 42.8667 205.196C43.2265 204.916 43.5734 204.62 43.9083 204.308C43.3783 203.864 42.8223 203.455 42.2424 203.079C41.8869 202.955 41.5389 202.819 41.2008 202.669C41.2929 202.579 41.3861 202.487 41.4782 202.396C41.0588 201.962 40.6653 201.506 40.2979 201.031C39.9868 201.024 39.6747 201.035 39.3603 201.065C39.0829 201.075 38.8162 201.03 38.5615 200.929C39.4687 200.579 39.9099 199.918 39.8817 198.948Z" fill="white"/>
<path fill-rule="evenodd" clip-rule="evenodd" d="M0.52596 230.648C0.592077 230.621 0.656026 230.626 0.717807 230.662C0.857628 230.847 1.01371 231.02 1.18604 231.179C2.00112 231.655 2.69047 232.274 3.25409 233.037C3.74075 233.069 4.21766 233.152 4.68589 233.287C3.99763 233.456 3.69956 233.882 3.78953 234.565C3.97704 235.293 4.20899 236.007 4.48646 236.707C4.75201 236.774 5.0154 236.851 5.27444 236.938C5.03057 237.007 4.92977 237.162 4.97529 237.402C5.13029 237.611 5.28637 237.819 5.44244 238.029C5.77628 238.105 6.09819 238.213 6.41035 238.352C6.14697 238.356 5.89009 238.412 5.63971 238.521C5.50531 238.868 5.42185 239.226 5.38933 239.596C5.19749 239.153 5.12053 238.686 5.15738 238.194C4.99263 237.967 4.81054 237.753 4.61111 237.554C4.43443 237.467 4.27944 237.49 4.14721 237.627C4.10602 237.577 4.06592 237.53 4.02473 237.481C4.05291 237.269 4.02473 237.069 3.94127 236.879C3.24108 236.331 2.5474 235.775 1.86022 235.21C1.53505 235.318 1.33237 235.542 1.25324 235.881C0.954093 235.371 0.919409 234.84 1.14811 234.29C0.974687 233.681 0.801266 233.071 0.627845 232.462C0.590993 231.941 0.498863 231.429 0.352539 230.925C0.405649 230.825 0.463095 230.732 0.524876 230.649L0.52596 230.648Z" fill="white"/>
<path fill-rule="evenodd" clip-rule="evenodd" d="M10.5703 213.58C10.5876 214.128 10.8022 214.589 11.2152 214.967C11.8308 215.48 12.4855 215.942 13.1792 216.353C13.2041 216.413 13.229 216.473 13.2529 216.532C12.5765 216.672 11.9089 216.854 11.2499 217.079C11.0385 217.164 10.8553 217.287 10.6992 217.45C11.1155 217.932 10.9984 218.158 10.3491 218.13C10.2028 218.242 10.1139 218.394 10.0814 218.583C10.0684 219.354 10.296 220.054 10.7643 220.683C11.0851 221.046 11.4048 221.408 11.7257 221.77C10.4976 220.974 9.84731 219.859 9.77469 218.426C9.60777 218.288 9.45603 218.132 9.31838 217.959C9.34006 217.768 9.32597 217.581 9.27827 217.398C8.70057 216.65 7.96028 216.119 7.05957 215.803C7.08558 215.666 7.16471 215.574 7.29802 215.528C8.1066 215.247 8.89025 214.906 9.64679 214.505C9.83864 214.39 9.99689 214.241 10.1215 214.056C10.076 213.685 10.2256 213.527 10.5713 213.582L10.5703 213.58Z" fill="white"/>
<path fill-rule="evenodd" clip-rule="evenodd" d="M45.1058 245.864C45.1491 245.857 45.1892 245.866 45.2239 245.893C44.9031 246.32 44.7058 246.795 44.6332 247.317C44.6332 247.497 44.6635 247.671 44.7221 247.84C44.8521 248.079 44.9703 248.312 45.0765 248.538C44.8424 248.474 44.6158 248.386 44.3969 248.276C44.1509 248.121 43.9146 247.957 43.688 247.783C43.1873 247.936 42.7147 248.14 42.2703 248.393C42.2996 248.508 42.3581 248.605 42.4481 248.684C42.1132 248.703 41.7783 248.722 41.4433 248.742C40.5275 249.176 39.5628 249.418 38.5483 249.468C38.7185 249.878 38.9742 250.238 39.3168 250.544C38.4952 250.488 37.7863 250.178 37.1891 249.614C36.4152 249.648 35.6662 249.532 34.9433 249.266C34.7916 249.22 34.6734 249.133 34.5889 249.004C34.7807 248.671 35.0571 248.428 35.4159 248.279C36.0987 247.943 36.8087 247.671 37.5435 247.465C37.7668 246.974 38.0822 246.548 38.4887 246.187L38.6664 246.1C38.7726 246.511 38.9493 246.889 39.1986 247.233C40.1644 247.266 41.129 247.286 42.0937 247.292C42.2649 247.094 42.4611 246.929 42.6844 246.798C42.7288 246.953 42.7689 247.107 42.8025 247.263C43.1385 247.334 43.4734 247.324 43.8073 247.234C44.1509 246.692 44.5844 246.237 45.1069 245.869L45.1058 245.864Z" fill="white"/>
<path fill-rule="evenodd" clip-rule="evenodd" d="M23.4539 194.746C23.5179 194.647 23.5255 194.544 23.4767 194.439C22.3538 194.101 21.22 194.063 20.0755 194.322C19.5487 194.003 18.9753 193.846 18.3575 193.853C18.2946 193.884 18.2524 193.932 18.2318 193.999C18.441 194.188 18.6144 194.408 18.751 194.66C18.8095 194.75 18.8008 194.833 18.726 194.908C17.5782 195.379 16.5539 196.041 15.6543 196.894C15.3086 196.931 14.9856 197.038 14.6875 197.217C14.6355 197.242 14.629 197.278 14.668 197.323C14.7753 197.395 14.8512 197.485 14.8945 197.596C14.3439 198.09 13.7825 198.572 13.2102 199.043C13.1397 199.081 13.0649 199.096 12.9847 199.087C12.3864 198.827 11.7968 198.837 11.2158 199.114C11.644 199.305 12.045 199.538 12.4178 199.816C12.5197 200.616 12.5349 201.419 12.4612 202.225C12.6758 202.028 12.8492 201.798 12.9815 201.534C13.2015 200.839 13.4107 200.144 13.609 199.45C13.8497 199.268 14.1163 199.155 14.4078 199.111C14.5661 199.258 14.694 199.43 14.7883 199.625C14.9877 199.306 15.1969 198.996 15.418 198.693C16.5691 198.249 17.7267 197.828 18.8919 197.431C18.9775 197.418 19.062 197.427 19.1444 197.455C19.3926 197.679 19.6419 197.904 19.8912 198.13C19.9324 198.14 19.9714 198.138 20.0104 198.125C20.2489 197.67 20.444 197.199 20.5957 196.713C21.5951 196.12 22.5478 195.465 23.4528 194.747L23.4539 194.746Z" fill="white"/>
<path fill-rule="evenodd" clip-rule="evenodd" d="M50.5696 206.644C50.6639 206.695 50.7094 206.779 50.7062 206.896C50.6899 207.168 50.6401 207.433 50.5566 207.693C50.3724 208.101 50.1534 208.485 49.8998 208.847C50.4873 209.864 50.9316 210.939 51.2319 212.073C51.5906 212.347 51.9895 212.542 52.4296 212.658C52.1944 213.012 51.8887 213.296 51.5148 213.51C51.5191 214.111 51.5625 214.71 51.6459 215.307C51.7218 215.48 51.8399 215.617 52.0014 215.719C52.3938 215.945 52.7862 216.17 53.1764 216.393C53.0626 216.648 52.9011 216.873 52.693 217.068C52.2681 217.361 51.8226 217.616 51.3565 217.832C50.9056 218.952 50.4537 220.071 50.0028 221.191C49.8857 221.411 49.7036 221.492 49.4576 221.433C49.3123 221.282 49.2104 221.105 49.1519 220.901C48.6544 219.32 48.417 217.707 48.4431 216.058C47.5185 215.542 46.7663 214.847 46.1875 213.974C46.9603 214.266 47.7656 214.472 48.6024 214.59C48.5818 214.435 48.5796 214.28 48.5981 214.124C48.7411 213.55 48.8463 212.969 48.9156 212.383C48.8441 211.917 48.7509 211.457 48.6371 211.005C48.8246 210.999 48.9774 211.076 49.0977 211.234C49.2538 210.501 49.2787 209.761 49.1725 209.015C48.4452 208.703 47.8849 208.209 47.4947 207.531C47.512 207.502 47.5293 207.471 47.5478 207.441C48.8051 208.056 49.812 207.79 50.5707 206.645L50.5696 206.644Z" fill="white"/>
<path fill-rule="evenodd" clip-rule="evenodd" d="M6.19944 218.181C6.38587 218.15 6.53327 218.208 6.64275 218.356C6.74463 218.54 6.82375 218.734 6.87903 218.937C7.05787 220.106 7.27465 221.269 7.52936 222.423C8.24472 222.862 8.89397 223.386 9.47926 223.992C9.88355 224.469 10.1892 225.001 10.3951 225.59C10.3756 225.619 10.3561 225.649 10.3355 225.678C9.59741 225.194 8.78991 225.009 7.91305 225.125C7.86428 225.173 7.81442 225.222 7.76565 225.27C7.72338 225.93 7.74289 226.589 7.82526 227.247C7.964 228.261 8.14175 229.269 8.35745 230.268C8.7032 230.58 8.96984 230.948 9.15518 231.373C9.00235 231.429 8.84519 231.449 8.68261 231.431C8.79317 231.98 8.97959 232.503 9.24406 233C9.54755 233.24 9.83261 233.502 10.1014 233.785C9.9074 233.836 9.71013 233.874 9.51069 233.901C9.75782 234.341 9.99519 234.787 10.2196 235.238C10.9956 235.297 11.7641 235.414 12.5239 235.586C12.9531 235.708 13.3671 235.862 13.7649 236.051C12.8761 236.069 11.9895 236.127 11.1062 236.226C10.7886 236.646 10.523 237.101 10.3084 237.591C10.0754 238.107 9.85862 238.63 9.6581 239.16C9.54538 237.978 9.69387 236.825 10.1014 235.702C9.5573 235.264 9.07498 234.771 8.65335 234.221C8.55796 234.351 8.44958 234.467 8.32818 234.569C8.22088 234.209 8.15259 233.841 8.12116 233.465C7.53586 232.889 6.99392 232.279 6.49642 231.635C6.35552 231.66 6.22762 231.729 6.11273 231.838C5.96532 231.445 5.88728 231.039 5.87644 230.618C4.53026 229.05 3.86042 227.228 3.86693 225.155C3.84742 225.136 3.82791 225.117 3.80731 225.097C3.54501 225.168 3.27838 225.236 3.00958 225.3C2.55435 225.486 2.10129 225.669 1.65039 225.852C1.86717 224.999 2.27145 224.244 2.86217 223.586C3.18083 223.273 3.49516 222.964 3.80731 222.657C4.11947 221.561 4.514 220.495 4.98874 219.461C5.30307 218.948 5.70627 218.523 6.20052 218.183L6.19944 218.181Z" fill="white"/>
<path fill-rule="evenodd" clip-rule="evenodd" d="M42.3644 242.2C42.386 242.275 42.4316 242.329 42.5009 242.363C42.6245 242.353 42.7491 242.341 42.8727 242.33C44.634 241.77 46.2284 240.906 47.6548 239.74C48.7441 239.529 49.7326 239.094 50.6214 238.436C50.8002 238.277 50.9595 238.103 51.0994 237.913C50.5444 238.067 49.9927 238.06 49.4464 237.893C49.3944 237.873 49.3792 237.838 49.3988 237.786C50.1987 236.759 50.8013 235.623 51.2078 234.38C51.7118 234.033 52.1225 233.603 52.4412 233.09C52.1507 233.128 51.8581 233.149 51.5643 233.149C51.7562 232.142 52.0033 231.149 52.3046 230.168C52.4174 229.986 52.5659 229.838 52.7512 229.723C53.3051 229.489 53.8156 229.187 54.2816 228.812C53.9836 228.697 53.6855 228.582 53.3874 228.467C52.8444 227.431 52.2808 226.405 51.6987 225.388C51.599 225.759 51.5524 226.137 51.5589 226.525C51.6326 227.449 51.7605 228.367 51.9415 229.277C51.8429 229.862 51.5004 230.231 50.9173 230.383C50.7081 230.273 50.526 230.129 50.371 229.951C50.3114 230.082 50.2865 230.219 50.2962 230.363C50.3439 230.716 50.3612 231.069 50.3461 231.42C49.1083 232.756 47.9106 234.126 46.753 235.529C46.6359 235.624 46.5015 235.66 46.3498 235.639C46.0105 235.552 45.6821 235.439 45.3624 235.302C45.2941 235.3 45.2432 235.332 45.2117 235.398C45.073 235.965 45.0773 236.533 45.2269 237.103C44.3088 238.394 43.4743 239.735 42.7242 241.125C42.5605 241.478 42.4402 241.836 42.3633 242.199L42.3644 242.2Z" fill="white"/>
<path fill-rule="evenodd" clip-rule="evenodd" d="M11.5107 227.569C11.9172 227.595 12.2922 227.721 12.6336 227.947C13.2644 228.392 13.8942 228.838 14.525 229.283C15.7249 229.215 16.8673 229.428 17.9522 229.923L18.0118 229.981C17.5707 230.041 17.1372 230.138 16.7123 230.273C16.5454 230.345 16.3871 230.432 16.2397 230.534C17.1458 231.193 17.9533 231.959 18.6622 232.829C18.9602 232.886 19.2551 232.953 19.5488 233.032C19.4382 233.15 19.3396 233.276 19.2529 233.409C19.5325 233.794 19.8967 234.075 20.3465 234.253C21.0554 233.982 21.774 233.952 22.5034 234.165C22.0265 234.382 21.5637 234.625 21.115 234.891C21.0207 235.449 21.0012 236.01 21.0554 236.576C21.0738 236.65 21.1031 236.718 21.1443 236.78C21.1052 236.818 21.0651 236.818 21.0261 236.78C20.4289 236.227 19.9964 235.568 19.7265 234.804C19.177 234.566 18.6156 234.362 18.0422 234.194C18.0227 234.349 18.0032 234.504 17.9826 234.659C17.7365 234.495 17.5295 234.291 17.3626 234.049C16.231 233.697 15.1569 233.223 14.1424 232.625C13.7316 233.105 13.5354 233.666 13.5517 234.31C13.3685 234.002 13.2298 233.673 13.1376 233.322C13.0152 232.727 12.936 232.127 12.9013 231.521C12.3442 230.773 11.9107 229.959 11.6018 229.08C11.4479 228.583 11.4186 228.079 11.5129 227.569H11.5107Z" fill="white"/>
<path fill-rule="evenodd" clip-rule="evenodd" d="M61.2526 229.765C61.399 229.951 61.4629 230.169 61.4445 230.418C61.3567 230.898 61.1974 231.353 60.9654 231.783C60.6847 232.288 60.3747 232.773 60.0365 233.236C59.5488 233.797 59.074 234.367 58.6156 234.947C58.5484 235.889 58.415 236.822 58.2156 237.745C58.3088 237.99 58.4985 238.11 58.7836 238.103C58.7359 238.286 58.6546 238.455 58.5408 238.612C58.3283 238.83 58.1159 239.05 57.9035 239.268C57.5848 240.395 57.1458 241.472 56.5844 242.5C56.5941 242.535 56.6125 242.565 56.6375 242.591C57.1166 242.798 57.5956 243.004 58.0758 243.211C58.169 243.253 58.2427 243.317 58.2991 243.401C57.911 243.701 57.4818 243.925 57.0093 244.072C56.4218 244.225 55.8246 244.301 55.2165 244.303C54.0557 245.482 52.7626 246.482 51.3373 247.305C50.5482 247.714 49.7191 248.008 48.8476 248.188C48.6872 248.216 48.53 248.206 48.3761 248.156C48.348 248.122 48.3306 248.081 48.3252 248.037C48.4997 247.65 48.7132 247.285 48.9636 246.943C50.0659 245.615 51.1455 244.27 52.2033 242.907C52.2467 242.852 52.251 242.794 52.2152 242.734C51.837 242.092 51.657 241.4 51.6776 240.659C52.2727 240.784 52.8645 240.922 53.4563 241.07C53.7164 241.129 53.9386 241.067 54.1207 240.881C55.0962 239.796 55.9557 238.631 56.7014 237.384C56.6635 237.071 56.6743 236.762 56.7361 236.454C56.8261 236.512 56.9106 236.575 56.9897 236.646C57.3062 236.152 57.5588 235.624 57.7506 235.066C57.6932 234.797 57.6032 234.539 57.4786 234.292C57.1556 233.678 56.8326 233.065 56.5096 232.451C57.3767 232.778 58.2275 232.737 59.0643 232.33C60.0344 231.674 60.7638 230.82 61.2548 229.768L61.2526 229.765Z" fill="white"/>
<path fill-rule="evenodd" clip-rule="evenodd" d="M45.2595 228.665C45.2422 228.949 45.1728 229.24 45.0525 229.536C44.8986 230.093 45.046 230.548 45.4958 230.902C45.7202 231.04 45.9564 231.157 46.2047 231.25C45.9088 231.289 45.6139 231.289 45.318 231.25C45.0362 231.171 44.7598 231.093 44.491 231.018C44.2634 231.159 44.0477 231.313 43.8407 231.483L44.077 231.715C43.9448 231.782 43.8071 231.84 43.663 231.89C43.3757 232.192 43.0701 232.473 42.7471 232.733C42.772 232.849 42.8208 232.966 42.8945 233.082C42.8826 233.116 42.862 233.145 42.8349 233.169C42.5964 233.22 42.3601 233.278 42.126 233.344C41.7022 233.601 41.2687 233.843 40.8264 234.07C40.7755 234.3 40.7755 234.532 40.8264 234.767C40.6682 234.776 40.5099 234.767 40.3539 234.738C40.1328 234.629 39.916 234.523 39.7035 234.418C38.4517 234.715 37.1911 234.773 35.9219 234.593C35.9587 234.43 36.0379 234.284 36.1582 234.157C37.229 233.378 38.391 232.749 39.645 232.268C39.7426 231.873 39.9398 231.534 40.2357 231.252C40.2921 231.224 40.3506 231.214 40.4135 231.223C40.4135 231.473 40.472 231.706 40.5912 231.92C41.3716 231.604 42.1596 231.304 42.9552 231.019C43.1026 230.835 43.2511 230.651 43.3985 230.467C43.4646 230.575 43.4949 230.691 43.4874 230.816C43.8017 230.777 44.0965 230.68 44.374 230.525C44.5431 229.842 44.8379 229.223 45.2595 228.665Z" fill="white"/>
<path fill-rule="evenodd" clip-rule="evenodd" d="M44.5175 194.672C44.7972 194.742 45.0237 194.897 45.1971 195.137C45.3846 195.536 45.5722 195.934 45.7586 196.328C46.9303 196.681 48.0326 197.176 49.0677 197.81C49.3441 197.5 49.5608 197.151 49.718 196.764C49.9359 196.921 50.0638 197.134 50.1017 197.404C50.2068 197.784 50.2654 198.171 50.2794 198.566C51.2343 199.476 51.954 200.541 52.4364 201.761C52.4299 201.816 52.4104 201.865 52.3768 201.906C52.0028 202.018 51.6289 202.018 51.2539 201.906C50.1613 201.62 49.098 201.251 48.0629 200.802C47.664 200.724 47.2695 200.646 46.8815 200.57C47.2186 200.214 47.2673 199.816 47.0289 199.378C46.5856 198.426 46.0534 197.535 45.4334 196.705C45.0616 196.841 44.678 196.899 44.2812 196.879C44.3181 196.562 44.485 196.329 44.7831 196.182C44.7993 195.999 44.7603 195.825 44.6649 195.659C44.5967 195.332 44.5468 195.002 44.5175 194.671V194.672Z" fill="white"/>
<path fill-rule="evenodd" clip-rule="evenodd" d="M54.9094 212.041C54.9875 212.054 55.0568 212.038 55.1186 211.991C55.7332 210.916 56.1364 209.769 56.3271 208.55C56.9753 207.987 57.32 207.284 57.3612 206.44C56.9883 206.861 56.5266 207.056 55.976 207.024C55.6909 206.527 55.4362 206.012 55.2129 205.48C55.1305 204.977 55.2953 204.576 55.7071 204.279C55.6161 204.22 55.5175 204.216 55.4123 204.267C55.3137 204.248 55.2259 204.205 55.1511 204.14C55.0958 203.861 55.0579 203.579 55.0384 203.293C55.2736 203.051 55.5012 202.798 55.7202 202.535C55.7017 202.515 55.6822 202.495 55.6638 202.474C55.4004 202.616 55.1229 202.653 54.8314 202.586C54.5886 202.165 54.2992 201.775 53.9632 201.417C54.0932 202.039 54.3241 202.631 54.658 203.19C54.7815 203.691 54.6374 204.082 54.2244 204.364C53.5762 204.211 53.4917 204.343 53.9708 204.761C54.2038 204.817 54.336 204.958 54.3675 205.184C54.0618 205.995 53.8494 206.83 53.7301 207.688C53.7345 207.869 53.7659 208.045 53.8266 208.215C53.5437 208.523 53.2164 208.568 52.8457 208.35C52.9357 208.66 53.1123 208.928 53.3736 209.157C53.6478 209.33 53.9057 209.525 54.1474 209.741C54.2938 210.374 54.465 211.002 54.6601 211.622C54.7132 211.781 54.7967 211.921 54.9083 212.039L54.9094 212.041Z" fill="white"/>
<path fill-rule="evenodd" clip-rule="evenodd" d="M13.3184 203.91C13.3564 203.844 13.4149 203.829 13.4918 203.864C14.5161 204.587 15.6379 205.122 16.8551 205.472C17.1207 205.611 17.3375 205.805 17.5055 206.053C17.8014 206.044 18.0973 206.035 18.3932 206.027C18.469 206.072 18.4744 206.12 18.4072 206.172C18.1222 206.286 17.8707 206.446 17.6529 206.653C17.5434 206.947 17.5987 207.205 17.8176 207.425C18.1211 207.452 18.4202 207.482 18.7172 207.515C18.6728 207.633 18.6034 207.738 18.5102 207.826C18.2197 207.954 17.9585 208.125 17.7298 208.338C17.0166 209.438 16.3349 210.554 15.6835 211.685C15.742 210.619 15.2727 209.865 14.2744 209.425C14.204 209.314 14.1335 209.204 14.0641 209.095C12.7526 210.373 12.202 211.924 12.4134 213.746C12.0243 212.275 12.266 210.91 13.1396 209.649C13.4604 209.277 13.7693 208.897 14.0663 208.511C13.894 208.452 13.804 208.334 13.7942 208.157C13.9005 207.542 13.9688 206.922 13.998 206.299C14.05 205.417 13.8235 204.621 13.3184 203.911V203.91Z" fill="white"/>
<path fill-rule="evenodd" clip-rule="evenodd" d="M43.3586 235.911C43.3911 235.914 43.4106 235.934 43.4182 235.97C42.447 237.067 41.2851 237.91 39.9314 238.498C38.9028 240.162 37.5739 241.547 35.9427 242.653C35.9015 242.701 35.9123 242.741 35.9719 242.769C36.2342 242.832 36.49 242.91 36.7404 243.002C36.4781 243.208 36.1822 243.353 35.8538 243.438C35.3845 243.569 34.9119 243.685 34.4361 243.786C33.4118 244.45 32.3182 244.982 31.1563 245.384C31.1378 245.856 31.1974 246.321 31.334 246.778C31.5714 247.712 31.8575 248.633 32.1914 249.539C32.1838 249.601 32.1545 249.649 32.1025 249.684C31.4316 249.392 30.8398 248.985 30.3293 248.463C29.6171 247.686 28.9972 246.843 28.4682 245.935C28.233 245.906 27.9967 245.897 27.7594 245.906C27.7811 246.647 27.8309 247.383 27.9068 248.115C27.2261 247.55 26.8218 246.834 26.695 245.965C25.0898 245.713 23.8195 244.938 22.8841 243.64C22.7117 243.428 22.702 243.215 22.8548 243.001C23.0933 242.872 23.3501 242.803 23.6233 242.797C25.4214 242.806 27.2142 242.709 29.0004 242.506C30.5785 242.297 32.0949 241.881 33.5506 241.257C34.0058 240.752 34.4979 240.287 35.0279 239.863C35.0907 240.187 35.21 240.486 35.3823 240.763C36.3546 240.787 37.2021 240.477 37.9229 239.834C38.4508 239.324 38.9244 238.772 39.3406 238.177C39.1987 237.966 39.0805 237.744 38.9862 237.509C39.6192 237.475 40.2294 237.338 40.818 237.102C41.6536 236.671 42.5012 236.274 43.3586 235.91V235.911Z" fill="white"/>
<path fill-rule="evenodd" clip-rule="evenodd" d="M32.949 202.028C33.4064 202.509 33.7305 203.071 33.9245 203.714C34.047 204.154 34.1358 204.598 34.19 205.05C34.4469 205.112 34.7027 205.179 34.9585 205.254C35.2782 205.299 35.5926 205.28 35.9036 205.195C35.9947 205.083 36.063 204.958 36.1107 204.818C36.3795 205.063 36.6645 205.286 36.968 205.486C37.8102 205.785 38.6567 206.066 39.5086 206.329C39.5683 206.32 39.6268 206.31 39.6864 206.301C40.0159 206.015 40.302 205.696 40.5437 205.341C40.7952 205.915 40.9534 206.515 41.0163 207.143C42.4676 208.241 43.7867 209.48 44.9757 210.862C45.031 211.027 45.0017 211.173 44.8869 211.298C44.2799 211.481 43.6686 211.481 43.0551 211.298C42.356 211.056 41.6764 210.774 41.0163 210.455C40.172 210.79 39.2951 210.984 38.3868 211.035C38.1635 211.041 37.9468 211.012 37.7365 210.948C38.3901 210.538 39.0111 210.083 39.5975 209.583C39.6387 209.535 39.6279 209.495 39.5683 209.466C38.7196 208.971 37.9121 208.419 37.1458 207.81C36.7166 207.694 36.283 207.587 35.8462 207.49C35.8267 207.471 35.8072 207.452 35.7866 207.432C35.8657 207.296 35.9438 207.161 36.0229 207.024C35.3552 206.495 34.6463 206.02 33.8952 205.6C33.3132 205.734 32.7225 205.85 32.122 205.949C31.8586 205.999 31.6028 205.98 31.3535 205.89C32.0602 205.606 32.6217 205.151 33.0379 204.525C33.1614 203.688 33.1322 202.856 32.949 202.026V202.028Z" fill="#AEDFE6"/>
<path fill-rule="evenodd" clip-rule="evenodd" d="M60.7236 217.604C60.6651 217.598 60.6196 217.571 60.5881 217.521C60.5589 217.332 60.5123 217.146 60.4494 216.965C60.0408 216.306 59.7806 215.592 59.6701 214.821C59.3265 214.613 59.0111 214.37 58.7217 214.093C59.2907 214.231 59.6766 214.033 59.8803 213.5C60.0299 212.897 60.1416 212.287 60.2142 211.67C60.0462 211.519 59.8847 211.363 59.7297 211.201C59.9356 211.243 60.0689 211.169 60.1307 210.976C60.0993 210.765 60.0679 210.553 60.0364 210.339C59.8229 210.157 59.6289 209.956 59.4566 209.735C59.6506 209.833 59.8598 209.89 60.0863 209.905C60.3215 209.702 60.5231 209.472 60.6922 209.214C60.6586 209.61 60.5307 209.981 60.3096 210.327C60.3399 210.556 60.3898 210.781 60.457 211.002C60.5513 211.134 60.6738 211.175 60.8244 211.126C60.8353 211.177 60.8461 211.228 60.8569 211.28C60.7529 211.422 60.6943 211.579 60.6813 211.751C60.9772 212.418 61.2656 213.088 61.5452 213.763C61.8248 213.808 62.0611 213.722 62.253 213.504C62.2703 213.99 62.0882 214.391 61.7034 214.707C61.5907 215.218 61.4769 215.73 61.3642 216.24C61.1864 216.635 61.052 217.044 60.9599 217.468C60.8819 217.522 60.8027 217.566 60.7247 217.604H60.7236Z" fill="#AEDFE6"/>
<path fill-rule="evenodd" clip-rule="evenodd" d="M28.0714 234.783C28.1408 234.755 28.2123 234.744 28.2871 234.749C28.3033 235.173 28.3955 235.581 28.5635 235.976C28.6394 236.075 28.7402 236.13 28.8659 236.14C29.346 236.123 29.8262 236.089 30.3042 236.037C30.5903 235.775 30.8678 235.501 31.1366 235.217C31.1962 235.173 31.2634 235.145 31.3371 235.132C31.3837 235.288 31.4455 235.437 31.5246 235.579C31.6796 235.525 31.839 235.489 32.0016 235.471C32.1869 235.529 32.3614 235.608 32.524 235.712C33.2686 235.6 34.0165 235.517 34.7676 235.464C35.1101 235.483 35.445 235.535 35.7745 235.622C35.8537 235.637 35.8645 235.671 35.8049 235.725C35.2727 235.936 34.7275 236.1 34.1704 236.217C34.0252 236.254 33.9851 236.34 34.0479 236.474C33.7607 236.544 33.4713 236.553 33.1797 236.499C32.2498 237.028 31.2862 237.496 30.2879 237.903C29.6452 238.091 28.997 238.257 28.3435 238.4C28.4139 238.793 28.4919 239.188 28.5787 239.583C28.7618 240.039 28.984 240.477 29.2463 240.893C29.3168 241.064 29.2723 241.104 29.113 241.015C28.6578 240.723 28.26 240.364 27.9207 239.937C27.5208 239.398 27.1664 238.832 26.8564 238.239C25.7833 238.045 24.7981 237.64 23.9006 237.024C23.6654 236.856 23.4649 236.654 23.2991 236.418C23.2774 236.339 23.2947 236.269 23.3511 236.209C23.9342 236.034 24.5336 235.957 25.1471 235.976C25.7172 235.985 26.2862 235.999 26.8542 236.019C27.2791 235.626 27.6855 235.213 28.0736 234.783H28.0714Z" fill="#AEDFE6"/>
<path fill-rule="evenodd" clip-rule="evenodd" d="M26.2507 192C26.8056 192.206 27.249 192.554 27.5806 193.046C27.7811 193.301 27.9589 193.572 28.1128 193.859C28.1659 193.893 28.2244 193.912 28.2906 193.918C28.8965 193.8 29.4969 193.665 30.0931 193.51C30.1126 193.452 30.1321 193.394 30.1527 193.336C30.1147 193.012 30.0454 192.702 29.9457 192.406C30.506 192.608 31.0079 192.908 31.4522 193.307C32.0722 193.322 32.6933 193.312 33.3133 193.278C33.9365 193.284 34.5565 193.324 35.1743 193.394C35.2643 193.392 35.3336 193.354 35.3813 193.278C35.5948 192.788 35.9395 192.419 36.4153 192.174C36.7112 192.288 36.8977 192.501 36.9768 192.813C37.0841 193.118 37.173 193.428 37.2423 193.743C38.815 194.351 40.3119 195.098 41.7329 195.98C41.8564 196.068 41.9345 196.184 41.9691 196.329C41.7242 196.646 41.4088 196.879 41.024 197.026C40.3748 197.251 39.7049 197.357 39.0145 197.346C38.5397 197.318 38.0672 197.289 37.5968 197.258C36.9519 198.01 36.1541 198.523 35.2036 198.798C35.1342 198.789 35.0659 198.779 34.9965 198.77C35.3293 198.163 35.6057 197.533 35.8235 196.881C34.8513 196.637 33.8866 196.366 32.9285 196.068C32.6456 196.177 32.3703 196.303 32.1015 196.445C31.9064 196.493 31.7102 196.522 31.5108 196.532C31.4869 196.259 31.4479 195.989 31.3926 195.719C30.2784 195.406 29.175 195.057 28.0835 194.673C27.4213 194.991 26.7319 195.233 26.0155 195.399C25.7792 195.438 25.5429 195.438 25.3066 195.399C26.3493 194.462 26.6637 193.329 26.2507 192Z" fill="#AEDFE6"/>
<path fill-rule="evenodd" clip-rule="evenodd" d="M25.113 198.799C25.7666 198.794 26.3714 198.984 26.9264 199.366C27.8086 199.34 28.6877 199.268 29.5645 199.15C30.3341 199.114 31.1036 199.114 31.8732 199.15C31.9794 199.194 32.09 199.222 32.2027 199.231C32.1984 199.475 32.1149 199.692 31.9556 199.88C30.9562 200.877 29.7846 201.616 28.4384 202.096C28.1923 202.652 27.9181 203.192 27.6135 203.718C27.451 203.932 27.2678 204.13 27.064 204.312C27.0369 203.7 27.0272 203.088 27.0369 202.475C26.1069 202.638 25.1726 202.772 24.234 202.88C23.975 203.12 23.691 203.327 23.3821 203.501C23.3192 203.344 23.291 203.182 23.2997 203.015C22.9691 203.031 22.6396 203.059 22.3101 203.096C22.1963 203.311 22.05 203.501 21.8701 203.663C21.8332 203.509 21.7595 203.373 21.65 203.258C21.4278 203.23 21.2078 203.249 20.9899 203.313C20.9173 203.741 20.8165 204.164 20.6875 204.583C20.3158 205.24 20.1326 205.167 20.138 204.367C20.0957 204.221 20.0318 204.086 19.9462 203.962C19.1127 203.617 18.2521 203.365 17.3633 203.205C17.6852 203.015 18.0331 202.889 18.4071 202.826C19.1354 202.687 19.8681 202.659 20.6052 202.745C21.029 202.715 21.3682 202.534 21.6218 202.205C21.6489 201.972 21.6587 201.737 21.6489 201.503C21.9047 201.565 22.1616 201.611 22.4185 201.638C23.3344 201.152 24.2503 200.665 25.1661 200.179C25.2995 200.044 25.3536 199.882 25.3309 199.693C25.3179 199.484 25.2908 199.276 25.2485 199.071C25.2279 198.964 25.1824 198.874 25.1109 198.8L25.113 198.799Z" fill="#AEDFE6"/>
<path fill-rule="evenodd" clip-rule="evenodd" d="M9.0309 202.555C9.18914 202.536 9.32571 202.577 9.43952 202.677C9.71157 203.57 9.75601 204.474 9.57284 205.389C9.43627 206.03 9.27802 206.666 9.0981 207.297C9.33113 208.256 9.37449 209.223 9.22491 210.198C8.94635 209.822 8.63636 209.469 8.29494 209.14C7.76059 209.926 7.23924 210.722 6.7309 211.528C6.74174 211.924 6.75691 212.321 6.77534 212.721C6.75258 212.865 6.72982 213.009 6.70597 213.152C6.51412 212.981 6.3071 212.83 6.08707 212.699C5.65352 213.234 5.23189 213.781 4.82219 214.338C4.7875 214.842 4.75282 215.346 4.71813 215.852C4.70404 215.929 4.67369 216 4.62817 216.066C4.47426 215.835 4.30734 215.613 4.12633 215.401C3.63967 216.135 3.13892 216.86 2.62408 217.574C2.58289 217.717 2.57855 217.862 2.60999 218.007C2.77799 218.481 2.94707 218.957 3.11507 219.431C3.14434 219.561 3.15843 219.688 3.15734 219.811C2.88746 219.332 2.48426 219.03 1.94773 218.908C1.70169 218.935 1.46107 218.991 1.22587 219.075C0.822666 219.258 0.414043 219.409 0 219.524C0.463901 218.868 1.05028 218.345 1.75805 217.954C1.92389 217.836 2.04745 217.686 2.13091 217.505C2.46041 216.732 2.80725 215.967 3.16818 215.208C2.82134 215.15 2.47342 215.131 2.12332 215.148C2.47884 214.541 2.99693 214.132 3.67761 213.923C3.78816 213.411 3.90522 212.9 4.02987 212.391C4.01253 212.345 3.99627 212.299 3.97893 212.253C3.89113 212.295 3.799 212.31 3.70254 212.299C3.77299 211.932 3.95725 211.631 4.25532 211.395C4.38755 210.05 4.73222 208.76 5.28825 207.528C4.57614 207.31 3.84669 207.161 3.0999 207.08C3.6245 206.531 4.26074 206.162 5.00753 205.975C5.32077 205.907 5.6351 205.844 5.94942 205.787C6.5293 204.972 7.15145 204.187 7.81478 203.435C8.18222 203.079 8.58542 202.785 9.02764 202.552L9.0309 202.555Z" fill="#AEDFE6"/>
<path fill-rule="evenodd" clip-rule="evenodd" d="M55.8307 213.451C55.8578 213.376 55.8968 213.372 55.9466 213.442C56.8192 214.452 57.4164 215.607 57.7383 216.908C58.2098 218.232 58.3182 219.582 58.0624 220.958C58.1935 221.145 58.3529 221.304 58.5414 221.434C58.6227 221.664 58.5935 221.877 58.4515 222.074C59.1766 222.453 59.8497 222.913 60.4697 223.453C60.952 223.958 61.4332 224.462 61.9156 224.967C61.4072 225.057 60.9141 225.195 60.4339 225.38C59.3316 225.842 58.2466 226.335 57.1768 226.861C56.9687 227.146 56.7596 227.432 56.5514 227.718C56.4387 227.821 56.3097 227.899 56.1634 227.951C56.1407 227.915 56.1179 227.878 56.0951 227.842C56.1699 227.665 56.2219 227.488 56.2534 227.312C55.8881 226.963 55.4589 226.837 54.9646 226.933C54.8324 227.111 54.7219 227.302 54.6351 227.506C54.5235 227.35 54.4596 227.174 54.4433 226.978C54.504 226.508 54.4921 226.04 54.4086 225.574C54.0141 224.385 53.561 223.217 53.0516 222.071C52.9259 221.705 52.8446 221.328 52.8066 220.944C53.4429 221.085 54.0791 221.233 54.7132 221.385C55.3364 221.527 55.9607 221.541 56.585 221.428C56.6436 221.306 56.7335 221.212 56.8528 221.146C57.1183 221.104 57.3644 221.016 57.5887 220.883C57.7968 219.772 57.7676 218.664 57.5031 217.56C57.2094 216.079 56.6522 214.708 55.8307 213.451Z" fill="#AEDFE6"/>
<path fill-rule="evenodd" clip-rule="evenodd" d="M32.4919 252.786C30.956 252.104 29.4093 251.432 27.8485 250.768C25.1107 249.494 22.6166 247.854 20.3687 245.847C19.7021 244.687 19.3119 243.443 19.2003 242.116C19.1428 241.086 19.4463 240.2 20.1085 239.457C19.7021 239.356 19.288 239.297 18.8643 239.281C17.6351 239.4 16.406 239.499 15.1747 239.579C14.9265 239.565 14.6816 239.535 14.4398 239.487C13.8047 239.094 13.1186 238.859 12.3826 238.781C12.2862 238.77 12.2168 238.807 12.1735 238.893C12.4878 239.088 12.7858 239.307 13.0687 239.547C13.0709 239.867 12.9571 240.139 12.7284 240.364C12.4087 240.197 12.1084 240.001 11.8277 239.775C11.7377 239.732 11.6738 239.758 11.6348 239.849C11.6478 239.99 11.6987 240.116 11.7854 240.228C12.1984 240.734 12.6124 241.24 13.0254 241.748C13.2758 242.06 13.4557 242.408 13.5662 242.787C13.6931 243.422 13.7581 244.063 13.7603 244.709C13.7006 245.645 13.6237 246.569 13.5316 247.48C14.326 247.178 15.127 246.879 15.9356 246.586C16.7193 246.393 17.5094 246.359 18.3061 246.485C18.4329 246.503 18.5239 246.572 18.5792 246.692C18.6258 247.282 18.6908 247.87 18.7743 248.458C18.8068 248.487 18.8393 248.515 18.8729 248.545C19.0864 248.012 19.2035 247.458 19.2252 246.88C19.2479 246.83 19.2837 246.816 19.3357 246.838C19.5048 246.97 19.6967 247.053 19.9102 247.085C19.9048 246.888 19.8788 246.689 19.8322 246.491C19.8733 246.361 19.9579 246.308 20.0858 246.331C23.3949 249.286 27.1939 251.391 31.4839 252.645C31.8166 252.727 32.1526 252.774 32.4919 252.786Z" fill="#AEDFE6"/>
</svg>
